<svg fill="#151515" viewBox="0 0 24 24" id="car-door-left" data-name="Flat Color" xmlns="http://www.w3.org/2000/svg" class="icon flat-color"><g id="SVGRepo_bgCarrier" stroke-width="0"></g><g id="SVGRepo_tracerCarrier" stroke-linecap="round" stroke-linejoin="round"></g><g id="SVGRepo_iconCarrier"><path id="primary" d="M20.82,8.43,17.13,2.89A2,2,0,0,0,15.46,2H5A2,2,0,0,0,3,4V20a2,2,0,0,0,2,2h8a2,2,0,0,0,2-2V19a5,5,0,0,1,4.29-4.95,2,2,0,0,0,1.71-2V9A1,1,0,0,0,20.82,8.43ZM5,9V4H15.46L18.8,9Z" style="fill: #151515;"></path><path id="secondary" d="M9,13H6a1,1,0,0,1,0-2H9a1,1,0,0,1,0,2Z" style="fill: #000000;"></path></g></svg>