<svg xmlns="http://www.w3.org/2000/svg" xmlns:xlink="http://www.w3.org/1999/xlink" width="500" zoomAndPan="magnify" viewBox="0 0 375 374.999991" height="500" preserveAspectRatio="xMidYMid meet" version="1.0"><defs><filter x="0%" y="0%" width="100%" height="100%" id="55a1ce5a5c"><feColorMatrix values="0 0 0 0 1 0 0 0 0 1 0 0 0 0 1 0 0 0 1 0" color-interpolation-filters="sRGB"/></filter><g/><clipPath id="04bcc20338"><path d="M 2.222656 2.222656 L 372.722656 2.222656 L 372.722656 372.722656 L 2.222656 372.722656 Z M 2.222656 2.222656 " clip-rule="nonzero"/></clipPath><clipPath id="2eb1ede8e8"><path d="M 2.222656 76.472656 L 2.222656 298.527344 C 2.222656 339.535156 35.464844 372.777344 76.472656 372.777344 L 298.527344 372.777344 C 339.535156 372.777344 372.777344 339.535156 372.777344 298.527344 L 372.777344 76.472656 C 372.777344 35.464844 339.535156 2.222656 298.527344 2.222656 L 76.472656 2.222656 C 35.464844 2.222656 2.222656 35.464844 2.222656 76.472656 Z M 2.222656 76.472656 " clip-rule="nonzero"/></clipPath><mask id="23a37ed87d"><g filter="url(#55a1ce5a5c)"><rect x="-37.5" width="450" fill="#000000" y="-37.499999" height="449.999989" fill-opacity="0.9"/></g></mask><clipPath id="30d50da3c1"><path d="M 1 0.191406 L 21 0.191406 L 21 21 L 1 21 Z M 1 0.191406 " clip-rule="nonzero"/></clipPath><clipPath id="603b45ff64"><rect x="0" width="23" y="0" height="23"/></clipPath></defs><g clip-path="url(#04bcc20338)"><g clip-path="url(#2eb1ede8e8)"><path fill="#f9f9fa" d="M 2.222656 2.222656 L 372.722656 2.222656 L 372.722656 372.722656 L 2.222656 372.722656 Z M 2.222656 2.222656 " fill-opacity="1" fill-rule="nonzero"/></g></g><g fill="#371211" fill-opacity="1"><g transform="translate(22.724583, 175.117679)"><g><path d="M -2.546875 0 L 37.046875 -78.09375 L 50.46875 -78.09375 L 89.84375 0 L 72.875 0 L 63.34375 -18.640625 L 23.515625 -18.640625 L 13.96875 0 Z M 29.953125 -31.5 L 56.90625 -31.5 L 49.140625 -48.25 L 43.8125 -62.5625 L 38.046875 -48.03125 Z M 29.953125 -31.5 "/></g></g></g><g fill="#371211" fill-opacity="1"><g transform="translate(105.902415, 175.117679)"><g><path d="M 45.359375 1.21875 C 40.410156 1.21875 35.550781 0.332031 30.78125 -1.4375 C 26.007812 -3.21875 21.71875 -5.878906 17.90625 -9.421875 C 14.101562 -12.972656 11.070312 -17.410156 8.8125 -22.734375 C 6.5625 -28.054688 5.4375 -34.269531 5.4375 -41.375 L 5.4375 -77.640625 L 20.859375 -77.640625 L 20.859375 -41.375 C 20.859375 -34.789062 22.054688 -29.296875 24.453125 -24.890625 C 26.859375 -20.492188 29.925781 -17.203125 33.65625 -15.015625 C 37.394531 -12.835938 41.257812 -11.75 45.25 -11.75 C 49.320312 -11.75 53.207031 -12.835938 56.90625 -15.015625 C 60.601562 -17.203125 63.648438 -20.492188 66.046875 -24.890625 C 68.453125 -29.296875 69.65625 -34.789062 69.65625 -41.375 L 69.65625 -77.640625 L 85.078125 -77.640625 L 85.078125 -41.375 C 85.078125 -34.269531 83.945312 -28.054688 81.6875 -22.734375 C 79.4375 -17.410156 76.425781 -12.972656 72.65625 -9.421875 C 68.882812 -5.878906 64.628906 -3.21875 59.890625 -1.4375 C 55.160156 0.332031 50.316406 1.21875 45.359375 1.21875 Z M 45.359375 1.21875 "/></g></g></g><g fill="#371211" fill-opacity="1"><g transform="translate(193.18376, 175.117679)"><g><path d="M 29.171875 0 L 29.171875 -64.453125 L -1 -64.453125 L -1 -77.640625 L 74.765625 -77.640625 L 74.765625 -64.453125 L 44.703125 -64.453125 L 44.703125 0 Z M 29.171875 0 "/></g></g></g><g fill="#371211" fill-opacity="1"><g transform="translate(263.163839, 175.117679)"><g><path d="M 42.921875 1.109375 C 37.003906 1.109375 31.550781 0.128906 26.5625 -1.828125 C 21.570312 -3.785156 17.242188 -6.578125 13.578125 -10.203125 C 9.921875 -13.828125 7.078125 -18.097656 5.046875 -23.015625 C 3.015625 -27.929688 2 -33.3125 2 -39.15625 C 2 -45 3.015625 -50.359375 5.046875 -55.234375 C 7.078125 -60.117188 9.921875 -64.351562 13.578125 -67.9375 C 17.242188 -71.519531 21.570312 -74.289062 26.5625 -76.25 C 31.550781 -78.21875 37.003906 -79.203125 42.921875 -79.203125 C 48.910156 -79.203125 54.398438 -78.21875 59.390625 -76.25 C 64.390625 -74.289062 68.71875 -71.519531 72.375 -67.9375 C 76.03125 -64.351562 78.859375 -60.117188 80.859375 -55.234375 C 82.859375 -50.359375 83.859375 -45 83.859375 -39.15625 C 83.859375 -33.3125 82.859375 -27.929688 80.859375 -23.015625 C 78.859375 -18.097656 76.03125 -13.828125 72.375 -10.203125 C 68.71875 -6.578125 64.390625 -3.785156 59.390625 -1.828125 C 54.398438 0.128906 48.910156 1.109375 42.921875 1.109375 Z M 42.921875 -12.09375 C 47.953125 -12.09375 52.390625 -13.273438 56.234375 -15.640625 C 60.078125 -18.003906 63.070312 -21.21875 65.21875 -25.28125 C 67.363281 -29.351562 68.4375 -33.976562 68.4375 -39.15625 C 68.4375 -44.332031 67.363281 -48.953125 65.21875 -53.015625 C 63.070312 -57.085938 60.078125 -60.285156 56.234375 -62.609375 C 52.390625 -64.941406 47.953125 -66.109375 42.921875 -66.109375 C 37.972656 -66.109375 33.570312 -64.941406 29.71875 -62.609375 C 25.875 -60.285156 22.878906 -57.085938 20.734375 -53.015625 C 18.597656 -48.953125 17.53125 -44.332031 17.53125 -39.15625 C 17.53125 -33.976562 18.597656 -29.351562 20.734375 -25.28125 C 22.878906 -21.21875 25.875 -18.003906 29.71875 -15.640625 C 33.570312 -13.273438 37.972656 -12.09375 42.921875 -12.09375 Z M 42.921875 -12.09375 "/></g></g></g><g mask="url(#23a37ed87d)"><g transform="matrix(1, 0, 0, 1, 255, 269)"><g clip-path="url(#603b45ff64)"><path fill="#ffffff" d="M 11.078125 4.199219 C 11.507812 4.199219 11.933594 4.242188 12.351562 4.324219 C 12.773438 4.40625 13.183594 4.53125 13.578125 4.695312 C 13.976562 4.859375 14.351562 5.0625 14.710938 5.300781 C 15.066406 5.539062 15.398438 5.808594 15.699219 6.113281 C 16.003906 6.417969 16.277344 6.746094 16.515625 7.105469 C 16.753906 7.460938 16.953125 7.839844 17.117188 8.234375 C 17.28125 8.632812 17.40625 9.039062 17.492188 9.460938 C 17.574219 9.882812 17.617188 10.308594 17.617188 10.738281 C 17.617188 11.167969 17.574219 11.589844 17.492188 12.011719 C 17.40625 12.433594 17.28125 12.84375 17.117188 13.238281 C 16.953125 13.636719 16.753906 14.011719 16.515625 14.371094 C 16.277344 14.726562 16.003906 15.054688 15.699219 15.359375 C 15.398438 15.664062 15.066406 15.933594 14.710938 16.171875 C 14.351562 16.410156 13.976562 16.613281 13.578125 16.777344 C 13.183594 16.941406 12.773438 17.066406 12.351562 17.148438 C 11.933594 17.234375 11.507812 17.273438 11.078125 17.273438 C 10.648438 17.273438 10.222656 17.234375 9.800781 17.148438 C 9.382812 17.066406 8.972656 16.941406 8.574219 16.777344 C 8.179688 16.613281 7.800781 16.410156 7.445312 16.171875 C 7.089844 15.933594 6.757812 15.664062 6.453125 15.359375 C 6.152344 15.054688 5.878906 14.726562 5.640625 14.371094 C 5.402344 14.011719 5.203125 13.636719 5.035156 13.238281 C 4.871094 12.84375 4.75 12.433594 4.664062 12.011719 C 4.582031 11.589844 4.539062 11.167969 4.539062 10.738281 C 4.539062 10.308594 4.582031 9.882812 4.664062 9.460938 C 4.75 9.039062 4.871094 8.632812 5.035156 8.234375 C 5.203125 7.839844 5.402344 7.460938 5.640625 7.105469 C 5.878906 6.746094 6.152344 6.417969 6.453125 6.113281 C 6.757812 5.808594 7.089844 5.539062 7.445312 5.300781 C 7.800781 5.0625 8.179688 4.859375 8.574219 4.695312 C 8.972656 4.53125 9.382812 4.40625 9.800781 4.324219 C 10.222656 4.242188 10.648438 4.199219 11.078125 4.199219 Z M 11.078125 4.199219 " fill-opacity="1" fill-rule="nonzero"/><path stroke-linecap="butt" transform="matrix(0.329551, 0, 0, 0.329551, 0.53199, 0.191242)" fill-opacity="1" fill="#371211" fill-rule="nonzero" stroke-linejoin="miter" d="M 25.197778 32.00429 C 25.197778 26.36214 29.761282 21.798636 35.403432 21.798636 C 38.046708 21.798636 40.346239 22.699484 42.290173 24.501179 C 39.978788 21.324506 36.233159 19.250186 32.001547 19.250186 C 24.960713 19.250186 19.247443 24.963456 19.247443 32.00429 C 19.247443 39.045124 24.960713 44.74654 32.001547 44.74654 C 36.233159 44.74654 39.978788 42.67222 42.290173 39.495548 C 40.346239 41.297242 38.046708 42.19809 35.403432 42.19809 C 29.761282 42.19809 25.197778 37.634586 25.197778 32.00429 " stroke="#371211" stroke-width="0.001" stroke-opacity="1" stroke-miterlimit="4"/><path stroke-linecap="butt" transform="matrix(0.329551, 0, 0, 0.329551, 0.53199, 0.191242)" fill-opacity="1" fill="#371211" fill-rule="nonzero" stroke-linejoin="miter" d="M 36.304279 29.218774 L 33.03278 24.72639 L 33.03278 30.285568 L 27.746228 32.00429 L 33.03278 33.711159 L 33.03278 39.270336 L 36.304279 34.777952 L 41.590831 36.496674 L 38.319333 32.00429 L 41.590831 27.500052 Z M 36.304279 29.218774 " stroke="#371211" stroke-width="0.001" stroke-opacity="1" stroke-miterlimit="4"/><g clip-path="url(#30d50da3c1)"><path stroke-linecap="butt" transform="matrix(0.329551, 0, 0, 0.329551, 0.53199, 0.191242)" fill-opacity="1" fill="#371211" fill-rule="nonzero" stroke-linejoin="miter" d="M 32.001547 2.003698 C 15.430695 2.003698 2.000956 15.433438 2.000956 32.00429 C 2.000956 48.563288 15.430695 62.004881 32.001547 62.004881 C 48.572399 62.004881 62.002138 48.563288 62.002138 32.00429 C 62.002138 15.433438 48.572399 2.003698 32.001547 2.003698 Z M 32.001547 49.001859 C 22.613768 49.001859 15.003978 41.392069 15.003978 32.00429 C 15.003978 22.616511 22.613768 15.00672 32.001547 15.00672 C 41.389326 15.00672 48.999116 22.616511 48.999116 32.00429 C 48.999116 41.392069 41.389326 49.001859 32.001547 49.001859 Z M 32.001547 49.001859 " stroke="#371211" stroke-width="0.001" stroke-opacity="1" stroke-miterlimit="4"/></g></g></g></g><g fill="#cecdcd" fill-opacity="1"><g transform="translate(100.868348, 287.969455)"><g><path d="M 1.46875 0 L 1.46875 -20.53125 L 5.421875 -20.53125 L 13.4375 -10 L 21.46875 -20.53125 L 25.34375 -20.53125 L 25.34375 0 L 21.265625 0 L 21.265625 -11.40625 L 21.40625 -14.421875 L 14.515625 -5.421875 L 12.265625 -5.421875 L 5.390625 -14.34375 L 5.546875 -11.265625 L 5.546875 0 Z M 1.46875 0 "/></g></g></g><g fill="#cecdcd" fill-opacity="1"><g transform="translate(126.206019, 287.969455)"><g><path d="M 6.21875 0.296875 C 5.257812 0.273438 4.328125 0.109375 3.421875 -0.203125 C 2.523438 -0.515625 1.789062 -1.007812 1.21875 -1.6875 C 0.65625 -2.363281 0.375 -3.25 0.375 -4.34375 C 0.375 -5.414062 0.660156 -6.257812 1.234375 -6.875 C 1.816406 -7.488281 2.570312 -7.929688 3.5 -8.203125 C 4.425781 -8.484375 5.398438 -8.625 6.421875 -8.625 L 10.84375 -8.625 C 10.59375 -9.445312 10.113281 -10.046875 9.40625 -10.421875 C 8.707031 -10.804688 7.957031 -11 7.15625 -11 C 6.445312 -11 5.757812 -10.851562 5.09375 -10.5625 C 4.4375 -10.28125 3.910156 -9.890625 3.515625 -9.390625 L 1.109375 -11.46875 C 1.859375 -12.625 2.796875 -13.40625 3.921875 -13.8125 C 5.054688 -14.21875 6.222656 -14.421875 7.421875 -14.421875 C 8.316406 -14.421875 9.195312 -14.289062 10.0625 -14.03125 C 10.9375 -13.769531 11.722656 -13.378906 12.421875 -12.859375 C 13.128906 -12.335938 13.691406 -11.695312 14.109375 -10.9375 C 14.535156 -10.175781 14.75 -9.296875 14.75 -8.296875 L 14.75 -2.984375 L 14.90625 0 L 11.5 0 L 11.140625 -1.96875 C 10.648438 -1.207031 9.945312 -0.640625 9.03125 -0.265625 C 8.113281 0.109375 7.175781 0.296875 6.21875 0.296875 Z M 6.59375 -2.9375 C 7.1875 -2.9375 7.796875 -3.015625 8.421875 -3.171875 C 9.046875 -3.328125 9.597656 -3.617188 10.078125 -4.046875 C 10.554688 -4.472656 10.84375 -5.078125 10.9375 -5.859375 L 6.3125 -5.859375 C 5.800781 -5.859375 5.316406 -5.734375 4.859375 -5.484375 C 4.398438 -5.234375 4.171875 -4.863281 4.171875 -4.375 C 4.171875 -4.019531 4.304688 -3.734375 4.578125 -3.515625 C 4.847656 -3.304688 5.171875 -3.15625 5.546875 -3.0625 C 5.929688 -2.976562 6.28125 -2.9375 6.59375 -2.9375 Z M 6.59375 -2.9375 "/></g></g></g><g fill="#cecdcd" fill-opacity="1"><g transform="translate(140.751522, 287.969455)"><g><path d="M 1.171875 0 L 1.171875 -13.953125 L 4.40625 -13.953125 L 4.640625 -12.3125 C 5.140625 -13.113281 5.738281 -13.640625 6.4375 -13.890625 C 7.132812 -14.148438 7.753906 -14.28125 8.296875 -14.28125 C 8.984375 -14.28125 9.738281 -14.144531 10.5625 -13.875 C 11.382812 -13.601562 12.066406 -13.125 12.609375 -12.4375 L 10.9375 -9.90625 C 10.25 -10.53125 9.445312 -10.84375 8.53125 -10.84375 C 7.59375 -10.84375 6.769531 -10.53125 6.0625 -9.90625 C 5.363281 -9.28125 4.992188 -8.453125 4.953125 -7.421875 L 4.953125 0 Z M 1.171875 0 "/></g></g></g><g fill="#cecdcd" fill-opacity="1"><g transform="translate(151.279293, 287.969455)"><g><path d="M 1.171875 0 L 1.171875 -20.53125 L 4.921875 -20.53125 L 4.921875 -8.03125 L 6.828125 -10.328125 L 10.765625 -13.953125 L 15.546875 -13.953125 L 15.546875 -13.8125 L 8.9375 -7.65625 L 15.921875 -0.09375 L 15.921875 0 L 11.53125 0 L 6.390625 -5.578125 L 4.953125 -4.21875 L 4.953125 0 Z M 1.171875 0 "/></g></g></g><g fill="#cecdcd" fill-opacity="1"><g transform="translate(165.120965, 287.969455)"><g><path d="M 7.75 0.234375 C 6.320312 0.234375 5.050781 -0.0664062 3.9375 -0.671875 C 2.820312 -1.273438 1.945312 -2.117188 1.3125 -3.203125 C 0.675781 -4.296875 0.359375 -5.554688 0.359375 -6.984375 C 0.359375 -8.410156 0.675781 -9.664062 1.3125 -10.75 C 1.945312 -11.832031 2.828125 -12.675781 3.953125 -13.28125 C 5.085938 -13.882812 6.378906 -14.1875 7.828125 -14.1875 C 9.335938 -14.1875 10.640625 -13.867188 11.734375 -13.234375 C 12.828125 -12.597656 13.671875 -11.707031 14.265625 -10.5625 C 14.859375 -9.425781 15.15625 -8.085938 15.15625 -6.546875 C 15.15625 -6.398438 15.15625 -6.242188 15.15625 -6.078125 C 15.15625 -5.921875 15.148438 -5.765625 15.140625 -5.609375 L 4.21875 -5.609375 C 4.34375 -4.921875 4.609375 -4.382812 5.015625 -4 C 5.421875 -3.625 5.894531 -3.359375 6.4375 -3.203125 C 6.988281 -3.046875 7.53125 -2.96875 8.0625 -2.96875 C 8.707031 -2.96875 9.328125 -3.0625 9.921875 -3.25 C 10.523438 -3.445312 10.984375 -3.820312 11.296875 -4.375 L 14.375 -3.28125 C 13.882812 -2.363281 13.28125 -1.644531 12.5625 -1.125 C 11.851562 -0.613281 11.085938 -0.257812 10.265625 -0.0625 C 9.441406 0.132812 8.601562 0.234375 7.75 0.234375 Z M 4.21875 -8.453125 L 11.5 -8.453125 C 11.300781 -9.328125 10.835938 -9.972656 10.109375 -10.390625 C 9.390625 -10.816406 8.640625 -11.03125 7.859375 -11.03125 C 7.015625 -11.03125 6.242188 -10.804688 5.546875 -10.359375 C 4.859375 -9.921875 4.414062 -9.285156 4.21875 -8.453125 Z M 4.21875 -8.453125 "/></g></g></g><g fill="#cecdcd" fill-opacity="1"><g transform="translate(179.549168, 287.969455)"><g><path d="M 8.625 0.265625 C 6.644531 0.242188 5.128906 -0.335938 4.078125 -1.484375 C 3.035156 -2.628906 2.515625 -4.085938 2.515625 -5.859375 L 2.515625 -11.109375 L -0.0625 -11.109375 L -0.0625 -13.953125 L 2.515625 -13.953125 L 2.515625 -20.53125 L 6.25 -20.53125 L 6.25 -13.953125 L 11.234375 -13.953125 L 11.234375 -11.109375 L 6.25 -11.109375 L 6.25 -5.859375 C 6.226562 -5.023438 6.488281 -4.328125 7.03125 -3.765625 C 7.582031 -3.210938 8.28125 -2.9375 9.125 -2.9375 C 9.414062 -2.9375 9.722656 -2.972656 10.046875 -3.046875 C 10.367188 -3.128906 10.695312 -3.257812 11.03125 -3.4375 L 12.03125 -0.671875 C 11.363281 -0.335938 10.75 -0.0976562 10.1875 0.046875 C 9.632812 0.191406 9.113281 0.265625 8.625 0.265625 Z M 8.625 0.265625 "/></g></g></g><g fill="#cecdcd" fill-opacity="1"><g transform="translate(189.871652, 287.969455)"><g><path d="M 1.171875 6.5625 L 1.171875 -13.953125 L 4.34375 -13.953125 L 4.71875 -12.03125 C 5.289062 -12.882812 6.007812 -13.472656 6.875 -13.796875 C 7.75 -14.117188 8.632812 -14.25 9.53125 -14.1875 C 11.132812 -14.09375 12.441406 -13.679688 13.453125 -12.953125 C 14.472656 -12.234375 15.234375 -11.34375 15.734375 -10.28125 C 16.234375 -9.226562 16.484375 -8.128906 16.484375 -6.984375 C 16.484375 -5.628906 16.171875 -4.40625 15.546875 -3.3125 C 14.921875 -2.21875 14.039062 -1.347656 12.90625 -0.703125 C 11.769531 -0.0546875 10.429688 0.265625 8.890625 0.265625 C 8.128906 0.265625 7.410156 0.132812 6.734375 -0.125 C 6.054688 -0.394531 5.460938 -0.898438 4.953125 -1.640625 L 4.953125 6.5625 Z M 8.765625 -3.078125 C 9.648438 -3.078125 10.378906 -3.265625 10.953125 -3.640625 C 11.523438 -4.023438 11.953125 -4.515625 12.234375 -5.109375 C 12.523438 -5.710938 12.671875 -6.335938 12.671875 -6.984375 C 12.671875 -7.609375 12.523438 -8.21875 12.234375 -8.8125 C 11.953125 -9.40625 11.523438 -9.894531 10.953125 -10.28125 C 10.378906 -10.675781 9.648438 -10.875 8.765625 -10.875 C 7.554688 -10.875 6.59375 -10.503906 5.875 -9.765625 C 5.164062 -9.023438 4.8125 -8.109375 4.8125 -7.015625 C 4.8125 -5.910156 5.15625 -4.976562 5.84375 -4.21875 C 6.539062 -3.457031 7.515625 -3.078125 8.765625 -3.078125 Z M 8.765625 -3.078125 "/></g></g></g><g fill="#cecdcd" fill-opacity="1"><g transform="translate(205.619545, 287.969455)"><g><path d="M 1.171875 0 L 1.171875 -20.53125 L 4.953125 -20.53125 L 4.953125 0 Z M 1.171875 0 "/></g></g></g><g fill="#cecdcd" fill-opacity="1"><g transform="translate(210.340661, 287.969455)"><g><path d="M 6.21875 0.296875 C 5.257812 0.273438 4.328125 0.109375 3.421875 -0.203125 C 2.523438 -0.515625 1.789062 -1.007812 1.21875 -1.6875 C 0.65625 -2.363281 0.375 -3.25 0.375 -4.34375 C 0.375 -5.414062 0.660156 -6.257812 1.234375 -6.875 C 1.816406 -7.488281 2.570312 -7.929688 3.5 -8.203125 C 4.425781 -8.484375 5.398438 -8.625 6.421875 -8.625 L 10.84375 -8.625 C 10.59375 -9.445312 10.113281 -10.046875 9.40625 -10.421875 C 8.707031 -10.804688 7.957031 -11 7.15625 -11 C 6.445312 -11 5.757812 -10.851562 5.09375 -10.5625 C 4.4375 -10.28125 3.910156 -9.890625 3.515625 -9.390625 L 1.109375 -11.46875 C 1.859375 -12.625 2.796875 -13.40625 3.921875 -13.8125 C 5.054688 -14.21875 6.222656 -14.421875 7.421875 -14.421875 C 8.316406 -14.421875 9.195312 -14.289062 10.0625 -14.03125 C 10.9375 -13.769531 11.722656 -13.378906 12.421875 -12.859375 C 13.128906 -12.335938 13.691406 -11.695312 14.109375 -10.9375 C 14.535156 -10.175781 14.75 -9.296875 14.75 -8.296875 L 14.75 -2.984375 L 14.90625 0 L 11.5 0 L 11.140625 -1.96875 C 10.648438 -1.207031 9.945312 -0.640625 9.03125 -0.265625 C 8.113281 0.109375 7.175781 0.296875 6.21875 0.296875 Z M 6.59375 -2.9375 C 7.1875 -2.9375 7.796875 -3.015625 8.421875 -3.171875 C 9.046875 -3.328125 9.597656 -3.617188 10.078125 -4.046875 C 10.554688 -4.472656 10.84375 -5.078125 10.9375 -5.859375 L 6.3125 -5.859375 C 5.800781 -5.859375 5.316406 -5.734375 4.859375 -5.484375 C 4.398438 -5.234375 4.171875 -4.863281 4.171875 -4.375 C 4.171875 -4.019531 4.304688 -3.734375 4.578125 -3.515625 C 4.847656 -3.304688 5.171875 -3.15625 5.546875 -3.0625 C 5.929688 -2.976562 6.28125 -2.9375 6.59375 -2.9375 Z M 6.59375 -2.9375 "/></g></g></g><g fill="#cecdcd" fill-opacity="1"><g transform="translate(224.886157, 287.969455)"><g><path d="M 7.75 0.296875 C 6.320312 0.296875 5.050781 -0.00390625 3.9375 -0.609375 C 2.820312 -1.222656 1.941406 -2.070312 1.296875 -3.15625 C 0.648438 -4.238281 0.328125 -5.492188 0.328125 -6.921875 C 0.328125 -8.390625 0.632812 -9.671875 1.25 -10.765625 C 1.863281 -11.859375 2.726562 -12.710938 3.84375 -13.328125 C 4.957031 -13.941406 6.257812 -14.25 7.75 -14.25 C 8.738281 -14.25 9.675781 -14.097656 10.5625 -13.796875 C 11.457031 -13.492188 12.242188 -12.988281 12.921875 -12.28125 C 13.609375 -11.582031 14.117188 -10.632812 14.453125 -9.4375 L 11.203125 -8.890625 C 10.960938 -9.492188 10.648438 -9.9375 10.265625 -10.21875 C 9.890625 -10.5 9.476562 -10.6875 9.03125 -10.78125 C 8.582031 -10.882812 8.15625 -10.9375 7.75 -10.9375 C 6.613281 -10.9375 5.726562 -10.550781 5.09375 -9.78125 C 4.457031 -9.007812 4.140625 -8.054688 4.140625 -6.921875 C 4.140625 -5.847656 4.460938 -4.921875 5.109375 -4.140625 C 5.765625 -3.367188 6.644531 -2.984375 7.75 -2.984375 C 8.132812 -2.984375 8.539062 -3.03125 8.96875 -3.125 C 9.40625 -3.226562 9.820312 -3.445312 10.21875 -3.78125 C 10.625 -4.113281 10.960938 -4.625 11.234375 -5.3125 L 14.546875 -4.578125 C 14.210938 -3.398438 13.691406 -2.453125 12.984375 -1.734375 C 12.285156 -1.023438 11.476562 -0.507812 10.5625 -0.1875 C 9.65625 0.132812 8.71875 0.296875 7.75 0.296875 Z M 7.75 0.296875 "/></g></g></g><g fill="#cecdcd" fill-opacity="1"><g transform="translate(238.111971, 287.969455)"><g><path d="M 7.75 0.234375 C 6.320312 0.234375 5.050781 -0.0664062 3.9375 -0.671875 C 2.820312 -1.273438 1.945312 -2.117188 1.3125 -3.203125 C 0.675781 -4.296875 0.359375 -5.554688 0.359375 -6.984375 C 0.359375 -8.410156 0.675781 -9.664062 1.3125 -10.75 C 1.945312 -11.832031 2.828125 -12.675781 3.953125 -13.28125 C 5.085938 -13.882812 6.378906 -14.1875 7.828125 -14.1875 C 9.335938 -14.1875 10.640625 -13.867188 11.734375 -13.234375 C 12.828125 -12.597656 13.671875 -11.707031 14.265625 -10.5625 C 14.859375 -9.425781 15.15625 -8.085938 15.15625 -6.546875 C 15.15625 -6.398438 15.15625 -6.242188 15.15625 -6.078125 C 15.15625 -5.921875 15.148438 -5.765625 15.140625 -5.609375 L 4.21875 -5.609375 C 4.34375 -4.921875 4.609375 -4.382812 5.015625 -4 C 5.421875 -3.625 5.894531 -3.359375 6.4375 -3.203125 C 6.988281 -3.046875 7.53125 -2.96875 8.0625 -2.96875 C 8.707031 -2.96875 9.328125 -3.0625 9.921875 -3.25 C 10.523438 -3.445312 10.984375 -3.820312 11.296875 -4.375 L 14.375 -3.28125 C 13.882812 -2.363281 13.28125 -1.644531 12.5625 -1.125 C 11.851562 -0.613281 11.085938 -0.257812 10.265625 -0.0625 C 9.441406 0.132812 8.601562 0.234375 7.75 0.234375 Z M 4.21875 -8.453125 L 11.5 -8.453125 C 11.300781 -9.328125 10.835938 -9.972656 10.109375 -10.390625 C 9.390625 -10.816406 8.640625 -11.03125 7.859375 -11.03125 C 7.015625 -11.03125 6.242188 -10.804688 5.546875 -10.359375 C 4.859375 -9.921875 4.414062 -9.285156 4.21875 -8.453125 Z M 4.21875 -8.453125 "/></g></g></g><g fill="#151515" fill-opacity="1"><g transform="translate(20.594235, 240.857533)"><g><path d="M 27.21875 1.203125 C 23.394531 1.203125 19.863281 0.554688 16.625 -0.734375 C 13.382812 -2.035156 10.582031 -3.859375 8.21875 -6.203125 C 5.851562 -8.546875 4.019531 -11.3125 2.71875 -14.5 C 1.425781 -17.6875 0.78125 -21.171875 0.78125 -24.953125 C 0.78125 -28.734375 1.425781 -32.207031 2.71875 -35.375 C 4.019531 -38.539062 5.851562 -41.28125 8.21875 -43.59375 C 10.582031 -45.914062 13.382812 -47.710938 16.625 -48.984375 C 19.863281 -50.265625 23.394531 -50.90625 27.21875 -50.90625 C 30.4375 -50.90625 33.59375 -50.382812 36.6875 -49.34375 C 39.78125 -48.300781 42.554688 -46.632812 45.015625 -44.34375 C 47.472656 -42.050781 49.382812 -38.988281 50.75 -35.15625 L 42.609375 -32.25 C 41.515625 -34.851562 40.128906 -36.875 38.453125 -38.3125 C 36.773438 -39.757812 34.96875 -40.773438 33.03125 -41.359375 C 31.09375 -41.953125 29.15625 -42.25 27.21875 -42.25 C 24.007812 -42.25 21.175781 -41.515625 18.71875 -40.046875 C 16.257812 -38.585938 14.332031 -36.554688 12.9375 -33.953125 C 11.539062 -31.359375 10.84375 -28.359375 10.84375 -24.953125 C 10.84375 -21.597656 11.539062 -18.582031 12.9375 -15.90625 C 14.332031 -13.238281 16.257812 -11.148438 18.71875 -9.640625 C 21.175781 -8.128906 24.007812 -7.375 27.21875 -7.375 C 29.15625 -7.375 31.09375 -7.691406 33.03125 -8.328125 C 34.96875 -8.960938 36.773438 -10.046875 38.453125 -11.578125 C 40.128906 -13.117188 41.515625 -15.191406 42.609375 -17.796875 L 51.1875 -15.09375 C 49.570312 -11.125 47.515625 -7.945312 45.015625 -5.5625 C 42.515625 -3.175781 39.738281 -1.453125 36.6875 -0.390625 C 33.632812 0.671875 30.476562 1.203125 27.21875 1.203125 Z M 27.21875 1.203125 "/></g></g></g><g fill="#151515" fill-opacity="1"><g transform="translate(68.652929, 240.857533)"><g><path d="M 3.46875 0 L 3.46875 -49.625 L 43.171875 -49.625 L 43.171875 -41.1875 L 12.96875 -41.1875 L 12.96875 -28.859375 L 41.96875 -28.859375 L 41.96875 -20.703125 L 12.96875 -20.703125 L 12.96875 -8.4375 L 43.171875 -8.4375 L 43.171875 0 Z M 3.46875 0 "/></g></g></g><g fill="#151515" fill-opacity="1"><g transform="translate(110.828221, 240.857533)"><g><path d="M 3.546875 0 L 3.546875 -49.625 L 12.328125 -49.625 L 38.0625 -19.78125 L 43.53125 -12.046875 L 43.734375 -12.125 L 42.890625 -21.484375 L 42.890625 -49.625 L 52.390625 -49.625 L 52.390625 0 L 42.75 0 L 16.9375 -30.546875 L 12.625 -37.359375 L 12.265625 -37.28125 L 13.1875 -29.421875 L 13.1875 0 Z M 3.546875 0 "/></g></g></g><g fill="#151515" fill-opacity="1"><g transform="translate(164.274128, 240.857533)"><g><path d="M 18.640625 0 L 18.640625 -41.1875 L -0.640625 -41.1875 L -0.640625 -49.625 L 47.78125 -49.625 L 47.78125 -41.1875 L 28.5625 -41.1875 L 28.5625 0 Z M 18.640625 0 "/></g></g></g><g fill="#151515" fill-opacity="1"><g transform="translate(209.00126, 240.857533)"><g><path d="M 3.546875 0 L 3.546875 -49.625 L 29.203125 -49.625 C 31.378906 -49.625 33.765625 -49.335938 36.359375 -48.765625 C 38.960938 -48.203125 41.28125 -47.117188 43.3125 -45.515625 C 45.0625 -44.097656 46.40625 -42.3125 47.34375 -40.15625 C 48.289062 -38.007812 48.765625 -35.828125 48.765625 -33.609375 C 48.765625 -31.429688 48.253906 -29.242188 47.234375 -27.046875 C 46.222656 -24.847656 44.796875 -22.992188 42.953125 -21.484375 C 40.546875 -19.585938 37.453125 -18.546875 33.671875 -18.359375 L 49.34375 -0.421875 L 49.34375 0 L 38.203125 0 L 22.546875 -18.078125 L 13.390625 -18.078125 L 13.390625 0 Z M 13.390625 -26.15625 L 29.921875 -26.15625 C 32.796875 -26.15625 35.015625 -26.757812 36.578125 -27.96875 C 38.140625 -29.175781 38.921875 -31.078125 38.921875 -33.671875 C 38.921875 -36.503906 37.972656 -38.476562 36.078125 -39.59375 C 34.191406 -40.707031 31.898438 -41.265625 29.203125 -41.265625 L 13.390625 -41.265625 Z M 13.390625 -26.15625 "/></g></g></g><g fill="#151515" fill-opacity="1"><g transform="translate(255.996683, 240.857533)"><g><path d="M -1.625 0 L 23.671875 -49.90625 L 32.25 -49.90625 L 57.421875 0 L 46.578125 0 L 40.484375 -11.90625 L 15.03125 -11.90625 L 8.9375 0 Z M 19.140625 -20.140625 L 36.359375 -20.140625 L 31.40625 -30.84375 L 28 -39.984375 L 24.3125 -30.703125 Z M 19.140625 -20.140625 "/></g></g></g><g fill="#151515" fill-opacity="1"><g transform="translate(309.159045, 240.857533)"><g><path d="M 3.46875 0 L 3.46875 -49.625 L 13.46875 -49.625 L 13.46875 -8.5 L 43.09375 -8.5 L 43.09375 0 Z M 3.46875 0 "/></g></g></g></svg>