<svg xmlns="http://www.w3.org/2000/svg" xmlns:xlink="http://www.w3.org/1999/xlink" width="500" zoomAndPan="magnify" viewBox="0 0 375 374.999991" height="500" preserveAspectRatio="xMidYMid meet" version="1.0"><defs><g/><clipPath id="41f74b7b4d"><path d="M 2.222656 2.222656 L 372.722656 2.222656 L 372.722656 372.722656 L 2.222656 372.722656 Z M 2.222656 2.222656 " clip-rule="nonzero"/></clipPath><clipPath id="71ee9f3dda"><path d="M 2.222656 76.472656 L 2.222656 298.527344 C 2.222656 339.535156 35.464844 372.777344 76.472656 372.777344 L 298.527344 372.777344 C 339.535156 372.777344 372.777344 339.535156 372.777344 298.527344 L 372.777344 76.472656 C 372.777344 35.464844 339.535156 2.222656 298.527344 2.222656 L 76.472656 2.222656 C 35.464844 2.222656 2.222656 35.464844 2.222656 76.472656 Z M 2.222656 76.472656 " clip-rule="nonzero"/></clipPath></defs><g clip-path="url(#41f74b7b4d)"><g clip-path="url(#71ee9f3dda)"><path fill="#f9f9fa" d="M 2.222656 2.222656 L 372.722656 2.222656 L 372.722656 372.722656 L 2.222656 372.722656 Z M 2.222656 2.222656 " fill-opacity="1" fill-rule="nonzero"/></g></g><path fill="#ffffff" d="M 297 142.023438 C 297.683594 142.023438 298.367188 142.089844 299.039062 142.226562 C 299.714844 142.359375 300.367188 142.558594 301.003906 142.820312 C 301.636719 143.082031 302.238281 143.40625 302.8125 143.789062 C 303.382812 144.167969 303.910156 144.601562 304.394531 145.089844 C 304.882812 145.574219 305.316406 146.101562 305.699219 146.675781 C 306.078125 147.246094 306.402344 147.847656 306.664062 148.484375 C 306.925781 149.117188 307.125 149.773438 307.257812 150.445312 C 307.394531 151.121094 307.460938 151.800781 307.460938 152.488281 C 307.460938 153.175781 307.394531 153.855469 307.257812 154.527344 C 307.125 155.203125 306.925781 155.855469 306.664062 156.492188 C 306.402344 157.125 306.078125 157.730469 305.699219 158.300781 C 305.316406 158.871094 304.882812 159.398438 304.394531 159.886719 C 303.910156 160.371094 303.382812 160.804688 302.8125 161.1875 C 302.238281 161.566406 301.636719 161.890625 301.003906 162.152344 C 300.367188 162.417969 299.714844 162.613281 299.039062 162.75 C 298.367188 162.882812 297.683594 162.949219 297 162.949219 C 296.3125 162.949219 295.628906 162.882812 294.957031 162.75 C 294.285156 162.613281 293.628906 162.417969 292.996094 162.152344 C 292.359375 161.890625 291.757812 161.566406 291.183594 161.1875 C 290.613281 160.804688 290.085938 160.371094 289.601562 159.886719 C 289.113281 159.398438 288.679688 158.871094 288.300781 158.300781 C 287.917969 157.730469 287.59375 157.125 287.332031 156.492188 C 287.070312 155.855469 286.871094 155.203125 286.738281 154.527344 C 286.601562 153.855469 286.535156 153.175781 286.535156 152.488281 C 286.535156 151.800781 286.601562 151.121094 286.738281 150.445312 C 286.871094 149.773438 287.070312 149.117188 287.332031 148.484375 C 287.59375 147.847656 287.917969 147.246094 288.300781 146.675781 C 288.679688 146.101562 289.113281 145.574219 289.601562 145.089844 C 290.085938 144.601562 290.613281 144.167969 291.183594 143.789062 C 291.757812 143.40625 292.359375 143.082031 292.996094 142.820312 C 293.628906 142.558594 294.285156 142.359375 294.957031 142.226562 C 295.628906 142.089844 296.3125 142.023438 297 142.023438 Z M 297 142.023438 " fill-opacity="1" fill-rule="nonzero"/><path stroke-linecap="butt" transform="matrix(0.527344, 0, 0, 0.527344, 280.123141, 135.612149)" fill-opacity="1" fill="#371211" fill-rule="nonzero" stroke-linejoin="miter" d="M 25.203528 32.002149 C 25.203528 26.365111 29.766491 21.802148 35.396121 21.802148 C 38.047974 21.802148 40.34427 22.698444 42.292418 24.498444 C 39.9739 21.320666 36.233159 19.253999 32.003529 19.253999 C 24.959084 19.253999 19.247972 24.957704 19.247972 32.002149 C 19.247972 39.039186 24.959084 44.750298 32.003529 44.750298 C 36.233159 44.750298 39.9739 42.676224 42.292418 39.498445 C 40.351677 41.298446 38.047974 42.202149 35.396121 42.194742 C 29.766491 42.194742 25.203528 37.631779 25.203528 32.002149 " stroke="#371211" stroke-width="0.001" stroke-opacity="1" stroke-miterlimit="4"/><path stroke-linecap="butt" transform="matrix(0.527344, 0, 0, 0.527344, 280.123141, 135.612149)" fill-opacity="1" fill="#371211" fill-rule="nonzero" stroke-linejoin="miter" d="M 36.299825 29.224371 L 33.033158 24.728074 L 33.033158 30.28363 L 27.751676 32.002149 L 33.033158 33.720667 L 33.033158 39.276223 L 36.299825 34.779927 L 41.588715 36.498445 L 38.322048 32.002149 L 41.588715 27.505852 Z M 36.299825 29.224371 " stroke="#371211" stroke-width="0.001" stroke-opacity="1" stroke-miterlimit="4"/><path stroke-linecap="butt" transform="matrix(0.527344, 0, 0, 0.527344, 280.123141, 135.612149)" fill-opacity="1" fill="#371211" fill-rule="nonzero" stroke-linejoin="miter" d="M 32.003529 2.002146 C 15.433157 2.002146 2.003526 15.431777 2.003526 32.002149 C 2.003526 48.565113 15.433157 62.002151 32.003529 62.002151 C 48.566493 62.002151 62.003531 48.565113 62.003531 32.002149 C 62.003531 15.431777 48.566493 2.002146 32.003529 2.002146 Z M 32.003529 48.994743 C 22.610935 48.994743 15.003527 41.387335 15.003527 32.002149 C 15.003527 22.609555 22.610935 15.002147 32.003529 15.002147 C 41.388715 15.002147 48.996123 22.609555 48.996123 32.002149 C 48.996123 41.387335 41.388715 48.994743 32.003529 48.994743 Z M 32.003529 48.994743 " stroke="#371211" stroke-width="0.001" stroke-opacity="1" stroke-miterlimit="4"/><g fill="#7d7d7d" fill-opacity="1"><g transform="translate(92.651334, 293.574787)"><g><path d="M 7.03125 0.328125 C 5.945312 0.304688 4.894531 0.117188 3.875 -0.234375 C 2.863281 -0.585938 2.035156 -1.144531 1.390625 -1.90625 C 0.753906 -2.664062 0.4375 -3.664062 0.4375 -4.90625 C 0.4375 -6.125 0.757812 -7.078125 1.40625 -7.765625 C 2.0625 -8.460938 2.910156 -8.96875 3.953125 -9.28125 C 5.003906 -9.59375 6.109375 -9.75 7.265625 -9.75 L 12.265625 -9.75 C 11.984375 -10.675781 11.441406 -11.351562 10.640625 -11.78125 C 9.847656 -12.21875 9 -12.4375 8.09375 -12.4375 C 7.289062 -12.4375 6.515625 -12.273438 5.765625 -11.953125 C 5.015625 -11.628906 4.421875 -11.179688 3.984375 -10.609375 L 1.265625 -12.96875 C 2.097656 -14.269531 3.15625 -15.148438 4.4375 -15.609375 C 5.71875 -16.078125 7.035156 -16.3125 8.390625 -16.3125 C 9.398438 -16.3125 10.394531 -16.160156 11.375 -15.859375 C 12.363281 -15.566406 13.253906 -15.125 14.046875 -14.53125 C 14.847656 -13.945312 15.484375 -13.222656 15.953125 -12.359375 C 16.429688 -11.503906 16.671875 -10.515625 16.671875 -9.390625 L 16.671875 -3.375 L 16.84375 0 L 13 0 L 12.59375 -2.21875 C 12.039062 -1.351562 11.242188 -0.710938 10.203125 -0.296875 C 9.171875 0.117188 8.113281 0.328125 7.03125 0.328125 Z M 7.453125 -3.3125 C 8.117188 -3.3125 8.804688 -3.398438 9.515625 -3.578125 C 10.222656 -3.753906 10.847656 -4.085938 11.390625 -4.578125 C 11.929688 -5.066406 12.257812 -5.75 12.375 -6.625 L 7.125 -6.625 C 6.550781 -6.625 6.003906 -6.476562 5.484375 -6.1875 C 4.960938 -5.90625 4.703125 -5.488281 4.703125 -4.9375 C 4.703125 -4.539062 4.859375 -4.21875 5.171875 -3.96875 C 5.484375 -3.726562 5.851562 -3.554688 6.28125 -3.453125 C 6.707031 -3.359375 7.097656 -3.3125 7.453125 -3.3125 Z M 7.453125 -3.3125 "/></g></g></g><g fill="#7d7d7d" fill-opacity="1"><g transform="translate(109.098287, 293.574787)"><g><path d="M 9.1875 0.265625 C 8.238281 0.265625 7.289062 0.132812 6.34375 -0.125 C 5.40625 -0.394531 4.554688 -0.835938 3.796875 -1.453125 C 3.035156 -2.078125 2.425781 -2.898438 1.96875 -3.921875 C 1.519531 -4.953125 1.296875 -6.21875 1.296875 -7.71875 L 1.296875 -15.78125 L 5.640625 -15.78125 L 5.640625 -7.625 C 5.640625 -6.582031 5.8125 -5.75 6.15625 -5.125 C 6.5 -4.507812 6.945312 -4.0625 7.5 -3.78125 C 8.050781 -3.507812 8.632812 -3.363281 9.25 -3.34375 C 9.914062 -3.34375 10.554688 -3.484375 11.171875 -3.765625 C 11.796875 -4.054688 12.304688 -4.515625 12.703125 -5.140625 C 13.097656 -5.773438 13.296875 -6.601562 13.296875 -7.625 L 13.296875 -15.78125 L 17.609375 -15.78125 L 17.609375 0 L 13.921875 0 L 13.53125 -1.921875 C 13.082031 -1.171875 12.445312 -0.617188 11.625 -0.265625 C 10.8125 0.0859375 10 0.265625 9.1875 0.265625 Z M 9.1875 0.265625 "/></g></g></g><g fill="#7d7d7d" fill-opacity="1"><g transform="translate(126.506854, 293.574787)"><g><path d="M 9.75 0.296875 C 7.519531 0.273438 5.8125 -0.378906 4.625 -1.671875 C 3.4375 -2.960938 2.84375 -4.613281 2.84375 -6.625 L 2.84375 -12.5625 L -0.0625 -12.5625 L -0.0625 -15.78125 L 2.84375 -15.78125 L 2.84375 -23.203125 L 7.0625 -23.203125 L 7.0625 -15.78125 L 12.703125 -15.78125 L 12.703125 -12.5625 L 7.0625 -12.5625 L 7.0625 -6.625 C 7.039062 -5.675781 7.335938 -4.882812 7.953125 -4.25 C 8.578125 -3.625 9.363281 -3.3125 10.3125 -3.3125 C 10.644531 -3.3125 10.992188 -3.351562 11.359375 -3.4375 C 11.722656 -3.53125 12.09375 -3.675781 12.46875 -3.875 L 13.59375 -0.765625 C 12.84375 -0.390625 12.148438 -0.117188 11.515625 0.046875 C 10.890625 0.210938 10.300781 0.296875 9.75 0.296875 Z M 9.75 0.296875 "/></g></g></g><g fill="#7d7d7d" fill-opacity="1"><g transform="translate(138.178863, 293.574787)"><g><path d="M 9.25 0.265625 C 7.59375 0.265625 6.101562 -0.0820312 4.78125 -0.78125 C 3.46875 -1.476562 2.4375 -2.4375 1.6875 -3.65625 C 0.9375 -4.882812 0.5625 -6.304688 0.5625 -7.921875 C 0.5625 -9.535156 0.9375 -10.945312 1.6875 -12.15625 C 2.4375 -13.375 3.46875 -14.332031 4.78125 -15.03125 C 6.101562 -15.726562 7.59375 -16.078125 9.25 -16.078125 C 10.90625 -16.078125 12.378906 -15.726562 13.671875 -15.03125 C 14.960938 -14.332031 15.984375 -13.375 16.734375 -12.15625 C 17.492188 -10.945312 17.875 -9.535156 17.875 -7.921875 C 17.875 -6.304688 17.492188 -4.882812 16.734375 -3.65625 C 15.984375 -2.4375 14.960938 -1.476562 13.671875 -0.78125 C 12.378906 -0.0820312 10.90625 0.265625 9.25 0.265625 Z M 9.25 -3.421875 C 10.488281 -3.421875 11.507812 -3.84375 12.3125 -4.6875 C 13.125 -5.539062 13.53125 -6.617188 13.53125 -7.921875 C 13.53125 -9.222656 13.125 -10.296875 12.3125 -11.140625 C 11.507812 -11.984375 10.488281 -12.40625 9.25 -12.40625 C 7.988281 -12.40625 6.953125 -11.984375 6.140625 -11.140625 C 5.335938 -10.296875 4.9375 -9.222656 4.9375 -7.921875 C 4.9375 -6.617188 5.335938 -5.539062 6.140625 -4.6875 C 6.953125 -3.84375 7.988281 -3.421875 9.25 -3.421875 Z M 9.25 -3.421875 "/></g></g></g><g fill="#7d7d7d" fill-opacity="1"><g transform="translate(155.023728, 293.574787)"><g><path d="M 8.75 0.328125 C 7.132812 0.328125 5.695312 -0.0078125 4.4375 -0.6875 C 3.175781 -1.375 2.179688 -2.332031 1.453125 -3.5625 C 0.722656 -4.789062 0.359375 -6.210938 0.359375 -7.828125 C 0.359375 -9.484375 0.707031 -10.929688 1.40625 -12.171875 C 2.101562 -13.410156 3.082031 -14.375 4.34375 -15.0625 C 5.601562 -15.757812 7.070312 -16.109375 8.75 -16.109375 C 9.875 -16.109375 10.941406 -15.9375 11.953125 -15.59375 C 12.960938 -15.257812 13.851562 -14.691406 14.625 -13.890625 C 15.394531 -13.097656 15.96875 -12.023438 16.34375 -10.671875 L 12.671875 -10.046875 C 12.398438 -10.734375 12.046875 -11.234375 11.609375 -11.546875 C 11.179688 -11.867188 10.710938 -12.085938 10.203125 -12.203125 C 9.703125 -12.316406 9.21875 -12.375 8.75 -12.375 C 7.46875 -12.375 6.46875 -11.9375 5.75 -11.0625 C 5.03125 -10.1875 4.671875 -9.109375 4.671875 -7.828125 C 4.671875 -6.609375 5.039062 -5.5625 5.78125 -4.6875 C 6.519531 -3.8125 7.507812 -3.375 8.75 -3.375 C 9.195312 -3.375 9.660156 -3.429688 10.140625 -3.546875 C 10.628906 -3.660156 11.097656 -3.90625 11.546875 -4.28125 C 12.003906 -4.65625 12.390625 -5.226562 12.703125 -6 L 16.453125 -5.171875 C 16.066406 -3.847656 15.476562 -2.78125 14.6875 -1.96875 C 13.894531 -1.164062 12.984375 -0.582031 11.953125 -0.21875 C 10.921875 0.144531 9.851562 0.328125 8.75 0.328125 Z M 8.75 0.328125 "/></g></g></g><g fill="#7d7d7d" fill-opacity="1"><g transform="translate(169.978507, 293.574787)"><g><path d="M 8.75 0.265625 C 7.132812 0.265625 5.695312 -0.078125 4.4375 -0.765625 C 3.175781 -1.453125 2.1875 -2.40625 1.46875 -3.625 C 0.75 -4.851562 0.390625 -6.273438 0.390625 -7.890625 C 0.390625 -9.503906 0.75 -10.921875 1.46875 -12.140625 C 2.1875 -13.367188 3.1875 -14.328125 4.46875 -15.015625 C 5.757812 -15.703125 7.222656 -16.046875 8.859375 -16.046875 C 10.554688 -16.046875 12.023438 -15.6875 13.265625 -14.96875 C 14.503906 -14.25 15.457031 -13.242188 16.125 -11.953125 C 16.800781 -10.660156 17.140625 -9.140625 17.140625 -7.390625 C 17.140625 -7.234375 17.140625 -7.0625 17.140625 -6.875 C 17.140625 -6.6875 17.128906 -6.503906 17.109375 -6.328125 L 4.78125 -6.328125 C 4.90625 -5.554688 5.195312 -4.953125 5.65625 -4.515625 C 6.125 -4.085938 6.664062 -3.785156 7.28125 -3.609375 C 7.90625 -3.429688 8.519531 -3.34375 9.125 -3.34375 C 9.851562 -3.34375 10.550781 -3.453125 11.21875 -3.671875 C 11.894531 -3.898438 12.410156 -4.320312 12.765625 -4.9375 L 16.25 -3.71875 C 15.695312 -2.675781 15.015625 -1.859375 14.203125 -1.265625 C 13.398438 -0.679688 12.535156 -0.28125 11.609375 -0.0625 C 10.679688 0.15625 9.726562 0.265625 8.75 0.265625 Z M 4.78125 -9.546875 L 13 -9.546875 C 12.78125 -10.546875 12.257812 -11.28125 11.4375 -11.75 C 10.625 -12.226562 9.773438 -12.46875 8.890625 -12.46875 C 7.929688 -12.46875 7.0625 -12.21875 6.28125 -11.71875 C 5.5 -11.21875 5 -10.492188 4.78125 -9.546875 Z M 4.78125 -9.546875 "/></g></g></g><g fill="#7d7d7d" fill-opacity="1"><g transform="translate(186.292813, 293.574787)"><g><path d="M 1.328125 0 L 1.328125 -15.78125 L 5 -15.78125 L 5.40625 -13.859375 C 5.84375 -14.628906 6.46875 -15.1875 7.28125 -15.53125 C 8.101562 -15.875 8.925781 -16.046875 9.75 -16.046875 C 10.71875 -16.046875 11.664062 -15.910156 12.59375 -15.640625 C 13.519531 -15.378906 14.363281 -14.9375 15.125 -14.3125 C 15.894531 -13.695312 16.503906 -12.875 16.953125 -11.84375 C 17.410156 -10.820312 17.640625 -9.5625 17.640625 -8.0625 L 17.640625 0 L 13.296875 0 L 13.296875 -8.15625 C 13.316406 -9.195312 13.148438 -10.023438 12.796875 -10.640625 C 12.441406 -11.265625 11.988281 -11.71875 11.4375 -12 C 10.882812 -12.289062 10.300781 -12.4375 9.6875 -12.4375 C 9.019531 -12.4375 8.375 -12.289062 7.75 -12 C 7.132812 -11.71875 6.628906 -11.257812 6.234375 -10.625 C 5.835938 -10 5.640625 -9.175781 5.640625 -8.15625 L 5.640625 0 Z M 1.328125 0 "/></g></g></g><g fill="#7d7d7d" fill-opacity="1"><g transform="translate(203.668216, 293.574787)"><g><path d="M 9.75 0.296875 C 7.519531 0.273438 5.8125 -0.378906 4.625 -1.671875 C 3.4375 -2.960938 2.84375 -4.613281 2.84375 -6.625 L 2.84375 -12.5625 L -0.0625 -12.5625 L -0.0625 -15.78125 L 2.84375 -15.78125 L 2.84375 -23.203125 L 7.0625 -23.203125 L 7.0625 -15.78125 L 12.703125 -15.78125 L 12.703125 -12.5625 L 7.0625 -12.5625 L 7.0625 -6.625 C 7.039062 -5.675781 7.335938 -4.882812 7.953125 -4.25 C 8.578125 -3.625 9.363281 -3.3125 10.3125 -3.3125 C 10.644531 -3.3125 10.992188 -3.351562 11.359375 -3.4375 C 11.722656 -3.53125 12.09375 -3.675781 12.46875 -3.875 L 13.59375 -0.765625 C 12.84375 -0.390625 12.148438 -0.117188 11.515625 0.046875 C 10.890625 0.210938 10.300781 0.296875 9.75 0.296875 Z M 9.75 0.296875 "/></g></g></g><g fill="#7d7d7d" fill-opacity="1"><g transform="translate(215.340232, 293.574787)"><g><path d="M 1.328125 0 L 1.328125 -15.78125 L 4.96875 -15.78125 L 5.234375 -13.921875 C 5.804688 -14.828125 6.484375 -15.421875 7.265625 -15.703125 C 8.054688 -15.992188 8.765625 -16.140625 9.390625 -16.140625 C 10.160156 -16.140625 11.007812 -15.984375 11.9375 -15.671875 C 12.863281 -15.367188 13.632812 -14.832031 14.25 -14.0625 L 12.375 -11.203125 C 11.59375 -11.910156 10.6875 -12.265625 9.65625 -12.265625 C 8.59375 -12.265625 7.660156 -11.910156 6.859375 -11.203125 C 6.066406 -10.492188 5.648438 -9.554688 5.609375 -8.390625 L 5.609375 0 Z M 1.328125 0 "/></g></g></g><g fill="#7d7d7d" fill-opacity="1"><g transform="translate(227.244368, 293.574787)"><g><path d="M 7.03125 0.328125 C 5.945312 0.304688 4.894531 0.117188 3.875 -0.234375 C 2.863281 -0.585938 2.035156 -1.144531 1.390625 -1.90625 C 0.753906 -2.664062 0.4375 -3.664062 0.4375 -4.90625 C 0.4375 -6.125 0.757812 -7.078125 1.40625 -7.765625 C 2.0625 -8.460938 2.910156 -8.96875 3.953125 -9.28125 C 5.003906 -9.59375 6.109375 -9.75 7.265625 -9.75 L 12.265625 -9.75 C 11.984375 -10.675781 11.441406 -11.351562 10.640625 -11.78125 C 9.847656 -12.21875 9 -12.4375 8.09375 -12.4375 C 7.289062 -12.4375 6.515625 -12.273438 5.765625 -11.953125 C 5.015625 -11.628906 4.421875 -11.179688 3.984375 -10.609375 L 1.265625 -12.96875 C 2.097656 -14.269531 3.15625 -15.148438 4.4375 -15.609375 C 5.71875 -16.078125 7.035156 -16.3125 8.390625 -16.3125 C 9.398438 -16.3125 10.394531 -16.160156 11.375 -15.859375 C 12.363281 -15.566406 13.253906 -15.125 14.046875 -14.53125 C 14.847656 -13.945312 15.484375 -13.222656 15.953125 -12.359375 C 16.429688 -11.503906 16.671875 -10.515625 16.671875 -9.390625 L 16.671875 -3.375 L 16.84375 0 L 13 0 L 12.59375 -2.21875 C 12.039062 -1.351562 11.242188 -0.710938 10.203125 -0.296875 C 9.171875 0.117188 8.113281 0.328125 7.03125 0.328125 Z M 7.453125 -3.3125 C 8.117188 -3.3125 8.804688 -3.398438 9.515625 -3.578125 C 10.222656 -3.753906 10.847656 -4.085938 11.390625 -4.578125 C 11.929688 -5.066406 12.257812 -5.75 12.375 -6.625 L 7.125 -6.625 C 6.550781 -6.625 6.003906 -6.476562 5.484375 -6.1875 C 4.960938 -5.90625 4.703125 -5.488281 4.703125 -4.9375 C 4.703125 -4.539062 4.859375 -4.21875 5.171875 -3.96875 C 5.484375 -3.726562 5.851562 -3.554688 6.28125 -3.453125 C 6.707031 -3.359375 7.097656 -3.3125 7.453125 -3.3125 Z M 7.453125 -3.3125 "/></g></g></g><g fill="#7d7d7d" fill-opacity="1"><g transform="translate(243.691327, 293.574787)"><g><path d="M 1.328125 0 L 1.328125 -23.203125 L 5.609375 -23.203125 L 5.609375 0 Z M 1.328125 0 "/></g></g></g><g fill="#7d7d7d" fill-opacity="1"><g transform="translate(249.029922, 293.574787)"><g><path d="M 1.0625 0 L 1.0625 -3.984375 L 5 -3.984375 L 5 0 Z M 1.0625 0 "/></g></g></g><g fill="#7d7d7d" fill-opacity="1"><g transform="translate(253.473218, 293.574787)"><g><path d="M 9.75 0.296875 C 7.519531 0.273438 5.8125 -0.378906 4.625 -1.671875 C 3.4375 -2.960938 2.84375 -4.613281 2.84375 -6.625 L 2.84375 -12.5625 L -0.0625 -12.5625 L -0.0625 -15.78125 L 2.84375 -15.78125 L 2.84375 -23.203125 L 7.0625 -23.203125 L 7.0625 -15.78125 L 12.703125 -15.78125 L 12.703125 -12.5625 L 7.0625 -12.5625 L 7.0625 -6.625 C 7.039062 -5.675781 7.335938 -4.882812 7.953125 -4.25 C 8.578125 -3.625 9.363281 -3.3125 10.3125 -3.3125 C 10.644531 -3.3125 10.992188 -3.351562 11.359375 -3.4375 C 11.722656 -3.53125 12.09375 -3.675781 12.46875 -3.875 L 13.59375 -0.765625 C 12.84375 -0.390625 12.148438 -0.117188 11.515625 0.046875 C 10.890625 0.210938 10.300781 0.296875 9.75 0.296875 Z M 9.75 0.296875 "/></g></g></g><g fill="#7d7d7d" fill-opacity="1"><g transform="translate(265.145234, 293.574787)"><g><path d="M 1.328125 0 L 1.328125 -15.78125 L 5 -15.78125 L 5.40625 -13.859375 C 5.84375 -14.628906 6.46875 -15.1875 7.28125 -15.53125 C 8.101562 -15.875 8.925781 -16.046875 9.75 -16.046875 C 10.71875 -16.046875 11.664062 -15.910156 12.59375 -15.640625 C 13.519531 -15.378906 14.363281 -14.9375 15.125 -14.3125 C 15.894531 -13.695312 16.503906 -12.875 16.953125 -11.84375 C 17.410156 -10.820312 17.640625 -9.5625 17.640625 -8.0625 L 17.640625 0 L 13.296875 0 L 13.296875 -8.15625 C 13.316406 -9.195312 13.148438 -10.023438 12.796875 -10.640625 C 12.441406 -11.265625 11.988281 -11.71875 11.4375 -12 C 10.882812 -12.289062 10.300781 -12.4375 9.6875 -12.4375 C 9.019531 -12.4375 8.375 -12.289062 7.75 -12 C 7.132812 -11.71875 6.628906 -11.257812 6.234375 -10.625 C 5.835938 -10 5.640625 -9.175781 5.640625 -8.15625 L 5.640625 0 Z M 1.328125 0 "/></g></g></g><g fill="#371211" fill-opacity="1"><g transform="translate(7.783427, 194.242943)"><g><path d="M 34.703125 4.765625 C 31.316406 4.765625 27.832031 4.273438 24.25 3.296875 C 20.675781 2.328125 17.378906 0.742188 14.359375 -1.453125 C 11.335938 -3.660156 8.90625 -6.53125 7.0625 -10.0625 C 5.21875 -13.59375 4.296875 -17.96875 4.296875 -23.1875 C 4.296875 -29.125 5.78125 -34.007812 8.75 -37.84375 C 11.71875 -41.6875 15.632812 -44.679688 20.5 -46.828125 C 25.363281 -48.972656 30.6875 -50.476562 36.46875 -51.34375 C 42.25 -52.21875 47.953125 -52.65625 53.578125 -52.65625 L 55.125 -52.65625 L 55.125 -52.96875 C 55.125 -55.625 54.203125 -57.566406 52.359375 -58.796875 C 50.515625 -60.023438 48.109375 -60.640625 45.140625 -60.640625 C 41.660156 -60.640625 38.304688 -59.921875 35.078125 -58.484375 C 31.859375 -57.054688 29.070312 -55.320312 26.71875 -53.28125 L 7.671875 -72.15625 C 12.890625 -77.28125 19.160156 -81.222656 26.484375 -83.984375 C 33.804688 -86.742188 41.351562 -88.125 49.125 -88.125 C 57.414062 -88.125 64.273438 -86.972656 69.703125 -84.671875 C 75.128906 -82.367188 79.398438 -79.144531 82.515625 -75 C 85.640625 -70.851562 87.84375 -66.09375 89.125 -60.71875 C 90.40625 -55.34375 91.046875 -49.585938 91.046875 -43.453125 L 91.046875 2.453125 L 56.34375 2.453125 L 56.34375 -4.453125 L 56.03125 -4.453125 C 53.882812 -1.179688 50.738281 1.171875 46.59375 2.609375 C 42.445312 4.046875 38.484375 4.765625 34.703125 4.765625 Z M 45.4375 -18.265625 C 49.019531 -18.265625 51.9375 -19.414062 54.1875 -21.71875 C 56.445312 -24.019531 57.578125 -27.015625 57.578125 -30.703125 L 57.578125 -33.625 L 55.421875 -33.625 C 49.796875 -33.625 45.265625 -33.007812 41.828125 -31.78125 C 38.398438 -30.550781 36.6875 -28.300781 36.6875 -25.03125 C 36.6875 -22.675781 37.6875 -20.957031 39.6875 -19.875 C 41.6875 -18.800781 43.601562 -18.265625 45.4375 -18.265625 Z M 45.4375 -18.265625 "/></g></g></g><g fill="#371211" fill-opacity="1"><g transform="translate(96.214415, 194.242943)"><g><path d="M 38.6875 4.765625 C 32.550781 4.765625 27.457031 3.6875 23.40625 1.53125 C 19.363281 -0.613281 16.191406 -3.453125 13.890625 -6.984375 C 11.585938 -10.515625 9.945312 -14.425781 8.96875 -18.71875 C 8 -23.019531 7.515625 -27.320312 7.515625 -31.625 L 7.515625 -84.75 L 45.90625 -84.75 L 45.90625 -38.6875 C 45.90625 -34.289062 46.617188 -31.195312 48.046875 -29.40625 C 49.484375 -27.613281 51.535156 -26.71875 54.203125 -26.71875 C 56.753906 -26.71875 58.820312 -27.765625 60.40625 -29.859375 C 62 -31.960938 62.796875 -34.90625 62.796875 -38.6875 L 62.796875 -84.75 L 101.171875 -84.75 L 101.171875 2.453125 L 63.875 2.453125 L 63.875 -7.21875 L 63.5625 -7.21875 C 61.414062 -4.039062 58.113281 -1.25 53.65625 1.15625 C 49.207031 3.5625 44.21875 4.765625 38.6875 4.765625 Z M 38.6875 4.765625 "/></g></g></g><g fill="#371211" fill-opacity="1"><g transform="translate(196.620563, 194.242943)"><g><path d="M 46.828125 4.765625 C 35.160156 4.765625 26.484375 2.234375 20.796875 -2.828125 C 15.117188 -7.898438 12.28125 -15.707031 12.28125 -26.25 L 12.28125 -57.421875 L 0 -57.421875 L 0 -84.75 L 12.125 -84.75 L 12.125 -104.40625 L 49.28125 -104.40625 L 49.28125 -84.75 L 68.171875 -84.75 L 68.171875 -57.421875 L 49.28125 -57.421875 L 49.28125 -34.234375 C 49.28125 -30.035156 50.203125 -27.171875 52.046875 -25.640625 C 53.890625 -24.109375 56.394531 -23.34375 59.5625 -23.34375 C 60.789062 -23.34375 62.070312 -23.46875 63.40625 -23.71875 C 64.738281 -23.976562 65.765625 -24.207031 66.484375 -24.40625 L 66.484375 1.84375 C 64.535156 2.5625 61.742188 3.226562 58.109375 3.84375 C 54.472656 4.457031 50.710938 4.765625 46.828125 4.765625 Z M 46.828125 4.765625 "/></g></g></g><g fill="#371211" fill-opacity="1"><g transform="translate(256.955996, 194.242943)"><g><path d="M 54.8125 5.828125 C 48.257812 5.828125 42.015625 4.78125 36.078125 2.6875 C 30.140625 0.59375 24.867188 -2.472656 20.265625 -6.515625 C 15.660156 -10.566406 12.023438 -15.535156 9.359375 -21.421875 C 6.703125 -27.304688 5.375 -33.984375 5.375 -41.453125 C 5.375 -48.921875 6.703125 -55.546875 9.359375 -61.328125 C 12.023438 -67.117188 15.660156 -72.007812 20.265625 -76 C 24.867188 -79.988281 30.140625 -83.003906 36.078125 -85.046875 C 42.015625 -87.097656 48.257812 -88.125 54.8125 -88.125 C 61.46875 -88.125 67.785156 -87.097656 73.765625 -85.046875 C 79.753906 -83.003906 85.078125 -79.988281 89.734375 -76 C 94.390625 -72.007812 98.070312 -67.117188 100.78125 -61.328125 C 103.5 -55.546875 104.859375 -48.921875 104.859375 -41.453125 C 104.859375 -33.984375 103.5 -27.304688 100.78125 -21.421875 C 98.070312 -15.535156 94.390625 -10.566406 89.734375 -6.515625 C 85.078125 -2.472656 79.753906 0.59375 73.765625 2.6875 C 67.785156 4.78125 61.46875 5.828125 54.8125 5.828125 Z M 55.125 -26.71875 C 59.3125 -26.71875 62.710938 -28.148438 65.328125 -31.015625 C 67.941406 -33.878906 69.25 -37.359375 69.25 -41.453125 C 69.25 -45.335938 67.890625 -48.710938 65.171875 -51.578125 C 62.460938 -54.453125 59.007812 -55.890625 54.8125 -55.890625 C 50.71875 -55.890625 47.363281 -54.453125 44.75 -51.578125 C 42.144531 -48.710938 40.84375 -45.335938 40.84375 -41.453125 C 40.84375 -37.359375 42.195312 -33.878906 44.90625 -31.015625 C 47.613281 -28.148438 51.019531 -26.71875 55.125 -26.71875 Z M 55.125 -26.71875 "/></g></g></g><path fill="#ffffff" d="M 311.964844 125.105469 C 312.859375 125.105469 313.75 125.148438 314.644531 125.234375 C 315.535156 125.324219 316.417969 125.453125 317.296875 125.628906 C 318.175781 125.804688 319.042969 126.019531 319.898438 126.28125 C 320.753906 126.542969 321.597656 126.84375 322.425781 127.183594 C 323.25 127.527344 324.058594 127.910156 324.847656 128.332031 C 325.636719 128.753906 326.40625 129.214844 327.148438 129.710938 C 327.894531 130.207031 328.613281 130.742188 329.304688 131.308594 C 329.996094 131.878906 330.660156 132.476562 331.292969 133.109375 C 331.925781 133.742188 332.527344 134.40625 333.09375 135.097656 C 333.660156 135.789062 334.195312 136.507812 334.691406 137.253906 C 335.1875 137.996094 335.648438 138.765625 336.070312 139.554688 C 336.492188 140.34375 336.875 141.152344 337.21875 141.980469 C 337.558594 142.804688 337.863281 143.648438 338.121094 144.503906 C 338.382812 145.359375 338.597656 146.226562 338.773438 147.105469 C 338.949219 147.984375 339.078125 148.867188 339.167969 149.761719 C 339.253906 150.652344 339.296875 151.542969 339.296875 152.4375 C 339.296875 153.335938 339.253906 154.226562 339.167969 155.117188 C 339.078125 156.007812 338.949219 156.894531 338.773438 157.773438 C 338.597656 158.648438 338.382812 159.515625 338.121094 160.375 C 337.863281 161.230469 337.558594 162.074219 337.21875 162.898438 C 336.875 163.726562 336.492188 164.535156 336.070312 165.324219 C 335.648438 166.113281 335.1875 166.882812 334.691406 167.625 C 334.195312 168.371094 333.660156 169.089844 333.09375 169.78125 C 332.527344 170.472656 331.925781 171.136719 331.292969 171.769531 C 330.660156 172.402344 329.996094 173 329.304688 173.570312 C 328.613281 174.136719 327.894531 174.671875 327.148438 175.167969 C 326.40625 175.664062 325.636719 176.125 324.847656 176.546875 C 324.058594 176.96875 323.25 177.351562 322.425781 177.695312 C 321.597656 178.035156 320.753906 178.335938 319.898438 178.597656 C 319.042969 178.855469 318.175781 179.074219 317.296875 179.25 C 316.417969 179.421875 315.535156 179.554688 314.644531 179.640625 C 313.75 179.730469 312.859375 179.773438 311.964844 179.773438 C 311.066406 179.773438 310.175781 179.730469 309.285156 179.640625 C 308.394531 179.554688 307.507812 179.421875 306.628906 179.25 C 305.753906 179.074219 304.886719 178.855469 304.027344 178.597656 C 303.171875 178.335938 302.328125 178.035156 301.503906 177.695312 C 300.675781 177.351562 299.867188 176.96875 299.078125 176.546875 C 298.289062 176.125 297.519531 175.664062 296.777344 175.167969 C 296.03125 174.671875 295.3125 174.136719 294.621094 173.570312 C 293.929688 173 293.269531 172.402344 292.632812 171.769531 C 292 171.136719 291.402344 170.472656 290.832031 169.78125 C 290.265625 169.089844 289.734375 168.371094 289.234375 167.625 C 288.738281 166.882812 288.277344 166.113281 287.855469 165.324219 C 287.433594 164.535156 287.050781 163.726562 286.710938 162.898438 C 286.367188 162.074219 286.066406 161.230469 285.804688 160.375 C 285.546875 159.515625 285.328125 158.648438 285.152344 157.773438 C 284.980469 156.894531 284.847656 156.007812 284.761719 155.117188 C 284.671875 154.226562 284.628906 153.335938 284.628906 152.4375 C 284.628906 151.542969 284.671875 150.652344 284.761719 149.761719 C 284.847656 148.867188 284.980469 147.984375 285.152344 147.105469 C 285.328125 146.226562 285.546875 145.359375 285.804688 144.503906 C 286.066406 143.648438 286.367188 142.804688 286.710938 141.980469 C 287.050781 141.152344 287.433594 140.34375 287.855469 139.554688 C 288.277344 138.765625 288.738281 137.996094 289.234375 137.253906 C 289.734375 136.507812 290.265625 135.789062 290.832031 135.097656 C 291.402344 134.40625 292 133.742188 292.632812 133.109375 C 293.269531 132.476562 293.929688 131.878906 294.621094 131.308594 C 295.3125 130.742188 296.03125 130.207031 296.777344 129.710938 C 297.519531 129.214844 298.289062 128.753906 299.078125 128.332031 C 299.867188 127.910156 300.675781 127.527344 301.503906 127.183594 C 302.328125 126.84375 303.171875 126.542969 304.027344 126.28125 C 304.886719 126.019531 305.753906 125.804688 306.628906 125.628906 C 307.507812 125.453125 308.394531 125.324219 309.285156 125.234375 C 310.175781 125.148438 311.066406 125.105469 311.964844 125.105469 Z M 311.964844 125.105469 " fill-opacity="1" fill-rule="nonzero"/><path stroke-linecap="butt" transform="matrix(1.377769, 0, 0, 1.377769, 267.874792, 108.35064)" fill-opacity="1" fill="#371211" fill-rule="nonzero" stroke-linejoin="miter" d="M 25.202244 31.998736 C 25.202244 26.368029 29.766916 21.800522 35.397623 21.800522 C 36.676298 21.800522 37.90961 22.033009 39.100394 22.497981 C 40.288343 22.962954 41.354378 23.629226 42.289994 24.496797 C 39.973636 21.321373 36.231172 19.251677 32.001053 19.251677 C 24.958417 19.251677 19.251159 24.958935 19.251159 31.998736 C 19.251159 39.041373 24.958417 44.748631 32.001053 44.748631 C 36.234007 44.748631 39.976471 42.6761 42.292829 39.49784 C 41.357213 40.368247 40.291178 41.034519 39.100394 41.499492 C 37.912445 41.964464 36.676298 42.199786 35.397623 42.196951 C 29.766916 42.196951 25.202244 37.632279 25.202244 31.998736 " stroke="#371211" stroke-width="0.001" stroke-opacity="1" stroke-miterlimit="4"/><path stroke-linecap="butt" transform="matrix(1.377769, 0, 0, 1.377769, 267.874792, 108.35064)" fill-opacity="1" fill="#371211" fill-rule="nonzero" stroke-linejoin="miter" d="M 36.302052 29.22024 L 33.035901 24.723613 L 33.035901 30.28344 L 27.751089 31.998736 L 33.035901 33.716868 L 33.035901 39.27386 L 36.302052 34.780068 L 41.586864 36.495364 L 38.320714 31.998736 L 41.586864 27.504945 Z M 36.302052 29.22024 " stroke="#371211" stroke-width="0.001" stroke-opacity="1" stroke-miterlimit="4"/><path stroke-linecap="butt" transform="matrix(1.377769, 0, 0, 1.377769, 267.874792, 108.35064)" fill-opacity="1" fill="#371211" fill-rule="nonzero" stroke-linejoin="miter" d="M 32.001053 1.999485 C 15.432145 1.999485 1.998967 15.432663 1.998967 31.998736 C 1.998967 48.567645 15.432145 62.000823 32.001053 62.000823 C 48.567127 62.000823 62.000304 48.567645 62.000304 31.998736 C 62.000304 15.432663 48.567127 1.999485 32.001053 1.999485 Z M 32.001053 48.99576 C 22.610871 48.99576 15.001194 41.388919 15.001194 31.998736 C 15.001194 22.611389 22.610871 15.001713 32.001053 15.001713 C 41.3884 15.001713 48.998077 22.611389 48.998077 31.998736 C 48.998077 41.388919 41.3884 48.99576 32.001053 48.99576 Z M 32.001053 48.99576 " stroke="#371211" stroke-width="0.001" stroke-opacity="1" stroke-miterlimit="4"/><path stroke-linecap="butt" transform="matrix(0.847858, 0, 0, 0.847858, -7.109806, 204.511393)" fill="none" stroke-linejoin="miter" d="M 49.13169 52.614609 C 44.022305 52.614609 39.309139 51.748455 34.982978 50.006934 C 30.675246 48.270019 26.943414 45.846632 23.792089 42.736772 C 20.636157 39.61309 18.189734 35.931938 16.45282 31.684099 C 14.729727 27.422439 13.86818 22.769167 13.86818 17.719676 C 13.86818 12.688613 14.729727 8.067592 16.45282 3.852003 C 18.189734 -0.382013 20.636157 -4.044737 23.792089 -7.136169 C 26.943414 -10.2276 30.675246 -12.618737 34.982978 -14.314186 C 39.309139 -16.01885 44.022305 -16.87579 49.13169 -16.87579 C 53.407171 -16.87579 57.608938 -16.180102 61.732382 -14.797942 C 65.869648 -13.411175 69.578444 -11.190505 72.854163 -8.126717 C 76.134489 -5.067536 78.686878 -0.990164 80.515937 4.105399 L 69.647552 7.980055 C 68.187069 4.520048 66.339582 1.829443 64.109697 -0.096367 C 61.879812 -2.017569 59.470247 -3.372086 56.885607 -4.159917 C 54.300968 -4.943141 51.716329 -5.334753 49.13169 -5.334753 C 44.837779 -5.334753 41.055268 -4.358027 37.774942 -2.404574 C 34.499222 -0.451121 31.928405 2.257912 30.067096 5.71792 C 28.219609 9.182534 27.298169 13.181584 27.298169 17.719676 C 27.298169 22.197874 28.219609 26.21996 30.067096 29.79054 C 31.928405 33.342691 34.499222 36.130047 37.774942 38.143394 C 41.055268 40.161347 44.837779 41.170324 49.13169 41.170324 C 51.716329 41.170324 54.300968 40.746462 56.885607 39.898737 C 59.470247 39.03719 61.879812 37.585922 64.109697 35.535718 C 66.339582 33.490122 68.187069 30.735016 69.647552 27.275009 L 81.073408 30.873232 C 78.93106 36.166905 76.194383 40.405529 72.854163 43.593711 C 69.51855 46.763465 65.809754 49.062458 61.732382 50.49069 C 57.668831 51.909707 53.471672 52.614609 49.13169 52.614609 Z M 80.128932 51.002089 L 80.128932 -15.166518 L 133.047232 -15.166518 L 133.047232 -3.92495 L 92.798732 -3.92495 L 92.798732 12.527361 L 131.457748 12.527361 L 131.457748 23.395746 L 92.798732 23.395746 L 92.798732 39.760521 L 133.047232 39.760521 L 133.047232 51.002089 Z M 135.037542 51.002089 L 135.037542 -15.166518 L 146.762866 -15.166518 L 181.0819 24.621261 L 188.352061 34.936782 L 188.628493 34.844638 L 187.495122 22.359126 L 187.495122 -15.166518 L 200.16953 -15.166518 L 200.16953 51.002089 L 187.310834 51.002089 L 152.904264 10.265226 L 147.131442 1.17522 L 146.670722 1.2904 L 147.896238 11.767173 L 147.896238 51.002089 Z M 225.011552 51.002089 L 225.011552 -3.92495 L 199.298769 -3.92495 L 199.298769 -15.166518 L 263.873285 -15.166518 L 263.873285 -3.92495 L 238.257253 -3.92495 L 238.257253 51.002089 Z M 263.103883 51.002089 L 263.103883 -15.166518 L 297.330772 -15.166518 C 300.224094 -15.166518 303.403062 -14.788728 306.863069 -14.037754 C 310.341505 -13.282174 313.432936 -11.835513 316.14197 -9.697772 C 318.463999 -7.804213 320.256199 -5.417683 321.518572 -2.54279 C 322.780945 0.318281 323.412131 3.225424 323.412131 6.183247 C 323.412131 9.09039 322.734873 12.011355 321.380356 14.950748 C 320.025839 17.876321 318.118459 20.34578 315.653607 22.359126 C 312.437781 24.883872 308.314337 26.266032 303.283274 26.514821 L 324.172319 50.421582 L 324.172319 51.002089 L 309.332528 51.002089 L 288.44809 26.906433 L 276.23901 26.906433 L 276.23901 51.002089 Z M 276.23901 16.130192 L 298.275248 16.130192 C 302.108438 16.130192 305.061654 15.328539 307.139501 13.72984 C 309.23117 12.112713 310.277004 9.564932 310.277004 6.091103 C 310.277004 2.317806 309.014631 -0.303691 306.494493 -1.782602 C 303.969747 -3.275335 300.915174 -4.021701 297.330772 -4.021701 L 276.23901 -4.021701 Z M 317.450415 51.002089 L 351.188941 -15.55813 L 362.637833 -15.55813 L 396.192071 51.002089 L 381.725463 51.002089 L 373.598362 35.12107 L 339.652512 35.12107 L 331.530018 51.002089 Z M 345.144294 24.160541 L 368.106579 24.160541 L 361.509069 9.873614 L 356.961762 -2.31243 L 352.04588 10.057902 Z M 393.727219 51.002089 L 393.727219 -15.166518 L 407.042027 -15.166518 L 407.042027 39.645341 L 446.553375 39.645341 L 446.553375 51.002089 Z M 393.727219 51.002089 " stroke="#f9f9fa" stroke-width="7.089952" stroke-opacity="1" stroke-miterlimit="4"/><g fill="#151515" fill-opacity="1"><g transform="translate(3.766618, 247.752135)"><g><path d="M 30.78125 1.359375 C 26.445312 1.359375 22.445312 0.625 18.78125 -0.84375 C 15.125 -2.3125 11.960938 -4.367188 9.296875 -7.015625 C 6.628906 -9.660156 4.554688 -12.785156 3.078125 -16.390625 C 1.609375 -19.992188 0.875 -23.929688 0.875 -28.203125 C 0.875 -32.484375 1.609375 -36.410156 3.078125 -39.984375 C 4.554688 -43.566406 6.628906 -46.664062 9.296875 -49.28125 C 11.960938 -51.90625 15.125 -53.9375 18.78125 -55.375 C 22.445312 -56.820312 26.445312 -57.546875 30.78125 -57.546875 C 34.40625 -57.546875 37.96875 -56.957031 41.46875 -55.78125 C 44.96875 -54.601562 48.109375 -52.71875 50.890625 -50.125 C 53.671875 -47.53125 55.832031 -44.070312 57.375 -39.75 L 48.171875 -36.46875 C 46.941406 -39.40625 45.375 -41.6875 43.46875 -43.3125 C 41.570312 -44.945312 39.53125 -46.097656 37.34375 -46.765625 C 35.15625 -47.429688 32.96875 -47.765625 30.78125 -47.765625 C 27.144531 -47.765625 23.9375 -46.9375 21.15625 -45.28125 C 18.375 -43.625 16.195312 -41.328125 14.625 -38.390625 C 13.050781 -35.453125 12.265625 -32.054688 12.265625 -28.203125 C 12.265625 -24.410156 13.050781 -21.003906 14.625 -17.984375 C 16.195312 -14.972656 18.375 -12.609375 21.15625 -10.890625 C 23.9375 -9.179688 27.144531 -8.328125 30.78125 -8.328125 C 32.96875 -8.328125 35.15625 -8.6875 37.34375 -9.40625 C 39.53125 -10.132812 41.570312 -11.363281 43.46875 -13.09375 C 45.375 -14.832031 46.941406 -17.171875 48.171875 -20.109375 L 57.859375 -17.0625 C 56.046875 -12.582031 53.722656 -8.992188 50.890625 -6.296875 C 48.054688 -3.597656 44.914062 -1.644531 41.46875 -0.4375 C 38.019531 0.757812 34.457031 1.359375 30.78125 1.359375 Z M 30.78125 1.359375 "/></g></g></g><g fill="#151515" fill-opacity="1"><g transform="translate(56.895532, 247.752135)"><g><path d="M 3.921875 0 L 3.921875 -56.09375 L 48.8125 -56.09375 L 48.8125 -46.5625 L 14.671875 -46.5625 L 14.671875 -32.625 L 47.4375 -32.625 L 47.4375 -23.40625 L 14.671875 -23.40625 L 14.671875 -9.53125 L 48.8125 -9.53125 L 48.8125 0 Z M 3.921875 0 "/></g></g></g><g fill="#151515" fill-opacity="1"><g transform="translate(103.373182, 247.752135)"><g><path d="M 4 0 L 4 -56.09375 L 13.9375 -56.09375 L 43.03125 -22.359375 L 49.203125 -13.625 L 49.453125 -13.703125 L 48.484375 -24.28125 L 48.484375 -56.09375 L 59.21875 -56.09375 L 59.21875 0 L 48.328125 0 L 19.15625 -34.546875 L 14.265625 -42.234375 L 13.859375 -42.15625 L 14.90625 -33.265625 L 14.90625 0 Z M 4 0 "/></g></g></g><g fill="#151515" fill-opacity="1"><g transform="translate(162.592411, 247.752135)"><g><path d="M 21.078125 0 L 21.078125 -46.5625 L -0.71875 -46.5625 L -0.71875 -56.09375 L 54.015625 -56.09375 L 54.015625 -46.5625 L 32.296875 -46.5625 L 32.296875 0 Z M 21.078125 0 "/></g></g></g><g fill="#151515" fill-opacity="1"><g transform="translate(211.954945, 247.752135)"><g><path d="M 4 0 L 4 -56.09375 L 33.015625 -56.09375 C 35.472656 -56.09375 38.171875 -55.769531 41.109375 -55.125 C 44.046875 -54.488281 46.664062 -53.265625 48.96875 -51.453125 C 50.945312 -49.847656 52.46875 -47.828125 53.53125 -45.390625 C 54.601562 -42.960938 55.140625 -40.492188 55.140625 -37.984375 C 55.140625 -35.523438 54.5625 -33.050781 53.40625 -30.5625 C 52.257812 -28.082031 50.644531 -25.988281 48.5625 -24.28125 C 45.84375 -22.144531 42.34375 -20.96875 38.0625 -20.75 L 55.78125 -0.484375 L 55.78125 0 L 43.203125 0 L 25.484375 -20.4375 L 15.140625 -20.4375 L 15.140625 0 Z M 15.140625 -29.578125 L 33.8125 -29.578125 C 37.070312 -29.578125 39.582031 -30.253906 41.34375 -31.609375 C 43.113281 -32.972656 44 -35.125 44 -38.0625 C 44 -41.269531 42.925781 -43.5 40.78125 -44.75 C 38.644531 -46.007812 36.054688 -46.640625 33.015625 -46.640625 L 15.140625 -46.640625 Z M 15.140625 -29.578125 "/></g></g></g><g fill="#151515" fill-opacity="1"><g transform="translate(263.881817, 247.752135)"><g><path d="M -1.84375 0 L 26.765625 -56.421875 L 36.46875 -56.421875 L 64.90625 0 L 52.65625 0 L 45.765625 -13.46875 L 16.984375 -13.46875 L 10.09375 0 Z M 21.640625 -22.765625 L 41.109375 -22.765625 L 35.5 -34.859375 L 31.65625 -45.203125 L 27.484375 -34.703125 Z M 21.640625 -22.765625 "/></g></g></g><g fill="#151515" fill-opacity="1"><g transform="translate(322.780499, 247.752135)"><g><path d="M 3.921875 0 L 3.921875 -56.09375 L 15.234375 -56.09375 L 15.234375 -9.609375 L 48.71875 -9.609375 L 48.71875 0 Z M 3.921875 0 "/></g></g></g></svg>