<svg xmlns="http://www.w3.org/2000/svg" xmlns:xlink="http://www.w3.org/1999/xlink" width="500" zoomAndPan="magnify" viewBox="0 0 375 374.999991" height="500" preserveAspectRatio="xMidYMid meet" version="1.0"><defs><g/></defs><rect x="-37.5" width="450" fill="#ffffff" y="-37.499999" height="449.999989" fill-opacity="1"/><rect x="-37.5" width="450" fill="#151515" y="-37.499999" height="449.999989" fill-opacity="1"/><g fill="#fff9f9" fill-opacity="1"><g transform="translate(2.500683, 198.766286)"><g><path d="M 36.328125 4.984375 C 32.785156 4.984375 29.140625 4.472656 25.390625 3.453125 C 21.640625 2.429688 18.179688 0.769531 15.015625 -1.53125 C 11.859375 -3.832031 9.316406 -6.832031 7.390625 -10.53125 C 5.460938 -14.226562 4.5 -18.804688 4.5 -24.265625 C 4.5 -30.484375 6.050781 -35.597656 9.15625 -39.609375 C 12.269531 -43.628906 16.367188 -46.765625 21.453125 -49.015625 C 26.546875 -51.265625 32.117188 -52.84375 38.171875 -53.75 C 44.222656 -54.664062 50.195312 -55.125 56.09375 -55.125 L 57.703125 -55.125 L 57.703125 -55.453125 C 57.703125 -58.234375 56.734375 -60.265625 54.796875 -61.546875 C 52.867188 -62.835938 50.351562 -63.484375 47.25 -63.484375 C 43.601562 -63.484375 40.09375 -62.734375 36.71875 -61.234375 C 33.34375 -59.734375 30.425781 -57.910156 27.96875 -55.765625 L 8.03125 -75.53125 C 13.5 -80.894531 20.0625 -85.019531 27.71875 -87.90625 C 35.382812 -90.800781 43.289062 -92.25 51.4375 -92.25 C 60.113281 -92.25 67.289062 -91.039062 72.96875 -88.625 C 78.644531 -86.21875 83.113281 -82.84375 86.375 -78.5 C 89.644531 -74.164062 91.953125 -69.1875 93.296875 -63.5625 C 94.640625 -57.9375 95.3125 -51.910156 95.3125 -45.484375 L 95.3125 2.578125 L 58.984375 2.578125 L 58.984375 -4.65625 L 58.65625 -4.65625 C 56.40625 -1.226562 53.109375 1.234375 48.765625 2.734375 C 44.429688 4.234375 40.285156 4.984375 36.328125 4.984375 Z M 47.578125 -19.125 C 51.328125 -19.125 54.378906 -20.328125 56.734375 -22.734375 C 59.085938 -25.148438 60.265625 -28.285156 60.265625 -32.140625 L 60.265625 -35.203125 L 58.015625 -35.203125 C 52.128906 -35.203125 47.390625 -34.554688 43.796875 -33.265625 C 40.203125 -31.984375 38.40625 -29.628906 38.40625 -26.203125 C 38.40625 -23.734375 39.453125 -21.9375 41.546875 -20.8125 C 43.640625 -19.6875 45.648438 -19.125 47.578125 -19.125 Z M 47.578125 -19.125 "/></g></g></g><g fill="#fff9f9" fill-opacity="1"><g transform="translate(92.976023, 198.766286)"><g><path d="M 40.5 4.984375 C 34.070312 4.984375 28.738281 3.859375 24.5 1.609375 C 20.269531 -0.640625 16.945312 -3.613281 14.53125 -7.3125 C 12.125 -11.007812 10.410156 -15.109375 9.390625 -19.609375 C 8.378906 -24.109375 7.875 -28.609375 7.875 -33.109375 L 7.875 -88.71875 L 48.0625 -88.71875 L 48.0625 -40.5 C 48.0625 -35.894531 48.8125 -32.65625 50.3125 -30.78125 C 51.8125 -28.90625 53.953125 -27.96875 56.734375 -27.96875 C 59.410156 -27.96875 61.578125 -29.0625 63.234375 -31.25 C 64.898438 -33.445312 65.734375 -36.53125 65.734375 -40.5 L 65.734375 -88.71875 L 105.90625 -88.71875 L 105.90625 2.578125 L 66.859375 2.578125 L 66.859375 -7.546875 L 66.53125 -7.546875 C 64.28125 -4.234375 60.828125 -1.316406 56.171875 1.203125 C 51.515625 3.722656 46.289062 4.984375 40.5 4.984375 Z M 40.5 4.984375 "/></g></g></g><g fill="#fff9f9" fill-opacity="1"><g transform="translate(195.98634, 198.766286)"><g><path d="M 49.015625 4.984375 C 36.804688 4.984375 27.726562 2.332031 21.78125 -2.96875 C 15.832031 -8.269531 12.859375 -16.441406 12.859375 -27.484375 L 12.859375 -60.109375 L 0 -60.109375 L 0 -88.71875 L 12.703125 -88.71875 L 12.703125 -109.28125 L 51.59375 -109.28125 L 51.59375 -88.71875 L 71.359375 -88.71875 L 71.359375 -60.109375 L 51.59375 -60.109375 L 51.59375 -35.84375 C 51.59375 -31.445312 52.554688 -28.441406 54.484375 -26.828125 C 56.410156 -25.222656 59.035156 -24.421875 62.359375 -24.421875 C 63.640625 -24.421875 64.976562 -24.554688 66.375 -24.828125 C 67.769531 -25.097656 68.84375 -25.335938 69.59375 -25.546875 L 69.59375 1.921875 C 67.550781 2.671875 64.628906 3.367188 60.828125 4.015625 C 57.023438 4.660156 53.085938 4.984375 49.015625 4.984375 Z M 49.015625 4.984375 "/></g></g></g><g fill="#fff9f9" fill-opacity="1"><g transform="translate(257.052672, 198.766286)"><g><path d="M 57.375 6.109375 C 50.519531 6.109375 43.984375 5.007812 37.765625 2.8125 C 31.554688 0.613281 26.039062 -2.597656 21.21875 -6.828125 C 16.394531 -11.054688 12.585938 -16.25 9.796875 -22.40625 C 7.015625 -28.570312 5.625 -35.566406 5.625 -43.390625 C 5.625 -51.210938 7.015625 -58.148438 9.796875 -64.203125 C 12.585938 -70.253906 16.394531 -75.367188 21.21875 -79.546875 C 26.039062 -83.734375 31.554688 -86.894531 37.765625 -89.03125 C 43.984375 -91.175781 50.519531 -92.25 57.375 -92.25 C 64.34375 -92.25 70.957031 -91.175781 77.21875 -89.03125 C 83.488281 -86.894531 89.0625 -83.734375 93.9375 -79.546875 C 98.8125 -75.367188 102.664062 -70.253906 105.5 -64.203125 C 108.34375 -58.148438 109.765625 -51.210938 109.765625 -43.390625 C 109.765625 -35.566406 108.34375 -28.570312 105.5 -22.40625 C 102.664062 -16.25 98.8125 -11.054688 93.9375 -6.828125 C 89.0625 -2.597656 83.488281 0.613281 77.21875 2.8125 C 70.957031 5.007812 64.34375 6.109375 57.375 6.109375 Z M 57.703125 -27.96875 C 62.085938 -27.96875 65.644531 -29.46875 68.375 -32.46875 C 71.113281 -35.46875 72.484375 -39.109375 72.484375 -43.390625 C 72.484375 -47.460938 71.0625 -51 68.21875 -54 C 65.382812 -57 61.769531 -58.5 57.375 -58.5 C 53.09375 -58.5 49.582031 -57 46.84375 -54 C 44.113281 -51 42.75 -47.460938 42.75 -43.390625 C 42.75 -39.109375 44.164062 -35.46875 47 -32.46875 C 49.84375 -29.46875 53.410156 -27.96875 57.703125 -27.96875 Z M 57.703125 -27.96875 "/></g></g></g><path fill="#ffffff" d="M 314.71875 138.453125 C 315.28125 138.453125 315.84375 138.480469 316.402344 138.535156 C 316.964844 138.589844 317.519531 138.675781 318.074219 138.785156 C 318.625 138.894531 319.171875 139.03125 319.710938 139.195312 C 320.25 139.359375 320.78125 139.546875 321.300781 139.761719 C 321.820312 139.980469 322.332031 140.21875 322.828125 140.484375 C 323.324219 140.75 323.808594 141.039062 324.277344 141.351562 C 324.746094 141.664062 325.195312 142 325.632812 142.359375 C 326.066406 142.714844 326.484375 143.09375 326.882812 143.492188 C 327.28125 143.890625 327.660156 144.308594 328.015625 144.742188 C 328.375 145.179688 328.710938 145.632812 329.023438 146.101562 C 329.335938 146.566406 329.625 147.050781 329.890625 147.546875 C 330.15625 148.042969 330.398438 148.554688 330.613281 149.074219 C 330.828125 149.59375 331.019531 150.125 331.183594 150.664062 C 331.34375 151.203125 331.480469 151.75 331.59375 152.300781 C 331.703125 152.855469 331.785156 153.410156 331.839844 153.972656 C 331.894531 154.53125 331.921875 155.09375 331.921875 155.660156 C 331.921875 156.222656 331.894531 156.785156 331.839844 157.34375 C 331.785156 157.90625 331.703125 158.460938 331.59375 159.015625 C 331.480469 159.566406 331.34375 160.113281 331.183594 160.652344 C 331.019531 161.191406 330.828125 161.722656 330.613281 162.242188 C 330.398438 162.761719 330.15625 163.273438 329.890625 163.769531 C 329.625 164.265625 329.335938 164.75 329.023438 165.21875 C 328.710938 165.683594 328.375 166.136719 328.015625 166.574219 C 327.660156 167.007812 327.28125 167.425781 326.882812 167.824219 C 326.484375 168.222656 326.066406 168.601562 325.632812 168.957031 C 325.195312 169.316406 324.746094 169.652344 324.277344 169.964844 C 323.808594 170.277344 323.324219 170.566406 322.828125 170.832031 C 322.332031 171.097656 321.820312 171.339844 321.300781 171.554688 C 320.78125 171.769531 320.25 171.957031 319.710938 172.121094 C 319.171875 172.285156 318.625 172.421875 318.074219 172.53125 C 317.519531 172.644531 316.964844 172.726562 316.402344 172.78125 C 315.84375 172.835938 315.28125 172.863281 314.71875 172.863281 C 314.152344 172.863281 313.59375 172.835938 313.03125 172.78125 C 312.46875 172.726562 311.914062 172.644531 311.359375 172.53125 C 310.808594 172.421875 310.261719 172.285156 309.722656 172.121094 C 309.183594 171.957031 308.652344 171.769531 308.132812 171.554688 C 307.613281 171.339844 307.105469 171.097656 306.605469 170.832031 C 306.109375 170.566406 305.628906 170.277344 305.160156 169.964844 C 304.691406 169.652344 304.238281 169.316406 303.804688 168.957031 C 303.367188 168.601562 302.949219 168.222656 302.550781 167.824219 C 302.152344 167.425781 301.777344 167.007812 301.417969 166.574219 C 301.058594 166.136719 300.726562 165.683594 300.414062 165.21875 C 300.097656 164.75 299.808594 164.265625 299.542969 163.769531 C 299.277344 163.273438 299.039062 162.761719 298.820312 162.242188 C 298.605469 161.722656 298.417969 161.191406 298.253906 160.652344 C 298.089844 160.113281 297.953125 159.566406 297.84375 159.015625 C 297.734375 158.460938 297.652344 157.90625 297.59375 157.34375 C 297.539062 156.785156 297.511719 156.222656 297.511719 155.660156 C 297.511719 155.09375 297.539062 154.53125 297.59375 153.972656 C 297.652344 153.410156 297.734375 152.855469 297.84375 152.300781 C 297.953125 151.75 298.089844 151.203125 298.253906 150.664062 C 298.417969 150.125 298.605469 149.59375 298.820312 149.074219 C 299.039062 148.554688 299.277344 148.042969 299.542969 147.546875 C 299.808594 147.050781 300.097656 146.566406 300.414062 146.101562 C 300.726562 145.632812 301.058594 145.179688 301.417969 144.742188 C 301.777344 144.308594 302.152344 143.890625 302.550781 143.492188 C 302.949219 143.09375 303.367188 142.714844 303.804688 142.359375 C 304.238281 142 304.691406 141.664062 305.160156 141.351562 C 305.628906 141.039062 306.109375 140.75 306.605469 140.484375 C 307.105469 140.21875 307.613281 139.980469 308.132812 139.761719 C 308.652344 139.546875 309.183594 139.359375 309.722656 139.195312 C 310.261719 139.03125 310.808594 138.894531 311.359375 138.785156 C 311.914062 138.675781 312.46875 138.589844 313.03125 138.535156 C 313.59375 138.480469 314.152344 138.453125 314.71875 138.453125 Z M 314.71875 138.453125 " fill-opacity="1" fill-rule="nonzero"/><path stroke-linecap="butt" transform="matrix(0.867187, 0, 0, 0.867187, 286.967592, 127.908347)" fill-opacity="1" fill="#371211" fill-rule="nonzero" stroke-linejoin="miter" d="M 25.199535 32.002088 C 25.199535 26.366953 29.767103 21.799385 35.397734 21.799385 C 36.677013 21.799385 37.911247 22.033619 39.100436 22.497583 C 40.289626 22.961547 41.352689 23.628214 42.289626 24.497583 C 39.97431 21.321907 36.231067 19.249835 32.001337 19.249835 C 24.960796 19.249835 19.249084 24.957043 19.249084 32.002088 C 19.249084 39.042629 24.960796 44.749837 32.001337 44.749837 C 36.235571 44.749837 39.97431 42.677764 42.29413 39.497584 C 41.357193 40.366954 40.289626 41.03362 39.100436 41.502089 C 37.911247 41.966053 36.677013 42.200287 35.397734 42.195782 C 29.767103 42.195782 25.199535 37.632719 25.199535 32.002088 " stroke="#371211" stroke-width="0.001" stroke-opacity="1" stroke-miterlimit="4"/><path stroke-linecap="butt" transform="matrix(0.867187, 0, 0, 0.867187, 286.967592, 127.908347)" fill-opacity="1" fill="#371211" fill-rule="nonzero" stroke-linejoin="miter" d="M 36.303139 29.222809 L 33.032869 24.722809 L 33.032869 30.281367 L 27.749084 32.002088 L 33.032869 33.718305 L 33.032869 39.276863 L 36.303139 34.776863 L 41.586923 36.497584 L 38.321157 32.002088 L 41.586923 27.502088 Z M 36.303139 29.222809 " stroke="#371211" stroke-width="0.001" stroke-opacity="1" stroke-miterlimit="4"/><path stroke-linecap="butt" transform="matrix(0.867187, 0, 0, 0.867187, 286.967592, 127.908347)" fill-opacity="1" fill="#371211" fill-rule="nonzero" stroke-linejoin="miter" d="M 32.001337 2.002087 C 15.433769 2.002087 2.001335 15.430015 2.001335 32.002088 C 2.001335 48.569657 15.433769 62.00209 32.001337 62.00209 C 48.568905 62.00209 62.001339 48.569657 62.001339 32.002088 C 62.001339 15.430015 48.568905 2.002087 32.001337 2.002087 Z M 32.001337 48.997585 C 22.613949 48.997585 15.001336 41.389476 15.001336 32.002088 C 15.001336 22.610196 22.613949 15.002087 32.001337 15.002087 C 41.388725 15.002087 48.996833 22.610196 48.996833 32.002088 C 48.996833 41.389476 41.388725 48.997585 32.001337 48.997585 Z M 32.001337 48.997585 " stroke="#371211" stroke-width="0.001" stroke-opacity="1" stroke-miterlimit="4"/><g fill="#cecdcd" fill-opacity="1"><g transform="translate(9.543902, 268.364003)"><g><path d="M 29.328125 1.296875 C 25.203125 1.296875 21.394531 0.597656 17.90625 -0.796875 C 14.414062 -2.203125 11.398438 -4.164062 8.859375 -6.6875 C 6.316406 -9.207031 4.34375 -12.179688 2.9375 -15.609375 C 1.539062 -19.046875 0.84375 -22.800781 0.84375 -26.875 C 0.84375 -30.945312 1.539062 -34.6875 2.9375 -38.09375 C 4.34375 -41.507812 6.316406 -44.460938 8.859375 -46.953125 C 11.398438 -49.453125 14.414062 -51.390625 17.90625 -52.765625 C 21.394531 -54.140625 25.203125 -54.828125 29.328125 -54.828125 C 32.785156 -54.828125 36.179688 -54.265625 39.515625 -53.140625 C 42.847656 -52.023438 45.835938 -50.234375 48.484375 -47.765625 C 51.128906 -45.296875 53.191406 -42 54.671875 -37.875 L 45.890625 -34.75 C 44.722656 -37.539062 43.234375 -39.710938 41.421875 -41.265625 C 39.617188 -42.816406 37.671875 -43.910156 35.578125 -44.546875 C 33.492188 -45.191406 31.410156 -45.515625 29.328125 -45.515625 C 25.859375 -45.515625 22.800781 -44.722656 20.15625 -43.140625 C 17.507812 -41.566406 15.4375 -39.378906 13.9375 -36.578125 C 12.4375 -33.773438 11.6875 -30.539062 11.6875 -26.875 C 11.6875 -23.257812 12.4375 -20.015625 13.9375 -17.140625 C 15.4375 -14.265625 17.507812 -12.007812 20.15625 -10.375 C 22.800781 -8.75 25.859375 -7.9375 29.328125 -7.9375 C 31.410156 -7.9375 33.492188 -8.28125 35.578125 -8.96875 C 37.671875 -9.65625 39.617188 -10.828125 41.421875 -12.484375 C 43.234375 -14.140625 44.722656 -16.367188 45.890625 -19.171875 L 55.125 -16.265625 C 53.394531 -11.984375 51.179688 -8.554688 48.484375 -5.984375 C 45.785156 -3.421875 42.796875 -1.566406 39.515625 -0.421875 C 36.234375 0.722656 32.835938 1.296875 29.328125 1.296875 Z M 29.328125 1.296875 "/></g></g></g><g fill="#cecdcd" fill-opacity="1"><g transform="translate(60.697948, 268.364003)"><g><path d="M 3.734375 0 L 3.734375 -53.453125 L 46.5 -53.453125 L 46.5 -44.359375 L 13.96875 -44.359375 L 13.96875 -31.078125 L 45.203125 -31.078125 L 45.203125 -22.296875 L 13.96875 -22.296875 L 13.96875 -9.09375 L 46.5 -9.09375 L 46.5 0 Z M 3.734375 0 "/></g></g></g><g fill="#cecdcd" fill-opacity="1"><g transform="translate(105.514935, 268.364003)"><g><path d="M 3.8125 0 L 3.8125 -53.453125 L 13.28125 -53.453125 L 41 -21.296875 L 46.890625 -12.984375 L 47.109375 -13.0625 L 46.203125 -23.140625 L 46.203125 -53.453125 L 56.421875 -53.453125 L 56.421875 0 L 46.046875 0 L 18.25 -32.90625 L 13.59375 -40.234375 L 13.203125 -40.171875 L 14.203125 -31.6875 L 14.203125 0 Z M 3.8125 0 "/></g></g></g><g fill="#cecdcd" fill-opacity="1"><g transform="translate(162.471589, 268.364003)"><g><path d="M 20.078125 0 L 20.078125 -44.359375 L -0.6875 -44.359375 L -0.6875 -53.453125 L 51.46875 -53.453125 L 51.46875 -44.359375 L 30.765625 -44.359375 L 30.765625 0 Z M 20.078125 0 "/></g></g></g><g fill="#cecdcd" fill-opacity="1"><g transform="translate(210.037173, 268.364003)"><g><path d="M 3.8125 0 L 3.8125 -53.453125 L 31.453125 -53.453125 C 33.796875 -53.453125 36.367188 -53.144531 39.171875 -52.53125 C 41.972656 -51.925781 44.46875 -50.753906 46.65625 -49.015625 C 48.539062 -47.492188 49.988281 -45.570312 51 -43.25 C 52.019531 -40.9375 52.53125 -38.582031 52.53125 -36.1875 C 52.53125 -33.851562 51.984375 -31.5 50.890625 -29.125 C 49.796875 -26.757812 48.257812 -24.765625 46.28125 -23.140625 C 43.675781 -21.097656 40.335938 -19.976562 36.265625 -19.78125 L 53.140625 -0.453125 L 53.140625 0 L 41.15625 0 L 24.28125 -19.46875 L 14.4375 -19.46875 L 14.4375 0 Z M 14.4375 -28.171875 L 32.21875 -28.171875 C 35.320312 -28.171875 37.710938 -28.820312 39.390625 -30.125 C 41.078125 -31.425781 41.921875 -33.472656 41.921875 -36.265625 C 41.921875 -39.328125 40.898438 -41.453125 38.859375 -42.640625 C 36.828125 -43.835938 34.359375 -44.4375 31.453125 -44.4375 L 14.4375 -44.4375 Z M 14.4375 -28.171875 "/></g></g></g><g fill="#cecdcd" fill-opacity="1"><g transform="translate(260.04596, 268.364003)"><g><path d="M -1.75 0 L 25.5 -53.75 L 34.75 -53.75 L 61.84375 0 L 50.171875 0 L 43.59375 -12.828125 L 16.1875 -12.828125 L 9.625 0 Z M 20.609375 -21.6875 L 39.171875 -21.6875 L 33.828125 -33.21875 L 30.15625 -43.0625 L 26.1875 -33.0625 Z M 20.609375 -21.6875 "/></g></g></g><g fill="#cecdcd" fill-opacity="1"><g transform="translate(316.697205, 268.364003)"><g><path d="M 3.734375 0 L 3.734375 -53.453125 L 14.515625 -53.453125 L 14.515625 -9.15625 L 46.421875 -9.15625 L 46.421875 0 Z M 3.734375 0 "/></g></g></g></svg>