<svg xmlns="http://www.w3.org/2000/svg" xmlns:xlink="http://www.w3.org/1999/xlink" width="500" zoomAndPan="magnify" viewBox="0 0 375 374.999991" height="500" preserveAspectRatio="xMidYMid meet" version="1.0"><defs><clipPath id="f4fbeb5f7a"><path d="M 0 75 L 0 300 C 0 341.421875 33.578125 375 75 375 L 300 375 C 341.421875 375 375 341.421875 375 300 L 375 75 C 375 33.578125 341.421875 0 300 0 L 75 0 C 33.578125 0 0 33.578125 0 75 Z M 0 75 " clip-rule="nonzero"/></clipPath></defs><g clip-path="url(#f4fbeb5f7a)"><rect x="-37.5" width="450" fill="#151515" y="-37.499999" height="449.999989" fill-opacity="1"/></g><path fill="#ffffff" d="M 187.5 71.300781 C 189.402344 71.300781 191.304688 71.347656 193.203125 71.441406 C 195.105469 71.535156 197 71.675781 198.894531 71.859375 C 200.789062 72.046875 202.675781 72.28125 204.558594 72.558594 C 206.4375 72.839844 208.3125 73.164062 210.179688 73.535156 C 212.046875 73.90625 213.902344 74.324219 215.746094 74.785156 C 217.59375 75.246094 219.425781 75.753906 221.246094 76.308594 C 223.066406 76.859375 224.871094 77.457031 226.664062 78.097656 C 228.453125 78.738281 230.230469 79.421875 231.988281 80.152344 C 233.746094 80.878906 235.484375 81.648438 237.203125 82.460938 C 238.921875 83.277344 240.621094 84.132812 242.300781 85.027344 C 243.976562 85.925781 245.632812 86.863281 247.265625 87.839844 C 248.894531 88.820312 250.503906 89.835938 252.085938 90.894531 C 253.667969 91.949219 255.222656 93.046875 256.75 94.179688 C 258.277344 95.3125 259.777344 96.480469 261.25 97.6875 C 262.71875 98.894531 264.160156 100.136719 265.570312 101.414062 C 266.976562 102.695312 268.355469 104.003906 269.699219 105.351562 C 271.046875 106.695312 272.359375 108.074219 273.636719 109.484375 C 274.914062 110.890625 276.15625 112.332031 277.363281 113.804688 C 278.570312 115.273438 279.738281 116.773438 280.871094 118.300781 C 282.007812 119.828125 283.101562 121.382812 284.160156 122.964844 C 285.214844 124.546875 286.234375 126.15625 287.210938 127.785156 C 288.1875 129.417969 289.125 131.074219 290.023438 132.75 C 290.921875 134.429688 291.773438 136.128906 292.589844 137.847656 C 293.402344 139.566406 294.171875 141.308594 294.902344 143.066406 C 295.628906 144.824219 296.3125 146.597656 296.953125 148.386719 C 297.59375 150.179688 298.191406 151.984375 298.746094 153.804688 C 299.296875 155.625 299.804688 157.460938 300.265625 159.304688 C 300.726562 161.152344 301.144531 163.007812 301.515625 164.871094 C 301.886719 166.738281 302.210938 168.613281 302.492188 170.492188 C 302.769531 172.375 303.003906 174.265625 303.191406 176.15625 C 303.375 178.050781 303.515625 179.945312 303.609375 181.847656 C 303.703125 183.746094 303.75 185.648438 303.75 187.550781 C 303.75 189.453125 303.703125 191.355469 303.609375 193.253906 C 303.515625 195.15625 303.375 197.050781 303.191406 198.945312 C 303.003906 200.839844 302.769531 202.726562 302.492188 204.609375 C 302.210938 206.492188 301.886719 208.363281 301.515625 210.230469 C 301.144531 212.097656 300.726562 213.953125 300.265625 215.796875 C 299.804688 217.644531 299.296875 219.476562 298.746094 221.296875 C 298.191406 223.117188 297.59375 224.921875 296.953125 226.714844 C 296.3125 228.507812 295.628906 230.28125 294.902344 232.039062 C 294.171875 233.796875 293.402344 235.535156 292.589844 237.253906 C 291.773438 238.976562 290.921875 240.671875 290.023438 242.351562 C 289.125 244.027344 288.1875 245.683594 287.210938 247.316406 C 286.234375 248.949219 285.214844 250.554688 284.160156 252.136719 C 283.101562 253.71875 282.007812 255.273438 280.871094 256.800781 C 279.738281 258.328125 278.570312 259.828125 277.363281 261.300781 C 276.15625 262.769531 274.914062 264.210938 273.636719 265.621094 C 272.359375 267.03125 271.046875 268.40625 269.699219 269.753906 C 268.355469 271.097656 266.976562 272.410156 265.570312 273.6875 C 264.160156 274.964844 262.71875 276.207031 261.25 277.414062 C 259.777344 278.621094 258.277344 279.792969 256.75 280.925781 C 255.222656 282.058594 253.667969 283.152344 252.085938 284.210938 C 250.503906 285.265625 248.894531 286.285156 247.265625 287.261719 C 245.632812 288.242188 243.976562 289.179688 242.300781 290.074219 C 240.621094 290.972656 238.921875 291.828125 237.203125 292.640625 C 235.484375 293.453125 233.746094 294.222656 231.988281 294.953125 C 230.230469 295.679688 228.453125 296.363281 226.664062 297.007812 C 224.871094 297.648438 223.066406 298.242188 221.246094 298.796875 C 219.425781 299.347656 217.59375 299.855469 215.746094 300.316406 C 213.902344 300.78125 212.046875 301.195312 210.179688 301.566406 C 208.3125 301.9375 206.4375 302.265625 204.558594 302.542969 C 202.675781 302.824219 200.789062 303.054688 198.894531 303.242188 C 197 303.429688 195.105469 303.566406 193.203125 303.660156 C 191.304688 303.753906 189.402344 303.800781 187.5 303.800781 C 185.597656 303.800781 183.695312 303.753906 181.796875 303.660156 C 179.894531 303.566406 178 303.429688 176.105469 303.242188 C 174.210938 303.054688 172.324219 302.824219 170.441406 302.542969 C 168.5625 302.265625 166.6875 301.9375 164.820312 301.566406 C 162.953125 301.195312 161.097656 300.78125 159.253906 300.316406 C 157.40625 299.855469 155.574219 299.347656 153.753906 298.796875 C 151.933594 298.242188 150.128906 297.648438 148.335938 297.007812 C 146.546875 296.363281 144.769531 295.679688 143.011719 294.953125 C 141.253906 294.222656 139.515625 293.453125 137.796875 292.640625 C 136.078125 291.828125 134.378906 290.972656 132.699219 290.074219 C 131.023438 289.179688 129.367188 288.242188 127.734375 287.261719 C 126.105469 286.285156 124.496094 285.265625 122.914062 284.210938 C 121.332031 283.152344 119.777344 282.058594 118.25 280.925781 C 116.722656 279.792969 115.222656 278.621094 113.75 277.414062 C 112.28125 276.207031 110.839844 274.964844 109.429688 273.6875 C 108.023438 272.410156 106.644531 271.097656 105.300781 269.753906 C 103.953125 268.40625 102.640625 267.03125 101.363281 265.621094 C 100.085938 264.210938 98.84375 262.769531 97.636719 261.300781 C 96.429688 259.828125 95.261719 258.328125 94.128906 256.800781 C 92.992188 255.273438 91.898438 253.71875 90.839844 252.136719 C 89.785156 250.554688 88.765625 248.949219 87.789062 247.316406 C 86.8125 245.683594 85.875 244.027344 84.976562 242.351562 C 84.078125 240.671875 83.226562 238.976562 82.410156 237.253906 C 81.597656 235.535156 80.828125 233.796875 80.097656 232.039062 C 79.371094 230.28125 78.6875 228.507812 78.046875 226.714844 C 77.40625 224.921875 76.808594 223.117188 76.253906 221.296875 C 75.703125 219.476562 75.195312 217.644531 74.734375 215.796875 C 74.273438 213.953125 73.855469 212.097656 73.484375 210.230469 C 73.113281 208.363281 72.789062 206.492188 72.507812 204.609375 C 72.230469 202.726562 71.996094 200.839844 71.808594 198.945312 C 71.625 197.050781 71.484375 195.15625 71.390625 193.253906 C 71.296875 191.355469 71.25 189.453125 71.25 187.550781 C 71.25 185.648438 71.296875 183.746094 71.390625 181.847656 C 71.484375 179.945312 71.625 178.050781 71.808594 176.15625 C 71.996094 174.265625 72.230469 172.375 72.507812 170.492188 C 72.789062 168.613281 73.113281 166.738281 73.484375 164.871094 C 73.855469 163.007812 74.273438 161.152344 74.734375 159.304688 C 75.195312 157.460938 75.703125 155.625 76.253906 153.804688 C 76.808594 151.984375 77.40625 150.179688 78.046875 148.386719 C 78.6875 146.597656 79.371094 144.824219 80.097656 143.066406 C 80.828125 141.308594 81.597656 139.566406 82.410156 137.847656 C 83.226562 136.128906 84.078125 134.429688 84.976562 132.75 C 85.875 131.074219 86.8125 129.417969 87.789062 127.785156 C 88.765625 126.15625 89.785156 124.546875 90.839844 122.964844 C 91.898438 121.382812 92.992188 119.828125 94.128906 118.300781 C 95.261719 116.773438 96.429688 115.273438 97.636719 113.804688 C 98.84375 112.332031 100.085938 110.890625 101.363281 109.484375 C 102.640625 108.074219 103.953125 106.695312 105.300781 105.351562 C 106.644531 104.003906 108.023438 102.695312 109.429688 101.414062 C 110.839844 100.136719 112.28125 98.894531 113.75 97.6875 C 115.222656 96.480469 116.722656 95.3125 118.25 94.179688 C 119.777344 93.046875 121.332031 91.949219 122.914062 90.894531 C 124.496094 89.835938 126.105469 88.820312 127.734375 87.839844 C 129.367188 86.863281 131.023438 85.925781 132.699219 85.027344 C 134.378906 84.132812 136.078125 83.277344 137.796875 82.460938 C 139.515625 81.648438 141.253906 80.878906 143.011719 80.152344 C 144.769531 79.421875 146.546875 78.738281 148.335938 78.097656 C 150.128906 77.457031 151.933594 76.859375 153.753906 76.308594 C 155.574219 75.753906 157.40625 75.246094 159.253906 74.785156 C 161.097656 74.324219 162.953125 73.90625 164.820312 73.535156 C 166.6875 73.164062 168.5625 72.839844 170.441406 72.558594 C 172.324219 72.28125 174.210938 72.046875 176.105469 71.859375 C 178 71.675781 179.894531 71.535156 181.796875 71.441406 C 183.695312 71.347656 185.597656 71.300781 187.5 71.300781 Z M 187.5 71.300781 " fill-opacity="1" fill-rule="nonzero"/><path stroke-linecap="butt" transform="matrix(5.859375, 0, 0, 5.859375, 0.0000045, 0.0515446)" fill-opacity="1" fill="#371211" fill-rule="nonzero" stroke-linejoin="miter" d="M 25.200667 31.999871 C 25.200667 26.367204 29.766001 21.799871 35.399334 21.799871 C 36.032001 21.799871 36.660001 21.858537 37.282001 21.975871 C 37.904001 22.093204 38.510001 22.267204 39.099334 22.497871 C 39.689334 22.728537 40.252001 23.011871 40.788668 23.347871 C 41.325334 23.684537 41.826001 24.067204 42.290668 24.497204 C 39.972668 21.321871 36.232001 19.251204 32.000001 19.251204 C 24.958667 19.251204 19.250667 24.959204 19.250667 31.999871 C 19.250667 39.041205 24.958667 44.749205 32.000001 44.749205 C 36.234001 44.749205 39.976001 42.675872 42.294001 39.499205 C 41.829334 39.929205 41.328001 40.312538 40.791334 40.649205 C 40.254668 40.985205 39.691334 41.269205 39.101334 41.499872 C 38.511334 41.730538 37.905334 41.905205 37.282668 42.022538 C 36.660668 42.139872 36.032668 42.198538 35.398667 42.197872 C 29.766667 42.197872 25.200667 37.633205 25.200667 31.999871 " stroke="#371211" stroke-width="0.001" stroke-opacity="1" stroke-miterlimit="4"/><path stroke-linecap="butt" transform="matrix(5.859375, 0, 0, 5.859375, 0.0000045, 0.0515446)" fill-opacity="1" fill="#371211" fill-rule="nonzero" stroke-linejoin="miter" d="M 36.302001 29.221204 L 33.034667 24.725204 L 33.034667 30.283204 L 27.75 31.999871 L 33.034667 33.717205 L 33.034667 39.275205 L 36.302001 34.779205 L 41.588001 36.495871 L 38.320001 31.999871 L 41.588001 27.503871 Z M 36.302001 29.221204 " stroke="#371211" stroke-width="0.001" stroke-opacity="1" stroke-miterlimit="4"/><path stroke-linecap="butt" transform="matrix(5.859375, 0, 0, 5.859375, 0.0000045, 0.0515446)" fill-opacity="1" fill="#371211" fill-rule="nonzero" stroke-linejoin="miter" d="M 32.000001 1.99987 C 15.432 1.99987 1.999999 15.43187 1.999999 31.999871 C 1.999999 48.567872 15.432 61.999873 32.000001 61.999873 C 48.568001 61.999873 62.000002 48.567872 62.000002 31.999871 C 62.000002 15.43187 48.568001 1.99987 32.000001 1.99987 Z M 32.000001 48.997205 C 22.612 48.997205 15.000667 41.387872 15.000667 31.999871 C 15.000667 22.611871 22.612 15.001204 32.000001 15.001204 C 41.388001 15.001204 48.997335 22.611871 48.997335 31.999871 C 48.997335 41.387872 41.388001 48.997205 32.000001 48.997205 Z M 32.000001 48.997205 " stroke="#371211" stroke-width="0.001" stroke-opacity="1" stroke-miterlimit="4"/></svg>