<svg xmlns="http://www.w3.org/2000/svg" xmlns:xlink="http://www.w3.org/1999/xlink" width="500" zoomAndPan="magnify" viewBox="0 0 375 374.999991" height="500" preserveAspectRatio="xMidYMid meet" version="1.0"><defs><g/></defs><rect x="-37.5" width="450" fill="#ffffff" y="-37.499999" height="449.999989" fill-opacity="1"/><rect x="-37.5" width="450" fill="#151515" y="-37.499999" height="449.999989" fill-opacity="1"/><g fill="#cecdcd" fill-opacity="1"><g transform="translate(185.796329, 202.451147)"><g><path d="M 15.09375 0.671875 C 12.96875 0.671875 11.007812 0.3125 9.21875 -0.40625 C 7.425781 -1.132812 5.875 -2.144531 4.5625 -3.4375 C 3.25 -4.738281 2.234375 -6.269531 1.515625 -8.03125 C 0.796875 -9.800781 0.4375 -11.738281 0.4375 -13.84375 C 0.4375 -15.9375 0.796875 -17.859375 1.515625 -19.609375 C 2.234375 -21.367188 3.25 -22.890625 4.5625 -24.171875 C 5.875 -25.460938 7.425781 -26.457031 9.21875 -27.15625 C 11.007812 -27.863281 12.96875 -28.21875 15.09375 -28.21875 C 16.875 -28.21875 18.625 -27.929688 20.34375 -27.359375 C 22.0625 -26.785156 23.597656 -25.863281 24.953125 -24.59375 C 26.316406 -23.320312 27.378906 -21.625 28.140625 -19.5 L 23.625 -17.890625 C 23.019531 -19.328125 22.253906 -20.445312 21.328125 -21.25 C 20.398438 -22.050781 19.394531 -22.613281 18.3125 -22.9375 C 17.238281 -23.269531 16.164062 -23.4375 15.09375 -23.4375 C 13.3125 -23.4375 11.738281 -23.03125 10.375 -22.21875 C 9.007812 -21.40625 7.941406 -20.273438 7.171875 -18.828125 C 6.398438 -17.390625 6.015625 -15.726562 6.015625 -13.84375 C 6.015625 -11.976562 6.398438 -10.304688 7.171875 -8.828125 C 7.941406 -7.347656 9.007812 -6.1875 10.375 -5.34375 C 11.738281 -4.507812 13.3125 -4.09375 15.09375 -4.09375 C 16.164062 -4.09375 17.238281 -4.269531 18.3125 -4.625 C 19.394531 -4.976562 20.398438 -5.578125 21.328125 -6.421875 C 22.253906 -7.273438 23.019531 -8.425781 23.625 -9.875 L 28.390625 -8.375 C 27.492188 -6.175781 26.347656 -4.410156 24.953125 -3.078125 C 23.566406 -1.753906 22.03125 -0.796875 20.34375 -0.203125 C 18.65625 0.378906 16.90625 0.671875 15.09375 0.671875 Z M 15.09375 0.671875 "/></g></g></g><g fill="#cecdcd" fill-opacity="1"><g transform="translate(212.137435, 202.451147)"><g><path d="M 1.921875 0 L 1.921875 -27.515625 L 23.9375 -27.515625 L 23.9375 -22.84375 L 7.1875 -22.84375 L 7.1875 -16 L 23.265625 -16 L 23.265625 -11.484375 L 7.1875 -11.484375 L 7.1875 -4.671875 L 23.9375 -4.671875 L 23.9375 0 Z M 1.921875 0 "/></g></g></g><g fill="#cecdcd" fill-opacity="1"><g transform="translate(235.215356, 202.451147)"><g><path d="M 1.96875 0 L 1.96875 -27.515625 L 6.84375 -27.515625 L 21.109375 -10.96875 L 24.140625 -6.6875 L 24.25 -6.71875 L 23.78125 -11.90625 L 23.78125 -27.515625 L 29.046875 -27.515625 L 29.046875 0 L 23.703125 0 L 9.390625 -16.9375 L 7 -20.71875 L 6.796875 -20.671875 L 7.3125 -16.3125 L 7.3125 0 Z M 1.96875 0 "/></g></g></g><g fill="#cecdcd" fill-opacity="1"><g transform="translate(264.544439, 202.451147)"><g><path d="M 10.34375 0 L 10.34375 -22.84375 L -0.359375 -22.84375 L -0.359375 -27.515625 L 26.5 -27.515625 L 26.5 -22.84375 L 15.84375 -22.84375 L 15.84375 0 Z M 10.34375 0 "/></g></g></g><g fill="#cecdcd" fill-opacity="1"><g transform="translate(289.037714, 202.451147)"><g><path d="M 1.96875 0 L 1.96875 -27.515625 L 16.203125 -27.515625 C 17.398438 -27.515625 18.71875 -27.359375 20.15625 -27.046875 C 21.601562 -26.734375 22.890625 -26.128906 24.015625 -25.234375 C 24.984375 -24.453125 25.726562 -23.460938 26.25 -22.265625 C 26.78125 -21.078125 27.046875 -19.867188 27.046875 -18.640625 C 27.046875 -17.429688 26.765625 -16.21875 26.203125 -15 C 25.640625 -13.78125 24.847656 -12.75 23.828125 -11.90625 C 22.484375 -10.863281 20.765625 -10.289062 18.671875 -10.1875 L 27.359375 -0.234375 L 27.359375 0 L 21.1875 0 L 12.5 -10.03125 L 7.4375 -10.03125 L 7.4375 0 Z M 7.4375 -14.5 L 16.59375 -14.5 C 18.1875 -14.5 19.414062 -14.832031 20.28125 -15.5 C 21.144531 -16.175781 21.578125 -17.234375 21.578125 -18.671875 C 21.578125 -20.242188 21.050781 -21.335938 20 -21.953125 C 18.957031 -22.566406 17.691406 -22.875 16.203125 -22.875 L 7.4375 -22.875 Z M 7.4375 -14.5 "/></g></g></g><g fill="#cecdcd" fill-opacity="1"><g transform="translate(314.789085, 202.451147)"><g><path d="M -0.90625 0 L 13.125 -27.671875 L 17.890625 -27.671875 L 31.84375 0 L 25.828125 0 L 22.453125 -6.609375 L 8.328125 -6.609375 L 4.953125 0 Z M 10.609375 -11.171875 L 20.171875 -11.171875 L 17.421875 -17.09375 L 15.53125 -22.171875 L 13.484375 -17.015625 Z M 10.609375 -11.171875 "/></g></g></g><g fill="#cecdcd" fill-opacity="1"><g transform="translate(343.960901, 202.451147)"><g><path d="M 1.921875 0 L 1.921875 -27.515625 L 7.46875 -27.515625 L 7.46875 -4.71875 L 23.90625 -4.71875 L 23.90625 0 Z M 1.921875 0 "/></g></g></g><g fill="#fff9f9" fill-opacity="1"><g transform="translate(10.1732, 209.350914)"><g><path d="M 16.390625 -43.21875 L 32.140625 -43.21875 L 49.34375 0.921875 L 33.234375 0.921875 L 30.921875 -5.546875 L 16.90625 -5.546875 L 14.71875 0.921875 L -0.984375 0.921875 Z M 24.0625 -27.75 L 20.421875 -16.90625 L 27.578125 -16.90625 Z M 24.0625 -27.75 "/></g></g></g><g fill="#fff9f9" fill-opacity="1"><g transform="translate(54.202173, 209.350914)"><g><path d="M 23.953125 2.1875 C 19.367188 2.1875 15.554688 1.363281 12.515625 -0.28125 C 9.484375 -1.9375 7.21875 -4.164062 5.71875 -6.96875 C 4.21875 -9.78125 3.46875 -12.921875 3.46875 -16.390625 L 3.46875 -43.21875 L 18.34375 -43.21875 L 18.34375 -18 C 18.34375 -15.925781 18.84375 -14.289062 19.84375 -13.09375 C 20.84375 -11.90625 22.285156 -11.3125 24.171875 -11.3125 C 26.054688 -11.3125 27.507812 -11.90625 28.53125 -13.09375 C 29.550781 -14.289062 30.0625 -15.925781 30.0625 -18 L 30.0625 -43.21875 L 44.828125 -43.21875 L 44.828125 -16.390625 C 44.828125 -12.921875 44.039062 -9.78125 42.46875 -6.96875 C 40.894531 -4.164062 38.554688 -1.9375 35.453125 -0.28125 C 32.359375 1.363281 28.523438 2.1875 23.953125 2.1875 Z M 23.953125 2.1875 "/></g></g></g><g fill="#fff9f9" fill-opacity="1"><g transform="translate(98.173436, 209.350914)"><g><path d="M 26.140625 0.921875 L 11.25 0.921875 L 11.25 -30.703125 L 0.46875 -30.703125 L 0.46875 -43.21875 L 36.9375 -43.21875 L 36.9375 -30.703125 L 26.140625 -30.703125 Z M 26.140625 0.921875 "/></g></g></g><g fill="#fff9f9" fill-opacity="1"><g transform="translate(131.2383, 209.350914)"><g><path d="M 26.59375 2.1875 C 23.09375 2.1875 19.863281 1.628906 16.90625 0.515625 C 13.945312 -0.597656 11.359375 -2.191406 9.140625 -4.265625 C 6.929688 -6.347656 5.210938 -8.835938 3.984375 -11.734375 C 2.753906 -14.640625 2.140625 -17.863281 2.140625 -21.40625 C 2.140625 -24.945312 2.753906 -28.128906 3.984375 -30.953125 C 5.210938 -33.785156 6.929688 -36.207031 9.140625 -38.21875 C 11.359375 -40.238281 13.945312 -41.78125 16.90625 -42.84375 C 19.863281 -43.90625 23.09375 -44.4375 26.59375 -44.4375 C 30.101562 -44.4375 33.347656 -43.90625 36.328125 -42.84375 C 39.304688 -41.78125 41.910156 -40.238281 44.140625 -38.21875 C 46.367188 -36.207031 48.097656 -33.785156 49.328125 -30.953125 C 50.566406 -28.128906 51.1875 -24.945312 51.1875 -21.40625 C 51.1875 -17.863281 50.566406 -14.640625 49.328125 -11.734375 C 48.097656 -8.835938 46.367188 -6.347656 44.140625 -4.265625 C 41.910156 -2.191406 39.304688 -0.597656 36.328125 0.515625 C 33.347656 1.628906 30.101562 2.1875 26.59375 2.1875 Z M 26.59375 -11.546875 C 28.289062 -11.546875 29.789062 -11.96875 31.09375 -12.8125 C 32.40625 -13.65625 33.4375 -14.816406 34.1875 -16.296875 C 34.9375 -17.773438 35.3125 -19.476562 35.3125 -21.40625 C 35.3125 -24.25 34.484375 -26.535156 32.828125 -28.265625 C 31.179688 -30.003906 29.101562 -30.875 26.59375 -30.875 C 24.09375 -30.875 22.015625 -30.003906 20.359375 -28.265625 C 18.710938 -26.535156 17.890625 -24.25 17.890625 -21.40625 C 17.890625 -19.476562 18.265625 -17.773438 19.015625 -16.296875 C 19.765625 -14.816406 20.800781 -13.65625 22.125 -12.8125 C 23.457031 -11.96875 24.945312 -11.546875 26.59375 -11.546875 Z M 26.59375 -11.546875 "/></g></g></g><path fill="#ffffff" d="M 157.773438 178.695312 C 158.363281 178.695312 158.945312 178.75 159.523438 178.867188 C 160.097656 178.980469 160.660156 179.152344 161.203125 179.375 C 161.746094 179.601562 162.261719 179.878906 162.75 180.203125 C 163.238281 180.53125 163.691406 180.902344 164.105469 181.316406 C 164.523438 181.734375 164.894531 182.183594 165.21875 182.675781 C 165.546875 183.164062 165.824219 183.679688 166.046875 184.222656 C 166.273438 184.765625 166.441406 185.324219 166.558594 185.902344 C 166.671875 186.480469 166.730469 187.0625 166.730469 187.648438 C 166.730469 188.238281 166.671875 188.820312 166.558594 189.398438 C 166.441406 189.972656 166.273438 190.535156 166.046875 191.078125 C 165.824219 191.621094 165.546875 192.136719 165.21875 192.625 C 164.894531 193.113281 164.523438 193.566406 164.105469 193.980469 C 163.691406 194.398438 163.238281 194.769531 162.75 195.09375 C 162.261719 195.421875 161.746094 195.699219 161.203125 195.921875 C 160.660156 196.148438 160.097656 196.316406 159.523438 196.433594 C 158.945312 196.546875 158.363281 196.605469 157.773438 196.605469 C 157.1875 196.605469 156.605469 196.546875 156.027344 196.433594 C 155.449219 196.316406 154.890625 196.148438 154.347656 195.921875 C 153.804688 195.699219 153.289062 195.421875 152.800781 195.09375 C 152.308594 194.769531 151.859375 194.398438 151.441406 193.980469 C 151.027344 193.566406 150.65625 193.113281 150.328125 192.625 C 150.003906 192.136719 149.726562 191.621094 149.5 191.078125 C 149.277344 190.535156 149.105469 189.972656 148.992188 189.398438 C 148.875 188.820312 148.820312 188.238281 148.820312 187.648438 C 148.820312 187.0625 148.875 186.480469 148.992188 185.902344 C 149.105469 185.324219 149.277344 184.765625 149.5 184.222656 C 149.726562 183.679688 150.003906 183.164062 150.328125 182.675781 C 150.65625 182.183594 151.027344 181.734375 151.441406 181.316406 C 151.859375 180.902344 152.308594 180.53125 152.800781 180.203125 C 153.289062 179.878906 153.804688 179.601562 154.347656 179.375 C 154.890625 179.152344 155.449219 178.980469 156.027344 178.867188 C 156.605469 178.75 157.1875 178.695312 157.773438 178.695312 Z M 157.773438 178.695312 " fill-opacity="1" fill-rule="nonzero"/><path stroke-linecap="butt" transform="matrix(0.45137, 0, 0, 0.45137, 143.330767, 173.205809)" fill-opacity="1" fill="#371211" fill-rule="nonzero" stroke-linejoin="miter" d="M 25.203868 31.997331 C 25.203868 26.363439 29.764638 21.802669 35.398531 21.802669 C 38.04672 21.802669 40.34874 22.702707 42.287284 24.494129 C 39.976609 21.318033 36.229335 19.249676 31.997425 19.249676 C 24.96155 19.249676 19.24977 24.961456 19.24977 31.997331 C 19.24977 39.04186 24.96155 44.744987 31.997425 44.744987 C 36.237989 44.744987 39.976609 42.67663 42.295938 39.500534 C 40.34874 41.30061 38.04672 42.200648 35.398531 42.200648 C 29.764638 42.200648 25.203868 37.631224 25.203868 31.997331 " stroke="#371211" stroke-width="0.001" stroke-opacity="1" stroke-miterlimit="4"/><path stroke-linecap="butt" transform="matrix(0.45137, 0, 0, 0.45137, 143.330767, 173.205809)" fill-opacity="1" fill="#371211" fill-rule="nonzero" stroke-linejoin="miter" d="M 36.298569 29.219329 L 33.035931 24.727793 L 33.035931 30.283797 L 27.748207 31.997331 L 33.035931 33.71952 L 33.035931 39.275524 L 36.298569 34.775334 L 41.586293 36.497522 L 38.323655 31.997331 L 41.586293 27.505795 Z M 36.298569 29.219329 " stroke="#371211" stroke-width="0.001" stroke-opacity="1" stroke-miterlimit="4"/><path stroke-linecap="butt" transform="matrix(0.45137, 0, 0, 0.45137, 143.330767, 173.205809)" fill-opacity="1" fill="#371211" fill-rule="nonzero" stroke-linejoin="miter" d="M 31.997425 2.00183 C 15.433262 2.00183 2.001924 15.433168 2.001924 31.997331 C 2.001924 48.570149 15.433262 62.001487 31.997425 62.001487 C 48.570242 62.001487 62.001581 48.570149 62.001581 31.997331 C 62.001581 15.433168 48.570242 2.00183 31.997425 2.00183 Z M 31.997425 48.994205 C 22.616259 48.994205 15.000551 41.387152 15.000551 31.997331 C 15.000551 22.616165 22.616259 15.000458 31.997425 15.000458 C 41.387246 15.000458 48.994299 22.616165 48.994299 31.997331 C 48.994299 41.387152 41.387246 48.994205 31.997425 48.994205 Z M 31.997425 48.994205 " stroke="#371211" stroke-width="0.001" stroke-opacity="1" stroke-miterlimit="4"/></svg>