<svg xmlns="http://www.w3.org/2000/svg" xmlns:xlink="http://www.w3.org/1999/xlink" width="1024" zoomAndPan="magnify" viewBox="0 0 768 458.999989" height="612" preserveAspectRatio="xMidYMid meet" version="1.0"><defs><g/><clipPath id="351bbd74f7"><path d="M 476.585938 254.554688 L 645.335938 254.554688 L 645.335938 423.304688 L 476.585938 423.304688 Z M 476.585938 254.554688 " clip-rule="nonzero"/></clipPath></defs><path stroke-linecap="butt" transform="matrix(2.022767, 0, 0, 2.022767, 6.399952, -71.968435)" fill="none" stroke-linejoin="miter" d="M 83.650518 92.144272 L 56.67633 92.144272 L 56.67633 171.000513 L 31.768464 171.000513 L 31.768464 92.144272 L 4.794276 92.144272 L 4.794276 67.236406 L 83.650518 67.236406 Z M 174.972279 67.236406 L 198.126668 67.236406 L 198.126668 127.109524 C 198.126668 140.077141 193.227362 150.874154 183.43068 159.500564 C 174.595706 167.167197 164.642602 171.000513 153.573298 171.000513 C 142.944293 171.000513 133.26348 167.271479 124.532788 159.813409 C 114.423261 151.314455 109.369463 140.297291 109.369463 126.758056 L 109.369463 67.236406 L 132.523853 67.236406 L 132.523853 126.758056 C 132.523853 133.150135 134.810324 138.269592 139.383268 142.116427 C 141.515249 144.012808 144.010284 145.441853 146.868373 146.403561 C 149.336373 147.36527 151.572635 147.846124 153.573298 147.846124 C 155.494784 147.846124 157.899055 147.36527 160.784181 146.403561 C 163.98022 145.130939 166.475255 143.649753 168.267355 141.960004 C 170.605968 139.829955 172.257094 137.697974 173.218802 135.567925 C 174.387143 133.229312 174.972279 130.409845 174.972279 127.109524 Z M 293.144635 67.236406 L 318.052501 67.236406 L 318.052501 171.000513 L 249.215023 120.4046 L 249.215023 171.000513 L 224.307157 171.000513 L 224.307157 67.236406 L 293.144635 120.209555 Z M 341.809406 67.236406 L 366.717272 67.236406 L 366.717272 171.000513 L 341.809406 171.000513 Z M 341.809406 67.236406 " stroke="#6b0000" stroke-width="9.57966" stroke-opacity="1" stroke-miterlimit="4"/><g fill="#6b0000" fill-opacity="1"><g transform="translate(6.399952, 273.924743)"><g><path d="M 169.234375 -159.53125 L 114.640625 -159.53125 L 114.640625 0 L 64.265625 0 L 64.265625 -159.53125 L 9.6875 -159.53125 L 9.6875 -209.921875 L 169.234375 -209.921875 Z M 169.234375 -159.53125 "/></g></g></g><g fill="#6b0000" fill-opacity="1"><g transform="translate(217.93162, 273.924743)"><g><path d="M 142.421875 -209.921875 L 189.25 -209.921875 L 189.25 -88.8125 C 189.25 -62.539062 179.34375 -40.6875 159.53125 -23.25 C 141.664062 -7.75 121.535156 0 99.140625 0 C 77.609375 0 58.019531 -7.535156 40.375 -22.609375 C 19.914062 -39.828125 9.6875 -62.109375 9.6875 -89.453125 L 9.6875 -209.921875 L 56.515625 -209.921875 L 56.515625 -89.453125 C 56.515625 -76.535156 61.144531 -66.203125 70.40625 -58.453125 C 74.707031 -54.578125 79.765625 -51.671875 85.578125 -49.734375 C 90.535156 -47.796875 95.054688 -46.828125 99.140625 -46.828125 C 103.015625 -46.828125 107.859375 -47.796875 113.671875 -49.734375 C 120.140625 -52.316406 125.203125 -55.332031 128.859375 -58.78125 C 133.597656 -63.082031 136.9375 -67.390625 138.875 -71.703125 C 141.238281 -76.429688 142.421875 -82.132812 142.421875 -88.8125 Z M 142.421875 -209.921875 "/></g></g></g><g fill="#6b0000" fill-opacity="1"><g transform="translate(452.39254, 273.924743)"><g><path d="M 146.9375 -209.921875 L 197.328125 -209.921875 L 197.328125 0 L 58.125 -102.375 L 58.125 0 L 7.75 0 L 7.75 -209.921875 L 146.9375 -102.703125 Z M 146.9375 -209.921875 "/></g></g></g><g fill="#6b0000" fill-opacity="1"><g transform="translate(692.989509, 273.924743)"><g><path d="M 4.84375 -209.921875 L 55.21875 -209.921875 L 55.21875 0 L 4.84375 0 Z M 4.84375 -209.921875 "/></g></g></g><path stroke-linecap="butt" transform="matrix(1.867206, 0, 0, 1.867206, 11.619405, 221.732241)" fill="none" stroke-linejoin="miter" d="M 34.268352 28.325133 L 46.125976 28.325133 L 70.247079 85.960553 L 75.221926 85.960553 L 75.221926 95.000214 L 52.879048 95.000214 L 52.879048 85.960553 L 58.186528 85.960553 L 53.284902 73.06319 L 27.082229 73.06319 L 22.180604 85.960553 L 27.590593 85.960553 L 27.590593 95.000214 L 5.245623 95.000214 L 5.245623 85.960553 L 10.222562 85.960553 Z M 30.20563 64.937746 L 50.161502 64.937746 L 40.184612 38.532147 Z M 128.807176 87.408238 C 133.934741 87.408238 137.989095 86.096535 140.968145 83.47313 C 143.947195 80.832988 145.436721 77.293274 145.436721 72.860263 L 145.436721 37.287389 L 140.637604 37.287389 L 140.637604 28.222624 L 161.559994 28.325133 L 161.559994 37.287389 L 156.863387 37.287389 L 156.863387 72.860263 C 156.863387 77.498293 155.704403 81.586119 153.384342 85.123741 C 151.066373 88.661364 147.790254 91.420751 143.558078 93.399811 C 139.325902 95.364227 134.409632 96.345389 128.807176 96.345389 C 123.185892 96.345389 118.261254 95.397699 114.029078 93.50232 C 109.796902 91.590205 106.495679 88.881027 104.127501 85.376877 C 101.773968 81.872727 100.598247 77.70122 100.598247 72.860263 L 100.598247 37.287389 L 95.824235 37.287389 L 95.824235 28.222624 L 116.821938 28.325133 L 116.821938 37.387806 L 112.047926 37.287389 L 112.047926 72.860263 C 112.047926 77.293274 113.570923 80.832988 116.619011 83.47313 C 119.665006 86.096535 123.727728 87.408238 128.807176 87.408238 Z M 182.358954 28.222624 L 238.521584 28.325133 L 238.521584 43.506993 L 229.990287 43.506993 L 229.45682 37.387806 L 216.153602 37.287389 L 216.153602 85.960553 L 220.825105 85.960553 L 220.825105 95.000214 L 199.92782 95.000214 L 199.92782 85.960553 L 204.701832 85.960553 L 204.701832 37.287389 L 191.296105 37.387806 L 190.890251 43.506993 L 182.358954 43.506993 Z M 182.358954 28.222624 " stroke="#000000" stroke-width="7.8" stroke-opacity="1" stroke-miterlimit="4"/><path stroke-linecap="butt" transform="matrix(1.867206, 0, 0, 1.867206, 11.619405, 221.732241)" fill="none" stroke-linejoin="miter" d="M 394.003328 48.30611 L 386.411352 48.30611 L 386.005498 42.061401 C 384.549445 40.469366 382.534821 38.877332 379.963716 37.287389 C 377.407256 35.695354 374.250383 34.900383 370.493097 34.900383 C 367.242083 34.900383 364.627046 35.661882 362.645894 37.184879 C 360.666834 38.709969 359.675212 40.858484 359.675212 43.634607 C 359.675212 45.360532 360.191943 46.850057 361.225406 48.103183 C 362.273513 49.339572 363.840443 50.548766 365.922012 51.734946 L 386.005498 62.144886 C 389.815084 64.073738 392.58284 66.360326 394.308764 69.000468 C 396.051425 71.64061 396.923801 74.686605 396.923801 78.140546 C 396.923801 81.966868 395.934271 85.249263 393.953119 87.991914 C 391.971967 90.717829 389.21258 92.79103 385.674957 94.213611 C 382.154071 95.634099 378.10181 96.345389 373.513988 96.345389 C 369.01194 96.345389 365.143777 95.72824 361.909499 94.491851 C 358.69405 93.238725 356.079012 91.784764 354.064388 90.125784 C 352.066499 88.450069 350.59371 86.994016 349.646021 85.757626 C 348.715068 84.5045 348.250637 83.878984 348.250637 83.878984 L 348.250637 75.04225 L 355.842613 75.04225 L 356.145957 79.816262 C 356.907456 80.849724 358.032968 82.042181 359.522493 83.395725 C 361.012019 84.75136 362.934594 85.918713 365.288127 86.899875 C 367.656305 87.8643 370.509834 88.347559 373.844529 88.347559 C 377.365415 88.347559 380.183379 87.619533 382.298421 86.16348 C 384.415555 84.707427 385.47203 82.694895 385.47203 80.121698 C 385.47203 78.529663 385.057809 77.073611 384.229365 75.75354 C 383.398829 74.433469 381.875831 73.155239 379.65828 71.920942 L 360.208679 61.713928 C 356.04554 59.563322 353.005821 57.262089 351.093706 54.806046 C 349.198327 52.335359 348.250637 49.297732 348.250637 45.691072 C 348.250637 39.952635 350.221329 35.366906 354.166897 31.929701 C 358.12711 28.492496 363.468062 26.774939 370.187661 26.774939 C 374.419837 26.774939 378.041141 27.402548 381.053664 28.653582 C 384.068278 29.889972 386.530598 31.346024 388.442713 33.02174 C 390.35692 34.68072 391.760672 36.136773 392.658153 37.387806 C 393.555633 38.640932 394.003328 39.268541 394.003328 39.268541 Z M 394.003328 48.30611 " stroke="#000000" stroke-width="7.8" stroke-opacity="1" stroke-miterlimit="4"/><g fill="#ffffff" fill-opacity="1"><g transform="translate(17.716999, 399.116788)"><g><path d="M 57.875 -124.46875 L 80 -124.46875 L 125.0625 -16.890625 L 134.375 -16.890625 L 134.375 0 L 92.625 0 L 92.625 -16.890625 L 102.53125 -16.890625 L 93.40625 -40.96875 L 44.46875 -40.96875 L 35.34375 -16.890625 L 45.4375 -16.890625 L 45.4375 0 L 3.6875 0 L 3.6875 -16.890625 L 13.015625 -16.890625 Z M 50.296875 -56.125 L 87.578125 -56.125 L 68.9375 -105.4375 Z M 50.296875 -56.125 "/></g></g></g><g fill="#ffffff" fill-opacity="1"><g transform="translate(184.331636, 399.116788)"><g><path d="M 67.765625 -14.171875 C 77.347656 -14.171875 84.921875 -16.628906 90.484375 -21.546875 C 96.054688 -26.472656 98.84375 -33.078125 98.84375 -41.359375 L 98.84375 -107.78125 L 89.90625 -107.78125 L 89.90625 -124.671875 L 128.9375 -124.46875 L 128.9375 -107.78125 L 120.203125 -107.78125 L 120.203125 -41.359375 C 120.203125 -32.679688 118.03125 -25.039062 113.6875 -18.4375 C 109.351562 -11.84375 103.238281 -6.695312 95.34375 -3 C 87.445312 0.6875 78.253906 2.53125 67.765625 2.53125 C 57.285156 2.53125 48.09375 0.75 40.1875 -2.8125 C 32.289062 -6.375 26.140625 -11.421875 21.734375 -17.953125 C 17.335938 -24.492188 15.140625 -32.296875 15.140625 -41.359375 L 15.140625 -107.78125 L 6.21875 -107.78125 L 6.21875 -124.671875 L 45.4375 -124.46875 L 45.4375 -107.578125 L 36.5 -107.78125 L 36.5 -41.359375 C 36.5 -33.078125 39.347656 -26.472656 45.046875 -21.546875 C 50.742188 -16.628906 58.316406 -14.171875 67.765625 -14.171875 Z M 67.765625 -14.171875 "/></g></g></g><g fill="#ffffff" fill-opacity="1"><g transform="translate(348.421801, 399.116788)"><g><path d="M 3.6875 -124.671875 L 108.546875 -124.46875 L 108.546875 -96.125 L 92.625 -96.125 L 91.65625 -107.578125 L 66.796875 -107.78125 L 66.796875 -16.890625 L 75.53125 -16.890625 L 75.53125 0 L 36.5 0 L 36.5 -16.890625 L 45.4375 -16.890625 L 45.4375 -107.78125 L 20.390625 -107.578125 L 19.609375 -96.125 L 3.6875 -96.125 Z M 3.6875 -124.671875 "/></g></g></g><g fill="#ffffff" fill-opacity="1"><g transform="translate(489.215628, 399.116788)"><g/></g></g><g fill="#ffffff" fill-opacity="1"><g transform="translate(571.551978, 399.116788)"><g/></g></g><g fill="#ffffff" fill-opacity="1"><g transform="translate(653.90902, 399.116788)"><g><path d="M 93.40625 -87.1875 L 79.234375 -87.1875 L 78.453125 -98.84375 C 75.734375 -101.820312 71.976562 -104.796875 67.1875 -107.765625 C 62.394531 -110.742188 56.503906 -112.234375 49.515625 -112.234375 C 43.429688 -112.234375 38.546875 -110.8125 34.859375 -107.96875 C 31.171875 -105.125 29.328125 -101.109375 29.328125 -95.921875 C 29.328125 -92.691406 30.296875 -89.910156 32.234375 -87.578125 C 34.171875 -85.242188 37.082031 -82.976562 40.96875 -80.78125 L 78.453125 -61.359375 C 85.566406 -57.734375 90.742188 -53.460938 93.984375 -48.546875 C 97.222656 -43.628906 98.84375 -37.929688 98.84375 -31.453125 C 98.84375 -24.335938 96.992188 -18.222656 93.296875 -13.109375 C 89.609375 -7.992188 84.460938 -4.109375 77.859375 -1.453125 C 71.265625 1.203125 63.695312 2.53125 55.15625 2.53125 C 46.738281 2.53125 39.519531 1.363281 33.5 -0.96875 C 27.476562 -3.300781 22.585938 -6.019531 18.828125 -9.125 C 15.078125 -12.226562 12.328125 -14.945312 10.578125 -17.28125 C 8.835938 -19.613281 7.96875 -20.78125 7.96875 -20.78125 L 7.96875 -37.28125 L 22.140625 -37.28125 L 22.71875 -28.34375 C 24.144531 -26.40625 26.25 -24.171875 29.03125 -21.640625 C 31.8125 -19.117188 35.398438 -16.953125 39.796875 -15.140625 C 44.203125 -13.328125 49.515625 -12.421875 55.734375 -12.421875 C 62.335938 -12.421875 67.613281 -13.78125 71.5625 -16.5 C 75.507812 -19.21875 77.484375 -22.972656 77.484375 -27.765625 C 77.484375 -30.742188 76.703125 -33.460938 75.140625 -35.921875 C 73.585938 -38.378906 70.742188 -40.773438 66.609375 -43.109375 L 30.296875 -62.140625 C 22.523438 -66.148438 16.859375 -70.453125 13.296875 -75.046875 C 9.742188 -79.648438 7.96875 -85.316406 7.96875 -92.046875 C 7.96875 -102.785156 11.65625 -111.359375 19.03125 -117.765625 C 26.40625 -124.179688 36.375 -127.390625 48.9375 -127.390625 C 56.832031 -127.390625 63.59375 -126.222656 69.21875 -123.890625 C 74.851562 -121.554688 79.453125 -118.835938 83.015625 -115.734375 C 86.578125 -112.628906 89.195312 -109.910156 90.875 -107.578125 C 92.5625 -105.242188 93.40625 -104.078125 93.40625 -104.078125 Z M 93.40625 -87.1875 "/></g></g></g><g clip-path="url(#351bbd74f7)"><path fill="#ffffff" d="M 593.316406 322.414062 C 591.027344 322.902344 588.960938 323.304688 587.214844 323.59375 C 587.070312 323.621094 586.925781 323.644531 586.785156 323.664062 C 585.394531 323.875 584.019531 323.914062 582.6875 323.789062 C 576.746094 323.25 571.550781 319.59375 568.957031 314.324219 C 568.03125 312.453125 567.4375 310.375 567.257812 308.167969 L 566.832031 302.976562 L 565.019531 280.972656 C 587.894531 282.300781 607.21875 296.839844 615.488281 317.074219 C 607.898438 319.03125 599.742188 321.046875 593.316406 322.414062 Z M 561.582031 353.371094 C 553.691406 353.371094 547.292969 346.972656 547.292969 339.082031 C 547.292969 331.191406 553.691406 324.792969 561.582031 324.792969 C 569.472656 324.792969 575.871094 331.191406 575.871094 339.082031 C 575.871094 346.972656 569.472656 353.371094 561.582031 353.371094 Z M 556.929688 281.050781 C 556.527344 288.039062 556.039062 295.53125 555.503906 301.871094 C 555.382812 303.308594 555.261719 304.683594 555.136719 305.980469 C 555.101562 306.339844 555.0625 306.691406 555.019531 307.039062 C 554.671875 309.71875 553.773438 312.171875 552.453125 314.324219 C 549.46875 319.191406 544.328125 322.484375 538.597656 323.207031 C 536.425781 323.484375 534.167969 323.386719 531.910156 322.871094 L 529.320312 322.300781 L 507.507812 317.488281 C 515.535156 297.398438 534.433594 282.832031 556.929688 281.050781 Z M 505.152344 324.734375 C 511.609375 327.222656 518.460938 329.949219 524.039062 332.363281 C 527.90625 334.039062 531.164062 335.566406 533.253906 336.761719 C 533.460938 336.878906 533.664062 337 533.859375 337.121094 C 533.9375 337.167969 534.015625 337.21875 534.09375 337.265625 C 539.621094 340.777344 542.101562 347.273438 540.980469 353.421875 C 540.648438 355.253906 539.996094 357.050781 539.007812 358.730469 L 535.140625 365.171875 L 524.078125 383.605469 C 511.414062 372.925781 503.367188 356.945312 503.367188 339.082031 C 503.367188 334.128906 503.988281 329.324219 505.152344 324.734375 Z M 561.582031 397.296875 C 550.398438 397.296875 539.953125 394.140625 531.082031 388.671875 C 535.992188 382.941406 541.265625 376.542969 545.605469 370.691406 C 546.019531 370.132812 546.425781 369.574219 546.824219 369.023438 C 549.078125 365.90625 551.382812 363.789062 553.636719 362.398438 C 557.144531 360.234375 560.523438 359.832031 563.371094 360.171875 C 565.082031 360.375 566.726562 360.894531 568.242188 361.660156 C 570.175781 362.644531 571.90625 364.046875 573.316406 365.742188 L 576.992188 370.222656 L 592.125 388.648438 C 583.246094 394.132812 572.785156 397.296875 561.582031 397.296875 Z M 619.796875 339.082031 C 619.796875 356.746094 611.929688 372.570312 599.507812 383.246094 C 595.316406 376.058594 590.613281 368.296875 586.523438 362.296875 C 585.871094 361.339844 585.234375 360.425781 584.621094 359.566406 C 582.289062 356.320312 581.078125 353.445312 580.605469 350.941406 C 579.957031 347.523438 580.683594 344.792969 581.792969 342.742188 C 582.902344 340.699219 584.613281 339.066406 586.632812 337.9375 C 587.09375 337.679688 587.574219 337.445312 588.0625 337.242188 L 594.433594 334.582031 L 618.015625 324.746094 C 619.179688 329.332031 619.796875 334.132812 619.796875 339.082031 Z M 561.113281 254.554688 C 514.429688 254.554688 476.585938 292.398438 476.585938 339.082031 C 476.585938 385.765625 514.429688 423.609375 561.113281 423.609375 C 607.796875 423.609375 645.640625 385.765625 645.640625 339.082031 C 645.640625 292.398438 607.796875 254.554688 561.113281 254.554688 " fill-opacity="1" fill-rule="nonzero"/></g></svg>