<svg xmlns="http://www.w3.org/2000/svg" xmlns:xlink="http://www.w3.org/1999/xlink" width="500" zoomAndPan="magnify" viewBox="0 0 375 187.499995" height="250" preserveAspectRatio="xMidYMid meet" version="1.0"><defs><g/><clipPath id="da48ba0954"><path d="M 0.5 0 L 374.5 0 L 374.5 187 L 0.5 187 Z M 0.5 0 " clip-rule="nonzero"/></clipPath><clipPath id="f21ab510a3"><path d="M 291.5625 48.488281 L 325.972656 48.488281 L 325.972656 82.894531 L 291.5625 82.894531 Z M 291.5625 48.488281 " clip-rule="nonzero"/></clipPath></defs><g clip-path="url(#da48ba0954)"><path fill="#ffffff" d="M 0.5 0 L 374.5 0 L 374.5 187 L 0.5 187 Z M 0.5 0 " fill-opacity="1" fill-rule="nonzero"/><path fill="#371211" d="M 0.5 0 L 374.5 0 L 374.5 187 L 0.5 187 Z M 0.5 0 " fill-opacity="1" fill-rule="nonzero"/></g><g clip-path="url(#f21ab510a3)"><path stroke-linecap="butt" transform="matrix(0.0672036, 0, 0, 0.0672036, 291.562514, 48.486424)" fill-opacity="1" fill="#371211" fill-rule="nonzero" stroke-linejoin="miter" d="M 512.028275 256.012808 C 512.028275 264.382896 511.56327 272.752983 510.749511 281.064945 C 509.935753 289.435033 508.715115 297.746995 507.087598 305.942705 C 505.460081 314.138416 503.425685 322.276001 500.984409 330.297335 C 498.543134 338.318669 495.694979 346.223751 492.498071 353.954457 C 489.301162 361.685163 485.697375 369.299618 481.744833 376.68157 C 477.792292 384.063522 473.490997 391.271097 468.840948 398.24617 C 464.1909 405.221243 459.192097 411.905688 453.902667 418.415756 C 448.555111 424.867699 442.975053 431.087139 437.046241 437.015951 C 431.117429 442.944763 424.897989 448.582947 418.387921 453.872377 C 411.935978 459.219933 405.193408 464.218735 398.218335 468.868784 C 391.243262 473.518832 384.093812 477.820127 376.653735 481.772669 C 369.271782 485.72521 361.715453 489.328998 353.984748 492.525906 C 346.195916 495.722814 338.348959 498.570969 330.327625 500.954119 C 322.306291 503.395395 314.168706 505.429791 305.91487 507.057308 C 297.719159 508.742951 289.465323 509.963588 281.095236 510.777347 C 272.725148 511.591105 264.413186 511.997985 255.984973 511.997985 C 247.614886 511.997985 239.244798 511.591105 230.932836 510.777347 C 222.562749 509.963588 214.308912 508.742951 206.055076 507.057308 C 197.859365 505.429791 189.72178 503.395395 181.700446 500.954119 C 173.679113 498.570969 165.77403 495.722814 158.043324 492.525906 C 150.312618 489.328998 142.698164 485.72521 135.316211 481.772669 C 127.934259 477.820127 120.726684 473.518832 113.751611 468.868784 C 106.776538 464.218735 100.092093 459.219933 93.582025 453.872377 C 87.130083 448.582947 80.910643 442.944763 74.981831 437.015951 C 69.053019 431.087139 63.414835 424.867699 58.125404 418.415756 C 52.777849 411.905688 47.779046 405.221243 43.128998 398.24617 C 38.478949 391.271097 34.177654 384.063522 30.225113 376.68157 C 26.272571 369.299618 22.668784 361.685163 19.471875 353.954457 C 16.274967 346.223751 13.484938 338.318669 11.043662 330.297335 C 8.602387 322.276001 6.56799 314.138416 4.940473 305.942705 C 3.254831 297.746995 2.034193 289.435033 1.220435 281.064945 C 0.406676 272.752983 -0.000203177 264.382896 -0.000203177 256.012808 C -0.000203177 247.642721 0.406676 239.272633 1.220435 230.902546 C 2.034193 222.590584 3.254831 214.278622 4.940473 206.082911 C 6.56799 197.829075 8.602387 189.69149 11.043662 181.670156 C 13.484938 173.648822 16.274967 165.801865 19.471875 158.013034 C 22.668784 150.282328 26.272571 142.725999 30.225113 135.344047 C 34.177654 127.903969 38.478949 120.754519 43.128998 113.779446 C 47.779046 106.804373 52.777849 100.061803 58.125404 93.609861 C 63.414835 87.099792 69.053019 80.880352 74.981831 75.009666 C 80.910643 69.080854 87.130083 63.44267 93.582025 58.095114 C 100.092093 52.805684 106.776538 47.806882 113.751611 43.156833 C 120.726684 38.506784 127.934259 34.205489 135.316211 30.252948 C 142.698164 26.300407 150.312618 22.696619 158.043324 19.499711 C 165.77403 16.302802 173.679113 13.454648 181.700446 11.013372 C 189.72178 8.572096 197.859365 6.5377 206.055076 4.910183 C 214.308912 3.282666 222.562749 2.062028 230.932836 1.24827 C 239.244798 0.434511 247.614886 0.0276322 255.984973 0.0276322 C 264.413186 0.0276322 272.725148 0.434511 281.095236 1.24827 C 289.465323 2.062028 297.719159 3.282666 305.91487 4.910183 C 314.168706 6.5377 322.306291 8.572096 330.327625 11.013372 C 338.348959 13.454648 346.195916 16.302802 353.984748 19.499711 C 361.715453 22.696619 369.271782 26.300407 376.653735 30.252948 C 384.093812 34.205489 391.243262 38.506784 398.218335 43.156833 C 405.193408 47.806882 411.935978 52.805684 418.387921 58.095114 C 424.897989 63.44267 431.117429 69.080854 437.046241 75.009666 C 442.975053 80.880352 448.555111 87.099792 453.902667 93.609861 C 459.192097 100.061803 464.1909 106.804373 468.840948 113.779446 C 473.490997 120.754519 477.792292 127.903969 481.744833 135.344047 C 485.697375 142.725999 489.301162 150.282328 492.498071 158.013034 C 495.694979 165.801865 498.543134 173.648822 500.984409 181.670156 C 503.425685 189.69149 505.460081 197.829075 507.087598 206.082911 C 508.715115 214.278622 509.935753 222.590584 510.749511 230.902546 C 511.56327 239.272633 512.028275 247.642721 512.028275 256.012808 Z M 512.028275 256.012808 " stroke="#cecdcd" stroke-width="1" stroke-opacity="1" stroke-miterlimit="4"/></g><path stroke-linecap="butt" transform="matrix(0.0672036, 0, 0, 0.0672036, 291.562514, 48.486424)" fill-opacity="1" fill="#cecdcd" fill-rule="nonzero" stroke-linejoin="miter" d="M 378.455628 256.012808 C 378.455628 264.034142 377.64187 271.99735 376.072478 279.902433 C 374.503087 287.74939 372.178063 295.42197 369.097406 302.862048 C 366.016748 310.302126 362.238584 317.335324 357.821038 324.019769 C 353.345366 330.704214 348.230312 336.865529 342.592128 342.561838 C 336.895819 348.258148 330.734504 353.315076 324.05006 357.790747 C 317.365615 362.266419 310.274291 366.044584 302.834213 369.125241 C 295.452261 372.205898 287.77968 374.530922 279.874598 376.100314 C 272.027641 377.669705 264.064432 378.425338 255.984973 378.425338 C 247.963639 378.425338 240.000431 377.669705 232.095348 376.100314 C 224.248391 374.530922 216.575811 372.205898 209.135733 369.125241 C 201.695655 366.044584 194.662457 362.266419 187.978012 357.790747 C 181.293567 353.315076 175.132253 348.258148 169.435943 342.561838 C 163.739634 336.865529 158.682706 330.704214 154.207034 324.019769 C 149.731362 317.335324 145.953198 310.302126 142.87254 302.862048 C 139.791883 295.42197 137.466859 287.74939 135.897468 279.902433 C 134.328076 271.99735 133.572443 264.034142 133.572443 256.012808 C 133.572443 247.933349 134.328076 239.970141 135.897468 232.123184 C 137.466859 224.218101 139.791883 216.545521 142.87254 209.163569 C 145.953198 201.723491 149.731362 194.690292 154.207034 188.005847 C 158.682706 181.321402 163.739634 175.101962 169.435943 169.405653 C 175.132253 163.767469 181.293567 158.652416 187.978012 154.176744 C 194.662457 149.759198 201.695655 145.981033 209.135733 142.900376 C 216.575811 139.819719 224.248391 137.494694 232.095348 135.925303 C 240.000431 134.355911 247.963639 133.542153 255.984973 133.542153 C 264.064432 133.542153 272.027641 134.355911 279.874598 135.925303 C 287.77968 137.494694 295.452261 139.819719 302.834213 142.900376 C 310.274291 145.981033 317.365615 149.759198 324.05006 154.176744 C 330.734504 158.652416 336.895819 163.767469 342.592128 169.405653 C 348.230312 175.101962 353.345366 181.321402 357.821038 188.005847 C 362.238584 194.690292 366.016748 201.723491 369.097406 209.163569 C 372.178063 216.545521 374.503087 224.218101 376.072478 232.123184 C 377.64187 239.970141 378.455628 247.933349 378.455628 256.012808 Z M 378.455628 256.012808 " stroke="#cecdcd" stroke-width="1" stroke-opacity="1" stroke-miterlimit="4"/><path stroke-linecap="butt" transform="matrix(0.0672036, 0, 0, 0.0672036, 291.562514, 48.486424)" fill-opacity="1" fill="#371211" fill-rule="nonzero" stroke-linejoin="miter" d="M 271.097631 209.163569 L 292.080975 238.110121 L 326.084456 227.124381 L 305.042986 256.012808 L 326.084456 284.959361 L 292.080975 273.915496 L 271.039505 302.803923 L 271.039505 267.056674 L 237.036025 255.954683 L 271.039505 244.968943 Z M 271.097631 209.163569 " stroke="#cecdcd" stroke-width="1" stroke-opacity="1" stroke-miterlimit="4"/><path stroke-linecap="butt" transform="matrix(0.0672036, 0, 0, 0.0672036, 291.562514, 48.486424)" fill-opacity="1" fill="#371211" fill-rule="nonzero" stroke-linejoin="miter" d="M 283.827139 328.321064 C 243.894847 328.321064 211.460758 295.945101 211.460758 256.012808 C 211.460758 216.02239 243.894847 183.646427 283.827139 183.646427 C 296.266019 183.646427 308.007392 186.78521 318.237499 192.365268 C 302.194831 176.671354 280.223351 166.964377 255.984973 166.964377 C 206.810709 166.964377 166.936542 206.838544 166.936542 256.012808 C 166.936542 305.187072 206.810709 345.061239 255.984973 345.061239 C 280.223351 345.061239 302.194831 335.354263 318.237499 319.660349 C 308.007392 325.182281 296.266019 328.321064 283.827139 328.321064 Z M 283.827139 328.321064 " stroke="#cecdcd" stroke-width="1" stroke-opacity="1" stroke-miterlimit="4"/><path stroke-linecap="butt" transform="matrix(0.867188, 0, 0, 0.867188, -11.566345, 116.077925)" fill="none" stroke-linejoin="miter" d="M 60.067488 55.378602 C 55.711633 55.378602 51.689111 54.635358 48.004427 53.153377 C 44.328752 51.671395 41.148572 49.603828 38.459383 46.955179 C 35.76569 44.293017 33.680105 41.148874 32.198123 37.527253 C 30.729654 33.892118 29.99542 29.92365 29.99542 25.621849 C 29.99542 21.329056 30.729654 17.387616 32.198123 13.793021 C 33.680105 10.184914 35.76569 7.063293 38.459383 4.423653 C 41.148572 1.788519 44.328752 -0.252022 48.004427 -1.693463 C 51.689111 -3.152922 55.711633 -3.878147 60.067488 -3.878147 C 63.711632 -3.878147 67.297217 -3.288057 70.81073 -2.107877 C 74.342261 -0.927697 77.504423 0.968699 80.297215 3.581311 C 83.090008 6.189419 85.270188 9.666896 86.833251 14.009238 L 77.562982 17.315544 C 76.315234 14.365093 74.743162 12.067796 72.837757 10.428157 C 70.936856 8.788518 68.882803 7.635365 66.6801 6.964194 C 64.472893 6.293022 62.270191 5.959689 60.067488 5.959689 C 56.405327 5.959689 53.180102 6.793022 50.382805 8.459689 C 47.590013 10.126355 45.396319 12.437166 43.810734 15.387616 C 42.234157 18.338066 41.450374 21.75248 41.450374 25.621849 C 41.450374 29.437164 42.234157 32.869595 43.810734 35.91464 C 45.396319 38.946171 47.590013 41.320045 50.382805 43.036261 C 53.180102 44.756981 56.405327 45.617342 60.067488 45.617342 C 62.270191 45.617342 64.472893 45.256981 66.6801 44.531756 C 68.882803 43.797522 70.936856 42.558783 72.837757 40.81554 C 74.743162 39.067793 76.315234 36.720946 77.562982 33.770496 L 87.301719 36.838063 C 85.481899 41.351576 83.144062 44.968693 80.297215 47.684909 C 77.450369 50.387611 74.288207 52.34707 70.81073 53.567791 C 67.346767 54.774998 63.765686 55.378602 60.067488 55.378602 Z M 91.265682 54.000223 L 91.265682 -2.423193 L 136.391803 -2.423193 L 136.391803 7.162392 L 102.067483 7.162392 L 102.067483 21.193921 L 135.031442 21.193921 L 135.031442 30.46419 L 102.067483 30.46419 L 102.067483 44.414639 L 136.391803 44.414639 L 136.391803 54.000223 Z M 142.851261 54.000223 L 142.851261 -2.423193 L 152.85126 -2.423193 L 182.117022 31.504731 L 188.315219 40.302027 L 188.549453 40.22545 L 187.58549 29.576803 L 187.58549 -2.423193 L 198.391794 -2.423193 L 198.391794 54.000223 L 187.427832 54.000223 L 158.085493 19.265994 L 153.166575 11.509238 L 152.770179 11.608337 L 153.815224 20.545273 L 153.815224 54.000223 Z M 224.342241 54.000223 L 224.342241 7.162392 L 202.414316 7.162392 L 202.414316 -2.423193 L 257.481877 -2.423193 L 257.481877 7.162392 L 235.635033 7.162392 L 235.635033 54.000223 Z M 261.589984 54.000223 L 261.589984 -2.423193 L 290.774665 -2.423193 C 293.243133 -2.423193 295.95034 -2.103373 298.905295 -1.459229 C 301.869258 -0.815085 304.504393 0.419149 306.815203 2.238969 C 308.797185 3.856086 310.324212 5.887617 311.400788 8.342572 C 312.477365 10.784013 313.013401 13.26149 313.013401 15.779508 C 313.013401 18.261489 312.436824 20.75248 311.283671 23.261489 C 310.126014 25.752479 308.499888 27.856083 306.400789 29.576803 C 303.662051 31.729956 300.144033 32.910136 295.851241 33.117343 L 313.662049 53.509232 L 313.662049 54.000223 L 301.008898 54.000223 L 283.198089 33.455181 L 272.788181 33.455181 L 272.788181 54.000223 Z M 272.788181 24.261489 L 291.580971 24.261489 C 294.851241 24.261489 297.369259 23.581308 299.139529 22.216444 C 300.923312 20.838066 301.815204 18.666895 301.815204 15.702931 C 301.815204 12.486715 300.738628 10.252481 298.589979 8.99122 C 296.436826 7.72095 293.833223 7.081311 290.774665 7.081311 L 272.788181 7.081311 Z M 312.698086 54.000223 L 341.468352 -2.756526 L 351.229612 -2.756526 L 379.846725 54.000223 L 367.504385 54.000223 L 360.576458 40.459685 L 331.630515 40.459685 L 324.702588 54.000223 Z M 336.310695 31.112839 L 355.896278 31.112839 L 350.265648 18.928156 L 346.38727 8.54077 L 342.198082 19.085814 Z M 382.504383 54.000223 L 382.504383 -2.423193 L 393.860237 -2.423193 L 393.860237 44.31554 L 427.553926 44.31554 L 427.553926 54.000223 Z M 382.504383 54.000223 " stroke="#babab6" stroke-width="1.511526" stroke-opacity="1" stroke-miterlimit="4"/><g fill="#ede7d1" fill-opacity="1"><g transform="translate(13.676945, 162.906056)"><g><path d="M 26.84375 1.1875 C 23.070312 1.1875 19.585938 0.546875 16.390625 -0.734375 C 13.203125 -2.015625 10.441406 -3.804688 8.109375 -6.109375 C 5.773438 -8.421875 3.96875 -11.148438 2.6875 -14.296875 C 1.40625 -17.441406 0.765625 -20.878906 0.765625 -24.609375 C 0.765625 -28.335938 1.40625 -31.757812 2.6875 -34.875 C 3.96875 -38 5.773438 -40.703125 8.109375 -42.984375 C 10.441406 -45.273438 13.203125 -47.046875 16.390625 -48.296875 C 19.585938 -49.554688 23.070312 -50.1875 26.84375 -50.1875 C 30.007812 -50.1875 33.117188 -49.671875 36.171875 -48.640625 C 39.222656 -47.617188 41.960938 -45.976562 44.390625 -43.71875 C 46.816406 -41.457031 48.703125 -38.441406 50.046875 -34.671875 L 42.015625 -31.8125 C 40.941406 -34.375 39.578125 -36.363281 37.921875 -37.78125 C 36.265625 -39.207031 34.476562 -40.210938 32.5625 -40.796875 C 30.65625 -41.378906 28.75 -41.671875 26.84375 -41.671875 C 23.675781 -41.671875 20.878906 -40.945312 18.453125 -39.5 C 16.023438 -38.050781 14.125 -36.046875 12.75 -33.484375 C 11.382812 -30.921875 10.703125 -27.960938 10.703125 -24.609375 C 10.703125 -21.296875 11.382812 -18.320312 12.75 -15.6875 C 14.125 -13.0625 16.023438 -11 18.453125 -9.5 C 20.878906 -8.007812 23.675781 -7.265625 26.84375 -7.265625 C 28.75 -7.265625 30.65625 -7.578125 32.5625 -8.203125 C 34.476562 -8.835938 36.265625 -9.910156 37.921875 -11.421875 C 39.578125 -12.941406 40.941406 -14.984375 42.015625 -17.546875 L 50.46875 -14.890625 C 48.882812 -10.972656 46.859375 -7.835938 44.390625 -5.484375 C 41.921875 -3.128906 39.179688 -1.425781 36.171875 -0.375 C 33.171875 0.664062 30.0625 1.1875 26.84375 1.1875 Z M 26.84375 1.1875 "/></g></g></g><g fill="#ede7d1" fill-opacity="1"><g transform="translate(64.147132, 162.906056)"><g><path d="M 3.421875 0 L 3.421875 -48.9375 L 42.578125 -48.9375 L 42.578125 -40.609375 L 12.796875 -40.609375 L 12.796875 -28.453125 L 41.390625 -28.453125 L 41.390625 -20.40625 L 12.796875 -20.40625 L 12.796875 -8.3125 L 42.578125 -8.3125 L 42.578125 0 Z M 3.421875 0 "/></g></g></g><g fill="#ede7d1" fill-opacity="1"><g transform="translate(108.81533, 162.906056)"><g><path d="M 3.5 0 L 3.5 -48.9375 L 12.15625 -48.9375 L 37.546875 -19.5 L 42.921875 -11.890625 L 43.125 -11.953125 L 42.296875 -21.1875 L 42.296875 -48.9375 L 51.65625 -48.9375 L 51.65625 0 L 42.15625 0 L 16.703125 -30.125 L 12.4375 -36.84375 L 12.09375 -36.765625 L 13 -29.015625 L 13 0 Z M 3.5 0 "/></g></g></g><g fill="#ede7d1" fill-opacity="1"><g transform="translate(164.59817, 162.906056)"><g><path d="M 18.390625 0 L 18.390625 -40.609375 L -0.625 -40.609375 L -0.625 -48.9375 L 47.109375 -48.9375 L 47.109375 -40.609375 L 28.171875 -40.609375 L 28.171875 0 Z M 18.390625 0 "/></g></g></g><g fill="#ede7d1" fill-opacity="1"><g transform="translate(211.782883, 162.906056)"><g><path d="M 3.5 0 L 3.5 -48.9375 L 28.796875 -48.9375 C 30.941406 -48.9375 33.296875 -48.65625 35.859375 -48.09375 C 38.421875 -47.53125 40.707031 -46.457031 42.71875 -44.875 C 44.4375 -43.476562 45.757812 -41.71875 46.6875 -39.59375 C 47.625 -37.476562 48.09375 -35.328125 48.09375 -33.140625 C 48.09375 -30.992188 47.59375 -28.835938 46.59375 -26.671875 C 45.59375 -24.503906 44.179688 -22.675781 42.359375 -21.1875 C 39.984375 -19.320312 36.929688 -18.296875 33.203125 -18.109375 L 48.65625 -0.421875 L 48.65625 0 L 37.671875 0 L 22.234375 -17.828125 L 13.21875 -17.828125 L 13.21875 0 Z M 13.21875 -25.796875 L 29.5 -25.796875 C 32.34375 -25.796875 34.53125 -26.390625 36.0625 -27.578125 C 37.601562 -28.765625 38.375 -30.640625 38.375 -33.203125 C 38.375 -36.003906 37.441406 -37.953125 35.578125 -39.046875 C 33.710938 -40.140625 31.453125 -40.6875 28.796875 -40.6875 L 13.21875 -40.6875 Z M 13.21875 -25.796875 "/></g></g></g><g fill="#ede7d1" fill-opacity="1"><g transform="translate(261.204518, 162.906056)"><g><path d="M -1.609375 0 L 23.34375 -49.21875 L 31.8125 -49.21875 L 56.625 0 L 45.921875 0 L 39.921875 -11.75 L 14.8125 -11.75 L 8.8125 0 Z M 18.875 -19.859375 L 35.859375 -19.859375 L 30.96875 -30.40625 L 27.609375 -39.421875 L 23.984375 -30.265625 Z M 18.875 -19.859375 "/></g></g></g><g fill="#ede7d1" fill-opacity="1"><g transform="translate(316.707754, 162.906056)"><g><path d="M 3.421875 0 L 3.421875 -48.9375 L 13.28125 -48.9375 L 13.28125 -8.390625 L 42.5 -8.390625 L 42.5 0 Z M 3.421875 0 "/></g></g></g><path stroke-linecap="butt" transform="matrix(0.867188, 0, 0, 0.867188, 11.408534, -7.795076)" fill="none" stroke-linejoin="miter" d="M 41.853216 38.826749 L 74.713572 38.826749 L 110.600955 130.939349 L 77.006365 130.939349 L 72.186546 117.44836 L 42.943306 117.44836 L 38.357721 130.939349 L 5.614482 130.939349 Z M 57.875737 71.097015 L 50.290152 93.727643 L 65.222583 93.727643 Z M 158.510859 133.583493 C 148.952301 133.583493 140.992843 131.862773 134.645997 128.412323 C 128.317169 124.943855 123.582935 120.281693 120.447801 114.421334 C 117.335188 108.560974 115.77663 102.029443 115.77663 94.817733 L 115.77663 38.826749 L 146.844193 38.826749 L 146.844193 91.43485 C 146.844193 95.768183 147.880229 99.178092 149.96131 101.664579 C 152.055904 104.155569 155.064913 105.398812 158.983832 105.398812 C 162.920768 105.398812 165.947795 104.155569 168.064911 101.664579 C 170.200046 99.178092 171.267614 95.768183 171.267614 91.43485 L 171.267614 38.826749 L 202.100943 38.826749 L 202.100943 94.817733 C 202.100943 102.029443 200.456799 108.560974 197.164007 114.421334 C 193.871214 120.281693 188.992837 124.943855 182.524369 128.412323 C 176.060406 131.862773 168.055902 133.583493 158.510859 133.583493 Z M 263.821655 130.939349 L 232.785624 130.939349 L 232.785624 64.952872 L 210.267608 64.952872 L 210.267608 38.826749 L 286.335166 38.826749 L 286.335166 64.952872 L 263.821655 64.952872 Z M 342.794618 133.583493 C 335.506331 133.583493 328.763088 132.421331 322.5739 130.087998 C 316.40273 127.754665 311.001829 124.425837 306.380208 120.092504 C 301.772101 115.763676 298.186516 110.569983 295.618949 104.515929 C 293.055886 98.443858 291.772102 91.709625 291.772102 84.322238 C 291.772102 76.957375 293.055886 70.32224 295.618949 64.425845 C 298.186516 58.506927 301.772101 53.443864 306.380208 49.227649 C 311.001829 45.015937 316.40273 41.813235 322.5739 39.619542 C 328.763088 37.403326 335.506331 36.295218 342.794618 36.295218 C 350.105428 36.295218 356.862184 37.403326 363.073895 39.619542 C 369.308128 41.813235 374.745064 45.015937 379.389208 49.227649 C 384.051369 53.443864 387.668486 58.506927 390.236053 64.425845 C 392.799116 70.32224 394.082899 76.957375 394.082899 84.322238 C 394.082899 91.709625 392.799116 98.443858 390.236053 104.515929 C 387.668486 110.569983 384.051369 115.763676 379.389208 120.092504 C 374.745064 124.425837 369.308128 127.754665 363.073895 130.087998 C 356.862184 132.421331 350.105428 133.583493 342.794618 133.583493 Z M 342.794618 104.925839 C 346.321645 104.925839 349.44777 104.047461 352.172995 102.281696 C 354.916238 100.520435 357.069391 98.088002 358.636958 94.993408 C 360.204526 91.898814 360.988309 88.340256 360.988309 84.322238 C 360.988309 78.385302 359.254075 73.615033 355.785607 70.01143 C 352.339662 66.403322 348.006329 64.60152 342.794618 64.60152 C 337.582907 64.60152 333.254079 66.403322 329.803629 70.01143 C 326.353179 73.615033 324.632458 78.385302 324.632458 84.322238 C 324.632458 88.340256 325.416242 91.898814 326.983809 94.993408 C 328.551377 98.088002 330.713538 100.520435 333.479304 102.281696 C 336.240565 104.047461 339.344168 104.925839 342.794618 104.925839 Z M 342.794618 104.925839 " stroke="#371211" stroke-width="1.65539" stroke-opacity="1" stroke-miterlimit="4"/><g fill="#cecdcd" fill-opacity="1"><g transform="translate(18.061489, 104.072126)"><g><path d="M 29.65625 -78.203125 L 58.15625 -78.203125 L 89.265625 1.671875 L 60.140625 1.671875 L 55.96875 -10.015625 L 30.59375 -10.015625 L 26.625 1.671875 L -1.78125 1.671875 Z M 43.53125 -50.21875 L 36.953125 -30.59375 L 49.90625 -30.59375 Z M 43.53125 -50.21875 "/></g></g></g><g fill="#cecdcd" fill-opacity="1"><g transform="translate(105.538325, 104.072126)"><g><path d="M 43.328125 3.96875 C 35.046875 3.96875 28.15625 2.472656 22.65625 -0.515625 C 17.15625 -3.515625 13.046875 -7.550781 10.328125 -12.625 C 7.617188 -17.707031 6.265625 -23.382812 6.265625 -29.65625 L 6.265625 -78.203125 L 33.203125 -78.203125 L 33.203125 -32.578125 C 33.203125 -28.816406 34.101562 -25.859375 35.90625 -23.703125 C 37.71875 -21.546875 40.332031 -20.46875 43.75 -20.46875 C 47.15625 -20.46875 49.78125 -21.546875 51.625 -23.703125 C 53.46875 -25.859375 54.390625 -28.816406 54.390625 -32.578125 L 54.390625 -78.203125 L 81.125 -78.203125 L 81.125 -29.65625 C 81.125 -23.382812 79.695312 -17.707031 76.84375 -12.625 C 73.988281 -7.550781 69.757812 -3.515625 64.15625 -0.515625 C 58.550781 2.472656 51.609375 3.96875 43.328125 3.96875 Z M 43.328125 3.96875 "/></g></g></g><g fill="#cecdcd" fill-opacity="1"><g transform="translate(192.910772, 104.072126)"><g><path d="M 47.296875 1.671875 L 20.359375 1.671875 L 20.359375 -55.546875 L 0.828125 -55.546875 L 0.828125 -78.203125 L 66.8125 -78.203125 L 66.8125 -55.546875 L 47.296875 -55.546875 Z M 47.296875 1.671875 "/></g></g></g><g fill="#cecdcd" fill-opacity="1"><g transform="translate(260.55396, 104.072126)"><g><path d="M 48.125 3.96875 C 41.789062 3.96875 35.941406 2.957031 30.578125 0.9375 C 25.222656 -1.082031 20.546875 -3.96875 16.546875 -7.71875 C 12.546875 -11.476562 9.429688 -15.984375 7.203125 -21.234375 C 4.972656 -26.492188 3.859375 -32.328125 3.859375 -38.734375 C 3.859375 -45.140625 4.972656 -50.898438 7.203125 -56.015625 C 9.429688 -61.128906 12.546875 -65.515625 16.546875 -69.171875 C 20.546875 -72.828125 25.222656 -75.609375 30.578125 -77.515625 C 35.941406 -79.429688 41.789062 -80.390625 48.125 -80.390625 C 54.457031 -80.390625 60.320312 -79.429688 65.71875 -77.515625 C 71.113281 -75.609375 75.828125 -72.828125 79.859375 -69.171875 C 83.898438 -65.515625 87.035156 -61.128906 89.265625 -56.015625 C 91.492188 -50.898438 92.609375 -45.140625 92.609375 -38.734375 C 92.609375 -32.328125 91.492188 -26.492188 89.265625 -21.234375 C 87.035156 -15.984375 83.898438 -11.476562 79.859375 -7.71875 C 75.828125 -3.96875 71.113281 -1.082031 65.71875 0.9375 C 60.320312 2.957031 54.457031 3.96875 48.125 3.96875 Z M 48.125 -20.875 C 51.1875 -20.875 53.898438 -21.640625 56.265625 -23.171875 C 58.640625 -24.703125 60.503906 -26.804688 61.859375 -29.484375 C 63.210938 -32.171875 63.890625 -35.253906 63.890625 -38.734375 C 63.890625 -43.878906 62.394531 -48.019531 59.40625 -51.15625 C 56.414062 -54.289062 52.65625 -55.859375 48.125 -55.859375 C 43.601562 -55.859375 39.84375 -54.289062 36.84375 -51.15625 C 33.851562 -48.019531 32.359375 -43.878906 32.359375 -38.734375 C 32.359375 -35.253906 33.035156 -32.171875 34.390625 -29.484375 C 35.753906 -26.804688 37.632812 -24.703125 40.03125 -23.171875 C 42.4375 -21.640625 45.132812 -20.875 48.125 -20.875 Z M 48.125 -20.875 "/></g></g></g></svg>