<svg xmlns="http://www.w3.org/2000/svg" xmlns:xlink="http://www.w3.org/1999/xlink" width="3000" zoomAndPan="magnify" viewBox="0 0 2250 2250.000011" height="3000" preserveAspectRatio="xMidYMid meet" version="1.0"><defs><g/><clipPath id="51d00ba3d9"><path d="M 0.5 0 L 2249.5 0 L 2249.5 2249 L 0.5 2249 Z M 0.5 0 " clip-rule="nonzero"/></clipPath><clipPath id="7e8d095b19"><path d="M 1125 0 C 503.957031 0 0.5 503.457031 0.5 1124.5 C 0.5 1745.542969 503.957031 2249 1125 2249 C 1746.042969 2249 2249.5 1745.542969 2249.5 1124.5 C 2249.5 503.457031 1746.042969 0 1125 0 Z M 1125 0 " clip-rule="nonzero"/></clipPath><clipPath id="08a9ce7fa9"><path d="M 308.136719 307.636719 L 1941.863281 307.636719 L 1941.863281 1941.363281 L 308.136719 1941.363281 Z M 308.136719 307.636719 " clip-rule="nonzero"/></clipPath><clipPath id="36501d56ec"><path d="M 1125 307.636719 C 673.859375 307.636719 308.136719 673.359375 308.136719 1124.5 C 308.136719 1575.640625 673.859375 1941.363281 1125 1941.363281 C 1576.140625 1941.363281 1941.863281 1575.640625 1941.863281 1124.5 C 1941.863281 673.359375 1576.140625 307.636719 1125 307.636719 Z M 1125 307.636719 " clip-rule="nonzero"/></clipPath><clipPath id="b1d8975c4e"><path d="M 138.394531 137.894531 L 2111.515625 137.894531 L 2111.515625 2111.015625 L 138.394531 2111.015625 Z M 138.394531 137.894531 " clip-rule="nonzero"/></clipPath></defs><path stroke-linecap="butt" transform="matrix(0.160294, 0, 0, 0.160294, 976.948727, 1332.474256)" fill="none" stroke-linejoin="miter" d="M 83.638661 92.154884 L 56.686165 92.154884 L 56.686165 170.989717 L 31.756324 170.989717 L 31.756324 92.154884 L 4.803828 92.154884 L 4.803828 67.225043 L 83.638661 67.225043 Z M 174.974969 67.225043 L 198.125847 67.225043 L 198.125847 127.100526 C 198.125847 140.065017 193.227609 150.885007 183.431132 159.511755 C 174.585059 167.16373 164.642366 170.989717 153.578683 170.989717 C 142.953649 170.989717 133.254649 167.261207 124.530423 159.804187 C 114.417145 151.323655 109.37269 140.308711 109.37269 126.759355 L 109.37269 67.225043 L 132.523569 67.225043 L 132.523569 126.759355 C 132.523569 133.144123 134.814287 138.261686 139.395724 142.112042 C 141.515857 144.012851 144.00153 145.450643 146.877113 146.401047 C 149.338417 147.375821 151.580397 147.838839 153.578683 147.838839 C 155.503862 147.838839 157.892057 147.375821 160.79201 146.401047 C 163.984394 145.133841 166.470067 143.647311 168.273399 141.965826 C 170.612856 139.821324 172.245602 137.701191 173.220376 135.556689 C 174.390104 133.217231 174.974969 130.414757 174.974969 127.100526 Z M 293.141926 67.225043 L 318.047397 67.225043 L 318.047397 170.989717 L 249.203996 120.398956 L 249.203996 170.989717 L 224.298524 170.989717 L 224.298524 67.225043 L 293.141926 120.204001 Z M 341.807509 67.225043 L 366.71298 67.225043 L 366.71298 170.989717 L 341.807509 170.989717 Z M 341.807509 67.225043 " stroke="#6b0000" stroke-width="9.57966" stroke-opacity="1" stroke-miterlimit="4"/><g fill="#6b0000" fill-opacity="1"><g transform="translate(976.948727, 1359.884461)"><g><path d="M 13.40625 -12.640625 L 9.078125 -12.640625 L 9.078125 0 L 5.09375 0 L 5.09375 -12.640625 L 0.765625 -12.640625 L 0.765625 -16.640625 L 13.40625 -16.640625 Z M 13.40625 -12.640625 "/></g></g></g><g fill="#6b0000" fill-opacity="1"><g transform="translate(993.711493, 1359.884461)"><g><path d="M 11.28125 -16.640625 L 15 -16.640625 L 15 -7.03125 C 15 -4.957031 14.210938 -3.226562 12.640625 -1.84375 C 11.222656 -0.613281 9.628906 0 7.859375 0 C 6.148438 0 4.597656 -0.597656 3.203125 -1.796875 C 1.578125 -3.160156 0.765625 -4.925781 0.765625 -7.09375 L 0.765625 -16.640625 L 4.484375 -16.640625 L 4.484375 -7.09375 C 4.484375 -6.0625 4.847656 -5.238281 5.578125 -4.625 C 5.921875 -4.320312 6.320312 -4.09375 6.78125 -3.9375 C 7.175781 -3.789062 7.535156 -3.71875 7.859375 -3.71875 C 8.160156 -3.71875 8.546875 -3.789062 9.015625 -3.9375 C 9.523438 -4.144531 9.925781 -4.382812 10.21875 -4.65625 C 10.59375 -5 10.851562 -5.34375 11 -5.6875 C 11.1875 -6.0625 11.28125 -6.507812 11.28125 -7.03125 Z M 11.28125 -16.640625 "/></g></g></g><g fill="#6b0000" fill-opacity="1"><g transform="translate(1012.29128, 1359.884461)"><g><path d="M 11.640625 -16.640625 L 15.640625 -16.640625 L 15.640625 0 L 4.609375 -8.109375 L 4.609375 0 L 0.609375 0 L 0.609375 -16.640625 L 11.640625 -8.140625 Z M 11.640625 -16.640625 "/></g></g></g><g fill="#6b0000" fill-opacity="1"><g transform="translate(1031.357318, 1359.884461)"><g><path d="M 0.390625 -16.640625 L 4.375 -16.640625 L 4.375 0 L 0.390625 0 Z M 0.390625 -16.640625 "/></g></g></g><g clip-path="url(#51d00ba3d9)"><g clip-path="url(#7e8d095b19)"><path fill="#6b0000" d="M 0.5 0 L 2249.5 0 L 2249.5 2249 L 0.5 2249 Z M 0.5 0 " fill-opacity="1" fill-rule="nonzero"/></g></g><g clip-path="url(#08a9ce7fa9)"><g clip-path="url(#36501d56ec)"><path fill="#000000" d="M 308.136719 307.636719 L 1941.863281 307.636719 L 1941.863281 1941.363281 L 308.136719 1941.363281 Z M 308.136719 307.636719 " fill-opacity="1" fill-rule="nonzero"/></g></g><g clip-path="url(#b1d8975c4e)"><path fill="#ffffff" d="M 1500.859375 929.949219 C 1474.160156 935.625 1450.050781 940.355469 1429.65625 943.730469 C 1427.976562 944.023438 1426.296875 944.285156 1424.628906 944.535156 C 1408.398438 947 1392.378906 947.433594 1376.796875 946 C 1307.472656 939.722656 1246.808594 897.023438 1216.535156 835.515625 C 1205.742188 813.671875 1198.835938 789.4375 1196.710938 763.644531 L 1191.730469 703.078125 L 1170.59375 446.222656 C 1437.578125 461.761719 1663.15625 631.441406 1759.675781 867.609375 C 1671.082031 890.472656 1575.886719 913.980469 1500.859375 929.949219 Z M 1130.484375 1291.277344 C 1038.375 1291.277344 963.6875 1216.605469 963.6875 1124.496094 C 963.6875 1032.386719 1038.375 957.714844 1130.484375 957.714844 C 1222.59375 957.714844 1297.265625 1032.386719 1297.265625 1124.496094 C 1297.265625 1216.605469 1222.59375 1291.277344 1130.484375 1291.277344 Z M 1076.175781 447.164062 C 1071.457031 528.742188 1065.785156 616.164062 1059.539062 690.175781 C 1058.121094 706.933594 1056.6875 722.980469 1055.238281 738.117188 C 1054.839844 742.328125 1054.359375 746.425781 1053.851562 750.464844 C 1049.828125 781.746094 1039.332031 810.417969 1023.929688 835.515625 C 989.074219 892.320312 929.09375 930.753906 862.203125 939.199219 C 836.847656 942.421875 810.5 941.3125 784.140625 935.269531 L 753.910156 928.609375 L 753.894531 928.609375 L 499.304688 872.449219 C 593.015625 637.976562 813.585938 467.941406 1076.175781 447.164062 Z M 471.820312 957.003906 C 547.203125 986.078125 627.148438 1017.882812 692.261719 1046.078125 C 737.414062 1065.65625 775.429688 1083.460938 799.847656 1097.394531 C 802.238281 1098.78125 804.597656 1100.171875 806.910156 1101.605469 C 807.820312 1102.175781 808.726562 1102.746094 809.636719 1103.300781 C 874.121094 1144.273438 903.101562 1220.089844 890.03125 1291.847656 C 886.113281 1313.230469 878.5 1334.226562 866.96875 1353.851562 L 821.863281 1429.015625 L 692.742188 1644.160156 C 544.917969 1519.507812 450.992188 1332.992188 450.992188 1124.496094 C 450.992188 1066.6875 458.238281 1010.589844 471.820312 957.003906 Z M 1130.484375 1803.988281 C 999.929688 1803.988281 878.007812 1767.144531 774.460938 1703.324219 C 831.804688 1636.433594 893.359375 1561.714844 943.984375 1493.4375 C 948.824219 1486.902344 953.574219 1480.414062 958.214844 1473.984375 C 984.527344 1437.605469 1011.445312 1412.878906 1037.742188 1396.660156 C 1078.6875 1371.378906 1118.136719 1366.691406 1151.339844 1370.636719 C 1171.335938 1373.042969 1190.496094 1379.070312 1208.195312 1388.027344 C 1230.777344 1399.527344 1250.972656 1415.867188 1267.421875 1435.675781 L 1310.339844 1487.964844 L 1486.957031 1703.046875 C 1383.316406 1767.035156 1261.222656 1803.988281 1130.484375 1803.988281 Z M 1809.976562 1124.496094 C 1809.976562 1330.664062 1718.128906 1515.375 1573.160156 1639.980469 C 1524.214844 1556.089844 1469.320312 1465.507812 1421.59375 1395.457031 C 1413.992188 1384.28125 1406.5625 1373.628906 1399.363281 1363.609375 C 1372.15625 1325.6875 1358.019531 1292.15625 1352.515625 1262.914062 C 1344.945312 1223.003906 1353.410156 1191.152344 1366.390625 1167.214844 C 1379.308594 1143.378906 1399.269531 1124.328125 1422.84375 1111.128906 C 1428.238281 1108.125 1433.832031 1105.394531 1439.535156 1103.023438 L 1513.917969 1071.992188 L 1789.179688 957.144531 C 1802.746094 1010.683594 1809.976562 1066.734375 1809.976562 1124.496094 Z M 1124.996094 137.894531 C 580.113281 137.894531 138.394531 579.613281 138.394531 1124.496094 C 138.394531 1669.378906 580.113281 2111.097656 1124.996094 2111.097656 C 1669.878906 2111.097656 2111.597656 1669.378906 2111.597656 1124.496094 C 2111.597656 579.613281 1669.878906 137.894531 1124.996094 137.894531 " fill-opacity="1" fill-rule="nonzero"/></g></svg>