<svg xmlns="http://www.w3.org/2000/svg" xmlns:xlink="http://www.w3.org/1999/xlink" width="500" zoomAndPan="magnify" viewBox="0 0 375 187.499995" height="250" preserveAspectRatio="xMidYMid meet" version="1.0"><defs><g/><clipPath id="3fff5a72c3"><path d="M 143 79.066406 L 171 79.066406 L 171 108 L 143 108 Z M 143 79.066406 " clip-rule="nonzero"/></clipPath></defs><g fill="#cecdcd" fill-opacity="1"><g transform="translate(185.297308, 108.599079)"><g><path d="M 15.25 0.671875 C 13.101562 0.671875 11.125 0.304688 9.3125 -0.421875 C 7.5 -1.148438 5.929688 -2.164062 4.609375 -3.46875 C 3.285156 -4.78125 2.257812 -6.328125 1.53125 -8.109375 C 0.800781 -9.898438 0.4375 -11.851562 0.4375 -13.96875 C 0.4375 -16.09375 0.800781 -18.039062 1.53125 -19.8125 C 2.257812 -21.582031 3.285156 -23.113281 4.609375 -24.40625 C 5.929688 -25.707031 7.5 -26.710938 9.3125 -27.421875 C 11.125 -28.140625 13.101562 -28.5 15.25 -28.5 C 17.050781 -28.5 18.816406 -28.207031 20.546875 -27.625 C 22.273438 -27.050781 23.828125 -26.117188 25.203125 -24.828125 C 26.585938 -23.546875 27.660156 -21.832031 28.421875 -19.6875 L 23.859375 -18.0625 C 23.253906 -19.519531 22.476562 -20.648438 21.53125 -21.453125 C 20.59375 -22.265625 19.582031 -22.832031 18.5 -23.15625 C 17.414062 -23.488281 16.332031 -23.65625 15.25 -23.65625 C 13.445312 -23.65625 11.859375 -23.242188 10.484375 -22.421875 C 9.109375 -21.609375 8.03125 -20.472656 7.25 -19.015625 C 6.46875 -17.554688 6.078125 -15.875 6.078125 -13.96875 C 6.078125 -12.09375 6.46875 -10.40625 7.25 -8.90625 C 8.03125 -7.414062 9.109375 -6.242188 10.484375 -5.390625 C 11.859375 -4.546875 13.445312 -4.125 15.25 -4.125 C 16.332031 -4.125 17.414062 -4.300781 18.5 -4.65625 C 19.582031 -5.019531 20.59375 -5.628906 21.53125 -6.484375 C 22.476562 -7.347656 23.253906 -8.507812 23.859375 -9.96875 L 28.671875 -8.453125 C 27.765625 -6.234375 26.609375 -4.453125 25.203125 -3.109375 C 23.804688 -1.773438 22.253906 -0.8125 20.546875 -0.21875 C 18.835938 0.375 17.070312 0.671875 15.25 0.671875 Z M 15.25 0.671875 "/></g></g></g><g fill="#cecdcd" fill-opacity="1"><g transform="translate(211.897871, 108.599079)"><g><path d="M 1.953125 0 L 1.953125 -27.796875 L 24.171875 -27.796875 L 24.171875 -23.0625 L 7.265625 -23.0625 L 7.265625 -16.15625 L 23.5 -16.15625 L 23.5 -11.59375 L 7.265625 -11.59375 L 7.265625 -4.71875 L 24.171875 -4.71875 L 24.171875 0 Z M 1.953125 0 "/></g></g></g><g fill="#cecdcd" fill-opacity="1"><g transform="translate(235.203107, 108.599079)"><g><path d="M 1.984375 0 L 1.984375 -27.796875 L 6.90625 -27.796875 L 21.328125 -11.078125 L 24.375 -6.75 L 24.5 -6.796875 L 24.015625 -12.03125 L 24.015625 -27.796875 L 29.34375 -27.796875 L 29.34375 0 L 23.9375 0 L 9.484375 -17.109375 L 7.0625 -20.921875 L 6.875 -20.890625 L 7.390625 -16.484375 L 7.390625 0 Z M 1.984375 0 "/></g></g></g><g fill="#cecdcd" fill-opacity="1"><g transform="translate(264.821078, 108.599079)"><g><path d="M 10.4375 0 L 10.4375 -23.0625 L -0.359375 -23.0625 L -0.359375 -27.796875 L 26.765625 -27.796875 L 26.765625 -23.0625 L 16 -23.0625 L 16 0 Z M 10.4375 0 "/></g></g></g><g fill="#cecdcd" fill-opacity="1"><g transform="translate(289.555609, 108.599079)"><g><path d="M 1.984375 0 L 1.984375 -27.796875 L 16.359375 -27.796875 C 17.578125 -27.796875 18.910156 -27.632812 20.359375 -27.3125 C 21.816406 -27 23.117188 -26.390625 24.265625 -25.484375 C 25.242188 -24.691406 25.992188 -23.691406 26.515625 -22.484375 C 27.046875 -21.285156 27.3125 -20.0625 27.3125 -18.8125 C 27.3125 -17.601562 27.023438 -16.378906 26.453125 -15.140625 C 25.890625 -13.910156 25.09375 -12.875 24.0625 -12.03125 C 22.707031 -10.96875 20.972656 -10.382812 18.859375 -10.28125 L 27.640625 -0.234375 L 27.640625 0 L 21.40625 0 L 12.625 -10.125 L 7.5 -10.125 L 7.5 0 Z M 7.5 -14.65625 L 16.75 -14.65625 C 18.363281 -14.65625 19.609375 -14.988281 20.484375 -15.65625 C 21.359375 -16.332031 21.796875 -17.398438 21.796875 -18.859375 C 21.796875 -20.441406 21.265625 -21.546875 20.203125 -22.171875 C 19.148438 -22.796875 17.867188 -23.109375 16.359375 -23.109375 L 7.5 -23.109375 Z M 7.5 -14.65625 "/></g></g></g><g fill="#cecdcd" fill-opacity="1"><g transform="translate(315.560628, 108.599079)"><g><path d="M -0.90625 0 L 13.265625 -27.953125 L 18.0625 -27.953125 L 32.15625 0 L 26.078125 0 L 22.671875 -6.671875 L 8.421875 -6.671875 L 5 0 Z M 10.71875 -11.28125 L 20.375 -11.28125 L 17.59375 -17.265625 L 15.6875 -22.390625 L 13.625 -17.1875 Z M 10.71875 -11.28125 "/></g></g></g><g fill="#cecdcd" fill-opacity="1"><g transform="translate(345.019784, 108.599079)"><g><path d="M 1.953125 0 L 1.953125 -27.796875 L 7.546875 -27.796875 L 7.546875 -4.765625 L 24.140625 -4.765625 L 24.140625 0 Z M 1.953125 0 "/></g></g></g><g fill="#fff9f9" fill-opacity="1"><g transform="translate(4.586937, 114.586564)"><g><path d="M 17.390625 2.390625 C 15.691406 2.390625 13.945312 2.144531 12.15625 1.65625 C 10.363281 1.164062 8.707031 0.367188 7.1875 -0.734375 C 5.675781 -1.835938 4.457031 -3.269531 3.53125 -5.03125 C 2.613281 -6.800781 2.15625 -8.992188 2.15625 -11.609375 C 2.15625 -14.585938 2.894531 -17.035156 4.375 -18.953125 C 5.863281 -20.878906 7.828125 -22.378906 10.265625 -23.453125 C 12.703125 -24.535156 15.367188 -25.296875 18.265625 -25.734375 C 21.160156 -26.171875 24.019531 -26.390625 26.84375 -26.390625 L 27.609375 -26.390625 L 27.609375 -26.53125 C 27.609375 -27.863281 27.144531 -28.835938 26.21875 -29.453125 C 25.300781 -30.078125 24.097656 -30.390625 22.609375 -30.390625 C 20.867188 -30.390625 19.191406 -30.03125 17.578125 -29.3125 C 15.960938 -28.59375 14.566406 -27.71875 13.390625 -26.6875 L 3.84375 -36.15625 C 6.457031 -38.71875 9.597656 -40.691406 13.265625 -42.078125 C 16.929688 -43.460938 20.710938 -44.15625 24.609375 -44.15625 C 28.765625 -44.15625 32.203125 -43.578125 34.921875 -42.421875 C 37.640625 -41.265625 39.78125 -39.648438 41.34375 -37.578125 C 42.90625 -35.503906 44.003906 -33.117188 44.640625 -30.421875 C 45.285156 -27.734375 45.609375 -24.847656 45.609375 -21.765625 L 45.609375 1.234375 L 28.234375 1.234375 L 28.234375 -2.234375 L 28.078125 -2.234375 C 27.003906 -0.585938 25.425781 0.59375 23.34375 1.3125 C 21.269531 2.03125 19.285156 2.390625 17.390625 2.390625 Z M 22.765625 -9.15625 C 24.566406 -9.15625 26.03125 -9.726562 27.15625 -10.875 C 28.28125 -12.03125 28.84375 -13.535156 28.84375 -15.390625 L 28.84375 -16.84375 L 27.765625 -16.84375 C 24.941406 -16.84375 22.671875 -16.535156 20.953125 -15.921875 C 19.242188 -15.304688 18.390625 -14.175781 18.390625 -12.53125 C 18.390625 -11.351562 18.890625 -10.492188 19.890625 -9.953125 C 20.890625 -9.421875 21.847656 -9.15625 22.765625 -9.15625 Z M 22.765625 -9.15625 "/></g></g></g><g fill="#fff9f9" fill-opacity="1"><g transform="translate(48.895847, 114.586564)"><g><path d="M 19.390625 2.390625 C 16.304688 2.390625 13.75 1.847656 11.71875 0.765625 C 9.695312 -0.304688 8.109375 -1.726562 6.953125 -3.5 C 5.804688 -5.269531 4.988281 -7.226562 4.5 -9.375 C 4.007812 -11.53125 3.765625 -13.6875 3.765625 -15.84375 L 3.765625 -42.453125 L 23 -42.453125 L 23 -19.390625 C 23 -17.179688 23.359375 -15.628906 24.078125 -14.734375 C 24.796875 -13.835938 25.820312 -13.390625 27.15625 -13.390625 C 28.4375 -13.390625 29.472656 -13.910156 30.265625 -14.953125 C 31.066406 -16.003906 31.46875 -17.484375 31.46875 -19.390625 L 31.46875 -42.453125 L 50.6875 -42.453125 L 50.6875 1.234375 L 32 1.234375 L 32 -3.609375 L 31.84375 -3.609375 C 30.769531 -2.023438 29.113281 -0.628906 26.875 0.578125 C 24.644531 1.785156 22.148438 2.390625 19.390625 2.390625 Z M 19.390625 2.390625 "/></g></g></g><g fill="#fff9f9" fill-opacity="1"><g transform="translate(99.204988, 114.586564)"><g><path d="M 23.46875 2.390625 C 17.613281 2.390625 13.265625 1.117188 10.421875 -1.421875 C 7.578125 -3.960938 6.15625 -7.875 6.15625 -13.15625 L 6.15625 -28.765625 L 0 -28.765625 L 0 -42.453125 L 6.078125 -42.453125 L 6.078125 -52.3125 L 24.6875 -52.3125 L 24.6875 -42.453125 L 34.15625 -42.453125 L 34.15625 -28.765625 L 24.6875 -28.765625 L 24.6875 -17.15625 C 24.6875 -15.050781 25.148438 -13.613281 26.078125 -12.84375 C 27.003906 -12.070312 28.257812 -11.6875 29.84375 -11.6875 C 30.457031 -11.6875 31.097656 -11.75 31.765625 -11.875 C 32.429688 -12.007812 32.945312 -12.128906 33.3125 -12.234375 L 33.3125 0.921875 C 32.332031 1.285156 30.929688 1.617188 29.109375 1.921875 C 27.296875 2.234375 25.414062 2.390625 23.46875 2.390625 Z M 23.46875 2.390625 "/></g></g></g><g fill="#fff9f9" fill-opacity="1"><g transform="translate(129.436442, 114.586564)"><g><path d="M 27.46875 2.921875 C 24.175781 2.921875 21.039062 2.394531 18.0625 1.34375 C 15.09375 0.289062 12.453125 -1.242188 10.140625 -3.265625 C 7.835938 -5.296875 6.019531 -7.785156 4.6875 -10.734375 C 3.351562 -13.679688 2.6875 -17.023438 2.6875 -20.765625 C 2.6875 -24.515625 3.351562 -27.835938 4.6875 -30.734375 C 6.019531 -33.628906 7.835938 -36.078125 10.140625 -38.078125 C 12.453125 -40.078125 15.09375 -41.585938 18.0625 -42.609375 C 21.039062 -43.640625 24.175781 -44.15625 27.46875 -44.15625 C 30.800781 -44.15625 33.960938 -43.640625 36.953125 -42.609375 C 39.953125 -41.585938 42.617188 -40.078125 44.953125 -38.078125 C 47.285156 -36.078125 49.128906 -33.628906 50.484375 -30.734375 C 51.847656 -27.835938 52.53125 -24.515625 52.53125 -20.765625 C 52.53125 -17.023438 51.847656 -13.679688 50.484375 -10.734375 C 49.128906 -7.785156 47.285156 -5.296875 44.953125 -3.265625 C 42.617188 -1.242188 39.953125 0.289062 36.953125 1.34375 C 33.960938 2.394531 30.800781 2.921875 27.46875 2.921875 Z M 27.609375 -13.390625 C 29.710938 -13.390625 31.414062 -14.101562 32.71875 -15.53125 C 34.03125 -16.96875 34.6875 -18.710938 34.6875 -20.765625 C 34.6875 -22.710938 34.003906 -24.40625 32.640625 -25.84375 C 31.285156 -27.28125 29.5625 -28 27.46875 -28 C 25.414062 -28 23.734375 -27.28125 22.421875 -25.84375 C 21.117188 -24.40625 20.46875 -22.710938 20.46875 -20.765625 C 20.46875 -18.710938 21.144531 -16.96875 22.5 -15.53125 C 23.851562 -14.101562 25.554688 -13.390625 27.609375 -13.390625 Z M 27.609375 -13.390625 "/></g></g></g><path fill="#ffffff" d="M 157 84.609375 C 157.59375 84.609375 158.179688 84.667969 158.765625 84.78125 C 159.347656 84.898438 159.910156 85.070312 160.460938 85.296875 C 161.007812 85.523438 161.53125 85.800781 162.023438 86.132812 C 162.515625 86.460938 162.972656 86.835938 163.394531 87.257812 C 163.8125 87.675781 164.1875 88.132812 164.519531 88.628906 C 164.847656 89.121094 165.128906 89.640625 165.355469 90.191406 C 165.582031 90.738281 165.753906 91.304688 165.871094 91.886719 C 165.984375 92.46875 166.042969 93.058594 166.042969 93.652344 C 166.042969 94.246094 165.984375 94.832031 165.871094 95.417969 C 165.753906 96 165.582031 96.5625 165.355469 97.113281 C 165.128906 97.660156 164.847656 98.183594 164.519531 98.675781 C 164.1875 99.167969 163.8125 99.625 163.394531 100.046875 C 162.972656 100.464844 162.515625 100.839844 162.023438 101.171875 C 161.53125 101.5 161.007812 101.78125 160.460938 102.007812 C 159.910156 102.234375 159.347656 102.40625 158.765625 102.519531 C 158.179688 102.636719 157.59375 102.695312 157 102.695312 C 156.40625 102.695312 155.816406 102.636719 155.234375 102.519531 C 154.652344 102.40625 154.085938 102.234375 153.539062 102.007812 C 152.988281 101.78125 152.46875 101.5 151.976562 101.171875 C 151.480469 100.839844 151.023438 100.464844 150.605469 100.046875 C 150.183594 99.625 149.808594 99.167969 149.480469 98.675781 C 149.148438 98.183594 148.871094 97.660156 148.644531 97.113281 C 148.417969 96.5625 148.246094 96 148.128906 95.417969 C 148.015625 94.832031 147.957031 94.246094 147.957031 93.652344 C 147.957031 93.058594 148.015625 92.46875 148.128906 91.886719 C 148.246094 91.304688 148.417969 90.738281 148.644531 90.191406 C 148.871094 89.640625 149.148438 89.121094 149.480469 88.628906 C 149.808594 88.132812 150.183594 87.675781 150.605469 87.257812 C 151.023438 86.835938 151.480469 86.460938 151.976562 86.132812 C 152.46875 85.800781 152.988281 85.523438 153.539062 85.296875 C 154.085938 85.070312 154.652344 84.898438 155.234375 84.78125 C 155.816406 84.667969 156.40625 84.609375 157 84.609375 Z M 157 84.609375 " fill-opacity="1" fill-rule="nonzero"/><path stroke-linecap="butt" transform="matrix(0.455816, 0, 0, 0.455816, 142.413464, 79.065677)" fill-opacity="1" fill="#371211" fill-rule="nonzero" stroke-linejoin="miter" d="M 25.205099 32.001238 C 25.205099 26.370878 29.764233 21.803175 35.403162 21.803175 C 38.05123 21.803175 40.347937 22.694434 42.293282 24.494092 C 39.970866 21.323266 36.234433 19.249374 32.000951 19.249374 C 24.956574 19.249374 19.249087 24.956861 19.249087 32.001238 C 19.249087 39.037044 24.956574 44.753102 32.000951 44.753102 C 36.234433 44.753102 39.979436 42.67921 42.293282 39.499814 C 40.347937 41.299472 38.05123 42.199301 35.403162 42.199301 C 29.764233 42.199301 25.205099 37.631597 25.205099 32.001238 " stroke="#371211" stroke-width="0.001" stroke-opacity="1" stroke-miterlimit="4"/><path stroke-linecap="butt" transform="matrix(0.455816, 0, 0, 0.455816, 142.413464, 79.065677)" fill-opacity="1" fill="#371211" fill-rule="nonzero" stroke-linejoin="miter" d="M 36.302991 29.224622 L 33.037897 24.725477 L 33.037897 30.287278 L 27.750329 32.001238 L 33.037897 33.715198 L 33.037897 39.276999 L 36.302991 34.777853 L 41.590558 36.491814 L 38.316894 32.001238 L 41.590558 27.502092 Z M 36.302991 29.224622 " stroke="#371211" stroke-width="0.001" stroke-opacity="1" stroke-miterlimit="4"/><g clip-path="url(#3fff5a72c3)"><path stroke-linecap="butt" transform="matrix(0.455816, 0, 0, 0.455816, 142.413464, 79.065677)" fill-opacity="1" fill="#371211" fill-rule="nonzero" stroke-linejoin="miter" d="M 32.000951 1.998364 C 15.435525 1.998364 1.998077 15.435812 1.998077 32.001238 C 1.998077 48.566663 15.435525 62.004111 32.000951 62.004111 C 48.566376 62.004111 62.003824 48.566663 62.003824 32.001238 C 62.003824 15.435812 48.566376 1.998364 32.000951 1.998364 Z M 32.000951 48.995153 C 22.608449 48.995153 14.998466 41.38517 14.998466 32.001238 C 14.998466 22.608736 22.608449 14.998752 32.000951 14.998752 C 41.384883 14.998752 48.994866 22.608736 48.994866 32.001238 C 48.994866 41.38517 41.384883 48.995153 32.000951 48.995153 Z M 32.000951 48.995153 " stroke="#371211" stroke-width="0.001" stroke-opacity="1" stroke-miterlimit="4"/></g></svg>