<svg xmlns="http://www.w3.org/2000/svg" xmlns:xlink="http://www.w3.org/1999/xlink" width="1024" zoomAndPan="magnify" viewBox="0 0 768 458.999989" height="612" preserveAspectRatio="xMidYMid meet" version="1.0"><defs><g/><clipPath id="6946ee926f"><path d="M 476.585938 235.199219 L 645.335938 235.199219 L 645.335938 403.949219 L 476.585938 403.949219 Z M 476.585938 235.199219 " clip-rule="nonzero"/></clipPath></defs><g fill="#ffffff" fill-opacity="1"><g transform="translate(154.889142, 455.822975)"><g><path d="M 12.625 -40.046875 L 24.625 -20.5 L 36.671875 -40.046875 L 47.234375 -40.046875 L 47.234375 -34.671875 L 44.421875 -34.671875 L 44.421875 -5.4375 L 47.234375 -5.4375 L 47.234375 0 L 34.609375 0 L 34.609375 -5.4375 L 37.546875 -5.4375 L 37.546875 -31.234375 L 25.75 -12.5625 L 23.5 -12.5625 L 11.75 -31.234375 L 11.75 -5.4375 L 14.625 -5.4375 L 14.625 0 L 2 0 L 2 -5.4375 L 4.875 -5.4375 L 4.875 -34.671875 L 2 -34.671875 L 2 -40.109375 Z M 12.625 -40.046875 "/></g></g></g><g fill="#ffffff" fill-opacity="1"><g transform="translate(206.870498, 455.822975)"><g><path d="M 18.625 -40.046875 L 25.75 -40.046875 L 40.234375 -5.4375 L 43.234375 -5.4375 L 43.234375 0 L 29.8125 0 L 29.8125 -5.4375 L 32.984375 -5.4375 L 30.0625 -13.1875 L 14.3125 -13.1875 L 11.375 -5.4375 L 14.625 -5.4375 L 14.625 0 L 1.1875 0 L 1.1875 -5.4375 L 4.1875 -5.4375 Z M 16.1875 -18.0625 L 28.1875 -18.0625 L 22.1875 -33.921875 Z M 16.1875 -18.0625 "/></g></g></g><g fill="#ffffff" fill-opacity="1"><g transform="translate(253.978666, 455.822975)"><g><path d="M 14.3125 0 L 2 0 L 2 -5.4375 L 4.875 -5.4375 L 4.875 -34.671875 L 2 -34.671875 L 2 -40.046875 L 20.625 -40.046875 C 22.832031 -40.046875 24.820312 -39.617188 26.59375 -38.765625 C 28.363281 -37.910156 29.765625 -36.671875 30.796875 -35.046875 C 31.835938 -33.421875 32.359375 -31.445312 32.359375 -29.125 C 32.359375 -26.25 31.566406 -23.914062 29.984375 -22.125 C 28.410156 -20.332031 26.394531 -19.144531 23.9375 -18.5625 L 31.921875 -5.4375 L 35.234375 -5.4375 L 35.234375 0 L 27.75 0 L 16.875 -18.1875 L 11.75 -18.1875 L 11.75 -5.4375 L 14.3125 -5.4375 Z M 11.75 -22.1875 L 18.75 -22.1875 C 20.75 -22.1875 22.375 -22.757812 23.625 -23.90625 C 24.875 -25.050781 25.5 -26.5625 25.5 -28.4375 C 25.5 -30.257812 24.882812 -31.753906 23.65625 -32.921875 C 22.425781 -34.085938 20.789062 -34.671875 18.75 -34.671875 L 11.75 -34.671875 Z M 11.75 -22.1875 "/></g></g></g><g fill="#ffffff" fill-opacity="1"><g transform="translate(293.08981, 455.822975)"><g><path d="M 27.25 -40.046875 L 41.109375 -40.046875 L 41.109375 -34.671875 L 38.171875 -34.671875 L 24.625 -23.125 L 38.234375 -5.4375 L 41.234375 -5.4375 L 41.234375 0 L 34.109375 0 L 19.6875 -18.875 L 11.625 -12 L 11.625 -5.4375 L 14.5 -5.4375 L 14.5 0 L 1.875 0 L 1.875 -5.4375 L 4.6875 -5.4375 L 4.6875 -34.671875 L 1.875 -34.671875 L 1.875 -40.109375 L 14.5 -40.046875 L 14.5 -34.609375 L 11.625 -34.671875 L 11.625 -18.6875 L 30.0625 -34.671875 L 27.25 -34.671875 Z M 27.25 -40.046875 "/></g></g></g><g fill="#ffffff" fill-opacity="1"><g transform="translate(337.948818, 455.822975)"><g><path d="M 2 -40.046875 L 32.359375 -40.046875 L 32.359375 -31.484375 L 27.5 -31.484375 L 27.25 -34.671875 L 11.75 -34.671875 L 11.75 -22.75 L 23.8125 -22.75 L 23.8125 -17.3125 L 11.75 -17.3125 L 11.75 -5.4375 L 27.25 -5.4375 L 27.5 -8.625 L 32.359375 -8.625 L 32.359375 0 L 2 0 L 2 -5.4375 L 4.875 -5.4375 L 4.875 -34.671875 L 2 -34.671875 Z M 2 -40.046875 "/></g></g></g><g fill="#ffffff" fill-opacity="1"><g transform="translate(374.18603, 455.822975)"><g><path d="M 1.1875 -40.109375 L 34.921875 -40.046875 L 34.921875 -30.9375 L 29.8125 -30.9375 L 29.5 -34.609375 L 21.5 -34.671875 L 21.5 -5.4375 L 24.3125 -5.4375 L 24.3125 0 L 11.75 0 L 11.75 -5.4375 L 14.625 -5.4375 L 14.625 -34.671875 L 6.5625 -34.609375 L 6.3125 -30.9375 L 1.1875 -30.9375 Z M 1.1875 -40.109375 "/></g></g></g><g fill="#ffffff" fill-opacity="1"><g transform="translate(412.984788, 455.822975)"><g><path d="M 14.3125 0 L 2 0 L 2 -5.4375 L 4.875 -5.4375 L 4.875 -34.671875 L 2 -34.671875 L 2 -40.046875 L 23.5 -40.046875 C 25.707031 -40.046875 27.691406 -39.554688 29.453125 -38.578125 C 31.222656 -37.597656 32.628906 -36.191406 33.671875 -34.359375 C 34.710938 -32.523438 35.234375 -30.300781 35.234375 -27.6875 C 35.234375 -25.101562 34.710938 -22.875 33.671875 -21 C 32.628906 -19.125 31.222656 -17.6875 29.453125 -16.6875 C 27.691406 -15.6875 25.707031 -15.1875 23.5 -15.1875 L 11.75 -15.1875 L 11.75 -5.4375 L 14.3125 -5.4375 Z M 11.75 -20.625 L 21.625 -20.625 C 23.625 -20.625 25.25 -21.269531 26.5 -22.5625 C 27.75 -23.851562 28.375 -25.5625 28.375 -27.6875 C 28.375 -29.769531 27.757812 -31.453125 26.53125 -32.734375 C 25.300781 -34.023438 23.664062 -34.671875 21.625 -34.671875 L 11.75 -34.671875 Z M 11.75 -20.625 "/></g></g></g><g fill="#ffffff" fill-opacity="1"><g transform="translate(452.095932, 455.822975)"><g><path d="M 2 -40.046875 L 14.625 -40.046875 L 14.625 -34.671875 L 11.75 -34.671875 L 11.75 -5.4375 L 27.25 -5.4375 L 27.5 -8.625 L 32.359375 -8.625 L 32.359375 0 L 2 0 L 2 -5.4375 L 4.875 -5.4375 L 4.875 -34.671875 L 2 -34.671875 Z M 2 -40.046875 "/></g></g></g><g fill="#ffffff" fill-opacity="1"><g transform="translate(488.333144, 455.822975)"><g><path d="M 18.625 -40.046875 L 25.75 -40.046875 L 40.234375 -5.4375 L 43.234375 -5.4375 L 43.234375 0 L 29.8125 0 L 29.8125 -5.4375 L 32.984375 -5.4375 L 30.0625 -13.1875 L 14.3125 -13.1875 L 11.375 -5.4375 L 14.625 -5.4375 L 14.625 0 L 1.1875 0 L 1.1875 -5.4375 L 4.1875 -5.4375 Z M 16.1875 -18.0625 L 28.1875 -18.0625 L 22.1875 -33.921875 Z M 16.1875 -18.0625 "/></g></g></g><g fill="#ffffff" fill-opacity="1"><g transform="translate(535.441312, 455.822975)"><g><path d="M 39.796875 -6.9375 C 39.796875 -6.9375 39.492188 -6.550781 38.890625 -5.78125 C 38.285156 -5.007812 37.316406 -4.101562 35.984375 -3.0625 C 34.648438 -2.019531 32.910156 -1.113281 30.765625 -0.34375 C 28.628906 0.425781 26.019531 0.8125 22.9375 0.8125 C 18.476562 0.8125 14.78125 -0.125 11.84375 -2 C 8.90625 -3.875 6.71875 -6.382812 5.28125 -9.53125 C 3.84375 -12.675781 3.125 -16.1875 3.125 -20.0625 C 3.125 -23.9375 3.84375 -27.453125 5.28125 -30.609375 C 6.71875 -33.773438 8.90625 -36.296875 11.84375 -38.171875 C 14.78125 -40.046875 18.476562 -40.984375 22.9375 -40.984375 C 25.769531 -40.984375 28.171875 -40.609375 30.140625 -39.859375 C 32.117188 -39.109375 33.742188 -38.242188 35.015625 -37.265625 C 36.285156 -36.285156 37.210938 -35.421875 37.796875 -34.671875 C 38.378906 -33.921875 38.671875 -33.546875 38.671875 -33.546875 L 38.671875 -27.875 L 33.484375 -27.875 L 32.734375 -32.671875 C 31.734375 -33.378906 30.460938 -34.023438 28.921875 -34.609375 C 27.390625 -35.191406 25.582031 -35.484375 23.5 -35.484375 C 20.457031 -35.484375 17.9375 -34.785156 15.9375 -33.390625 C 13.9375 -31.992188 12.457031 -30.128906 11.5 -27.796875 C 10.539062 -25.472656 10.0625 -22.894531 10.0625 -20.0625 C 10.0625 -17.226562 10.570312 -14.632812 11.59375 -12.28125 C 12.613281 -9.925781 14.15625 -8.050781 16.21875 -6.65625 C 18.28125 -5.257812 20.894531 -4.5625 24.0625 -4.5625 C 26.3125 -4.5625 28.265625 -4.90625 29.921875 -5.59375 C 31.585938 -6.28125 32.960938 -7.0625 34.046875 -7.9375 C 35.128906 -8.8125 35.941406 -9.59375 36.484375 -10.28125 C 37.023438 -10.96875 37.296875 -11.3125 37.296875 -11.3125 Z M 39.796875 -6.9375 "/></g></g></g><g fill="#ffffff" fill-opacity="1"><g transform="translate(579.675547, 455.822975)"><g><path d="M 2 -40.046875 L 32.359375 -40.046875 L 32.359375 -31.484375 L 27.5 -31.484375 L 27.25 -34.671875 L 11.75 -34.671875 L 11.75 -22.75 L 23.8125 -22.75 L 23.8125 -17.3125 L 11.75 -17.3125 L 11.75 -5.4375 L 27.25 -5.4375 L 27.5 -8.625 L 32.359375 -8.625 L 32.359375 0 L 2 0 L 2 -5.4375 L 4.875 -5.4375 L 4.875 -34.671875 L 2 -34.671875 Z M 2 -40.046875 "/></g></g></g><path stroke-linecap="butt" transform="matrix(2.022767, 0, 0, 2.022767, 6.399952, -86.02659)" fill="none" stroke-linejoin="miter" d="M 83.650518 92.144055 L 56.67633 92.144055 L 56.67633 171.000297 L 31.768464 171.000297 L 31.768464 92.144055 L 4.794276 92.144055 L 4.794276 67.236189 L 83.650518 67.236189 Z M 174.972279 67.236189 L 198.126668 67.236189 L 198.126668 127.109307 C 198.126668 140.076924 193.227362 150.873937 183.43068 159.500348 C 174.595706 167.16698 164.642602 171.000297 153.573298 171.000297 C 142.944293 171.000297 133.26348 167.271262 124.532788 159.813192 C 114.423261 151.316169 109.369463 140.297074 109.369463 126.75784 L 109.369463 67.236189 L 132.523853 67.236189 L 132.523853 126.75784 C 132.523853 133.15185 134.810324 138.269375 139.383268 142.11621 C 141.515249 144.012591 144.010284 145.441636 146.868373 146.403344 C 149.336373 147.365053 151.572635 147.845907 153.573298 147.845907 C 155.494784 147.845907 157.899055 147.365053 160.784181 146.403344 C 163.98022 145.130722 166.475255 143.649536 168.267355 141.959787 C 170.605968 139.829738 172.257094 137.697757 173.218802 135.567708 C 174.387143 133.229095 174.972279 130.409629 174.972279 127.109307 Z M 293.144635 67.236189 L 318.052501 67.236189 L 318.052501 171.000297 L 249.215023 120.404383 L 249.215023 171.000297 L 224.307157 171.000297 L 224.307157 67.236189 L 293.144635 120.209338 Z M 341.809406 67.236189 L 366.717272 67.236189 L 366.717272 171.000297 L 341.809406 171.000297 Z M 341.809406 67.236189 " stroke="#6b0000" stroke-width="9.57966" stroke-opacity="1" stroke-miterlimit="4"/><g fill="#6b0000" fill-opacity="1"><g transform="translate(6.399952, 259.866588)"><g><path d="M 169.234375 -159.53125 L 114.640625 -159.53125 L 114.640625 0 L 64.265625 0 L 64.265625 -159.53125 L 9.6875 -159.53125 L 9.6875 -209.921875 L 169.234375 -209.921875 Z M 169.234375 -159.53125 "/></g></g></g><g fill="#6b0000" fill-opacity="1"><g transform="translate(217.93162, 259.866588)"><g><path d="M 142.421875 -209.921875 L 189.25 -209.921875 L 189.25 -88.8125 C 189.25 -62.539062 179.34375 -40.6875 159.53125 -23.25 C 141.664062 -7.75 121.535156 0 99.140625 0 C 77.609375 0 58.019531 -7.535156 40.375 -22.609375 C 19.914062 -39.828125 9.6875 -62.109375 9.6875 -89.453125 L 9.6875 -209.921875 L 56.515625 -209.921875 L 56.515625 -89.453125 C 56.515625 -76.535156 61.144531 -66.203125 70.40625 -58.453125 C 74.707031 -54.578125 79.765625 -51.671875 85.578125 -49.734375 C 90.535156 -47.796875 95.054688 -46.828125 99.140625 -46.828125 C 103.015625 -46.828125 107.859375 -47.796875 113.671875 -49.734375 C 120.140625 -52.316406 125.203125 -55.332031 128.859375 -58.78125 C 133.597656 -63.082031 136.9375 -67.390625 138.875 -71.703125 C 141.238281 -76.429688 142.421875 -82.132812 142.421875 -88.8125 Z M 142.421875 -209.921875 "/></g></g></g><g fill="#6b0000" fill-opacity="1"><g transform="translate(452.39254, 259.866588)"><g><path d="M 146.9375 -209.921875 L 197.328125 -209.921875 L 197.328125 0 L 58.125 -102.375 L 58.125 0 L 7.75 0 L 7.75 -209.921875 L 146.9375 -102.703125 Z M 146.9375 -209.921875 "/></g></g></g><g fill="#6b0000" fill-opacity="1"><g transform="translate(692.989509, 259.866588)"><g><path d="M 4.84375 -209.921875 L 55.21875 -209.921875 L 55.21875 0 L 4.84375 0 Z M 4.84375 -209.921875 "/></g></g></g><path stroke-linecap="butt" transform="matrix(1.867206, 0, 0, 1.867206, 11.619405, 207.674094)" fill="none" stroke-linejoin="miter" d="M 34.268352 28.324895 L 46.125976 28.324895 L 70.247079 85.960314 L 75.221926 85.960314 L 75.221926 94.999975 L 52.879048 94.999975 L 52.879048 85.960314 L 58.186528 85.960314 L 53.284902 73.062951 L 27.082229 73.062951 L 22.180604 85.960314 L 27.590593 85.960314 L 27.590593 94.999975 L 5.245623 94.999975 L 5.245623 85.960314 L 10.222562 85.960314 Z M 30.20563 64.937507 L 50.161502 64.937507 L 40.184612 38.531908 Z M 128.807176 87.407999 C 133.934741 87.407999 137.989095 86.096296 140.968145 83.472891 C 143.947195 80.832749 145.436721 77.295127 145.436721 72.860024 L 145.436721 37.28715 L 140.637604 37.28715 L 140.637604 28.222385 L 161.559994 28.324895 L 161.559994 37.28715 L 156.863387 37.28715 L 156.863387 72.860024 C 156.863387 77.498054 155.704403 81.58588 153.384342 85.123502 C 151.066373 88.661125 147.790254 91.420512 143.558078 93.399572 C 139.325902 95.363988 134.409632 96.34515 128.807176 96.34515 C 123.185892 96.34515 118.261254 95.397461 114.029078 93.502082 C 109.796902 91.589966 106.495679 88.880788 104.127501 85.376638 C 101.773968 81.872488 100.598247 77.700981 100.598247 72.860024 L 100.598247 37.28715 L 95.824235 37.28715 L 95.824235 28.222385 L 116.821938 28.324895 L 116.821938 37.38966 L 112.047926 37.28715 L 112.047926 72.860024 C 112.047926 77.295127 113.570923 80.832749 116.619011 83.472891 C 119.665006 86.096296 123.727728 87.407999 128.807176 87.407999 Z M 182.358954 28.222385 L 238.521584 28.324895 L 238.521584 43.508847 L 229.990287 43.508847 L 229.45682 37.38966 L 216.153602 37.28715 L 216.153602 85.960314 L 220.825105 85.960314 L 220.825105 94.999975 L 199.92782 94.999975 L 199.92782 85.960314 L 204.701832 85.960314 L 204.701832 37.28715 L 191.296105 37.38966 L 190.890251 43.508847 L 182.358954 43.508847 Z M 182.358954 28.222385 " stroke="#000000" stroke-width="7.8" stroke-opacity="1" stroke-miterlimit="4"/><path stroke-linecap="butt" transform="matrix(1.867206, 0, 0, 1.867206, 11.619405, 207.674094)" fill="none" stroke-linejoin="miter" d="M 394.003328 48.305871 L 386.411352 48.305871 L 386.005498 42.061162 C 384.549445 40.469127 382.534821 38.879185 379.963716 37.28715 C 377.407256 35.695116 374.250383 34.900144 370.493097 34.900144 C 367.242083 34.900144 364.627046 35.661643 362.645894 37.184641 C 360.666834 38.70973 359.675212 40.858245 359.675212 43.634368 C 359.675212 45.360293 360.191943 46.85191 361.225406 48.102944 C 362.273513 49.339334 363.840443 50.548527 365.922012 51.734708 L 386.005498 62.144648 C 389.815084 64.073499 392.58284 66.360088 394.308764 69.000229 C 396.051425 71.640371 396.923801 74.688458 396.923801 78.140307 C 396.923801 81.96663 395.934271 85.249024 393.953119 87.991675 C 391.971967 90.71759 389.21258 92.790792 385.674957 94.213372 C 382.154071 95.63386 378.10181 96.34515 373.513988 96.34515 C 369.01194 96.34515 365.143777 95.728001 361.909499 94.491612 C 358.69405 93.240578 356.079012 91.784525 354.064388 90.125546 C 352.066499 88.44983 350.59371 86.993777 349.646021 85.757387 C 348.715068 84.504262 348.250637 83.878745 348.250637 83.878745 L 348.250637 75.042011 L 355.842613 75.042011 L 356.145957 79.816023 C 356.907456 80.849486 358.032968 82.041943 359.522493 83.395486 C 361.012019 84.751121 362.934594 85.918474 365.288127 86.899636 C 367.656305 87.866153 370.509834 88.34732 373.844529 88.34732 C 377.365415 88.34732 380.183379 87.619294 382.298421 86.163241 C 384.415555 84.709281 385.47203 82.694656 385.47203 80.121459 C 385.47203 78.529425 385.057809 77.073372 384.229365 75.753301 C 383.398829 74.43323 381.875831 73.155 379.65828 71.920703 L 360.208679 61.71369 C 356.04554 59.563083 353.005821 57.26185 351.093706 54.805807 C 349.198327 52.33512 348.250637 49.297493 348.250637 45.690834 C 348.250637 39.952396 350.221329 35.366667 354.166897 31.929462 C 358.12711 28.494349 363.468062 26.774701 370.187661 26.774701 C 374.419837 26.774701 378.041141 27.40231 381.053664 28.653343 C 384.068278 29.889733 386.530598 31.345786 388.442713 33.021501 C 390.35692 34.680481 391.760672 36.136534 392.658153 37.38966 C 393.555633 38.640693 394.003328 39.268302 394.003328 39.268302 Z M 394.003328 48.305871 " stroke="#000000" stroke-width="7.8" stroke-opacity="1" stroke-miterlimit="4"/><g fill="#ffffff" fill-opacity="1"><g transform="translate(17.716999, 385.058641)"><g><path d="M 57.875 -124.46875 L 80 -124.46875 L 125.0625 -16.890625 L 134.375 -16.890625 L 134.375 0 L 92.625 0 L 92.625 -16.890625 L 102.53125 -16.890625 L 93.40625 -40.96875 L 44.46875 -40.96875 L 35.34375 -16.890625 L 45.4375 -16.890625 L 45.4375 0 L 3.6875 0 L 3.6875 -16.890625 L 13.015625 -16.890625 Z M 50.296875 -56.125 L 87.578125 -56.125 L 68.9375 -105.4375 Z M 50.296875 -56.125 "/></g></g></g><g fill="#ffffff" fill-opacity="1"><g transform="translate(184.331636, 385.058641)"><g><path d="M 67.765625 -14.171875 C 77.347656 -14.171875 84.921875 -16.628906 90.484375 -21.546875 C 96.054688 -26.472656 98.84375 -33.078125 98.84375 -41.359375 L 98.84375 -107.78125 L 89.90625 -107.78125 L 89.90625 -124.671875 L 128.9375 -124.46875 L 128.9375 -107.78125 L 120.203125 -107.78125 L 120.203125 -41.359375 C 120.203125 -32.679688 118.03125 -25.039062 113.6875 -18.4375 C 109.351562 -11.84375 103.238281 -6.695312 95.34375 -3 C 87.445312 0.6875 78.253906 2.53125 67.765625 2.53125 C 57.285156 2.53125 48.09375 0.75 40.1875 -2.8125 C 32.289062 -6.375 26.140625 -11.421875 21.734375 -17.953125 C 17.335938 -24.492188 15.140625 -32.296875 15.140625 -41.359375 L 15.140625 -107.78125 L 6.21875 -107.78125 L 6.21875 -124.671875 L 45.4375 -124.46875 L 45.4375 -107.578125 L 36.5 -107.78125 L 36.5 -41.359375 C 36.5 -33.078125 39.347656 -26.472656 45.046875 -21.546875 C 50.742188 -16.628906 58.316406 -14.171875 67.765625 -14.171875 Z M 67.765625 -14.171875 "/></g></g></g><g fill="#ffffff" fill-opacity="1"><g transform="translate(348.421801, 385.058641)"><g><path d="M 3.6875 -124.671875 L 108.546875 -124.46875 L 108.546875 -96.125 L 92.625 -96.125 L 91.65625 -107.578125 L 66.796875 -107.78125 L 66.796875 -16.890625 L 75.53125 -16.890625 L 75.53125 0 L 36.5 0 L 36.5 -16.890625 L 45.4375 -16.890625 L 45.4375 -107.78125 L 20.390625 -107.578125 L 19.609375 -96.125 L 3.6875 -96.125 Z M 3.6875 -124.671875 "/></g></g></g><g fill="#ffffff" fill-opacity="1"><g transform="translate(489.215628, 385.058641)"><g/></g></g><g fill="#ffffff" fill-opacity="1"><g transform="translate(571.551978, 385.058641)"><g/></g></g><g fill="#ffffff" fill-opacity="1"><g transform="translate(653.90902, 385.058641)"><g><path d="M 93.40625 -87.1875 L 79.234375 -87.1875 L 78.453125 -98.84375 C 75.734375 -101.820312 71.976562 -104.796875 67.1875 -107.765625 C 62.394531 -110.742188 56.503906 -112.234375 49.515625 -112.234375 C 43.429688 -112.234375 38.546875 -110.8125 34.859375 -107.96875 C 31.171875 -105.125 29.328125 -101.109375 29.328125 -95.921875 C 29.328125 -92.691406 30.296875 -89.910156 32.234375 -87.578125 C 34.171875 -85.242188 37.082031 -82.976562 40.96875 -80.78125 L 78.453125 -61.359375 C 85.566406 -57.734375 90.742188 -53.460938 93.984375 -48.546875 C 97.222656 -43.628906 98.84375 -37.929688 98.84375 -31.453125 C 98.84375 -24.335938 96.992188 -18.222656 93.296875 -13.109375 C 89.609375 -7.992188 84.460938 -4.109375 77.859375 -1.453125 C 71.265625 1.203125 63.695312 2.53125 55.15625 2.53125 C 46.738281 2.53125 39.519531 1.363281 33.5 -0.96875 C 27.476562 -3.300781 22.585938 -6.019531 18.828125 -9.125 C 15.078125 -12.226562 12.328125 -14.945312 10.578125 -17.28125 C 8.835938 -19.613281 7.96875 -20.78125 7.96875 -20.78125 L 7.96875 -37.28125 L 22.140625 -37.28125 L 22.71875 -28.34375 C 24.144531 -26.40625 26.25 -24.171875 29.03125 -21.640625 C 31.8125 -19.117188 35.398438 -16.953125 39.796875 -15.140625 C 44.203125 -13.328125 49.515625 -12.421875 55.734375 -12.421875 C 62.335938 -12.421875 67.613281 -13.78125 71.5625 -16.5 C 75.507812 -19.21875 77.484375 -22.972656 77.484375 -27.765625 C 77.484375 -30.742188 76.703125 -33.460938 75.140625 -35.921875 C 73.585938 -38.378906 70.742188 -40.773438 66.609375 -43.109375 L 30.296875 -62.140625 C 22.523438 -66.148438 16.859375 -70.453125 13.296875 -75.046875 C 9.742188 -79.648438 7.96875 -85.316406 7.96875 -92.046875 C 7.96875 -102.785156 11.65625 -111.359375 19.03125 -117.765625 C 26.40625 -124.179688 36.375 -127.390625 48.9375 -127.390625 C 56.832031 -127.390625 63.59375 -126.222656 69.21875 -123.890625 C 74.851562 -121.554688 79.453125 -118.835938 83.015625 -115.734375 C 86.578125 -112.628906 89.195312 -109.910156 90.875 -107.578125 C 92.5625 -105.242188 93.40625 -104.078125 93.40625 -104.078125 Z M 93.40625 -87.1875 "/></g></g></g><g clip-path="url(#6946ee926f)"><path fill="#ffffff" d="M 593.316406 303.058594 C 591.027344 303.542969 588.960938 303.949219 587.214844 304.238281 C 587.070312 304.265625 586.925781 304.285156 586.785156 304.308594 C 585.394531 304.519531 584.019531 304.554688 582.6875 304.433594 C 576.746094 303.894531 571.550781 300.238281 568.957031 294.96875 C 568.03125 293.097656 567.4375 291.019531 567.257812 288.8125 L 566.832031 283.621094 L 565.019531 261.613281 C 587.894531 262.945312 607.21875 277.484375 615.488281 297.71875 C 607.898438 299.675781 599.742188 301.691406 593.316406 303.058594 Z M 561.582031 334.015625 C 553.691406 334.015625 547.292969 327.617188 547.292969 319.726562 C 547.292969 311.835938 553.691406 305.4375 561.582031 305.4375 C 569.472656 305.4375 575.871094 311.835938 575.871094 319.726562 C 575.871094 327.617188 569.472656 334.015625 561.582031 334.015625 Z M 556.929688 261.695312 C 556.527344 268.683594 556.039062 276.175781 555.503906 282.515625 C 555.382812 283.953125 555.261719 285.328125 555.136719 286.625 C 555.101562 286.984375 555.0625 287.335938 555.019531 287.679688 C 554.671875 290.359375 553.773438 292.816406 552.453125 294.96875 C 549.46875 299.835938 544.328125 303.128906 538.597656 303.851562 C 536.425781 304.128906 534.167969 304.03125 531.910156 303.515625 L 529.320312 302.945312 L 507.507812 298.132812 C 515.535156 278.042969 534.433594 263.476562 556.929688 261.695312 Z M 505.152344 305.375 C 511.609375 307.867188 518.460938 310.59375 524.039062 313.007812 C 527.90625 314.683594 531.164062 316.210938 533.253906 317.40625 C 533.460938 317.523438 533.664062 317.640625 533.859375 317.765625 C 533.9375 317.8125 534.015625 317.863281 534.09375 317.910156 C 539.621094 321.421875 542.101562 327.917969 540.980469 334.0625 C 540.648438 335.894531 539.996094 337.695312 539.007812 339.375 L 535.140625 345.816406 L 524.078125 364.25 C 511.414062 353.570312 503.367188 337.589844 503.367188 319.726562 C 503.367188 314.773438 503.988281 309.96875 505.152344 305.375 Z M 561.582031 377.941406 C 550.398438 377.941406 539.953125 374.785156 531.082031 369.316406 C 535.992188 363.585938 541.265625 357.183594 545.605469 351.335938 C 546.019531 350.777344 546.425781 350.21875 546.824219 349.667969 C 549.078125 346.550781 551.382812 344.433594 553.636719 343.042969 C 557.144531 340.878906 560.523438 340.476562 563.371094 340.816406 C 565.082031 341.019531 566.726562 341.539062 568.242188 342.304688 C 570.175781 343.289062 571.90625 344.691406 573.316406 346.386719 L 576.992188 350.867188 L 592.125 369.292969 C 583.246094 374.777344 572.785156 377.941406 561.582031 377.941406 Z M 619.796875 319.726562 C 619.796875 337.390625 611.929688 353.214844 599.507812 363.890625 C 595.316406 356.703125 590.613281 348.941406 586.523438 342.941406 C 585.871094 341.984375 585.234375 341.070312 584.621094 340.210938 C 582.289062 336.964844 581.078125 334.089844 580.605469 331.585938 C 579.957031 328.164062 580.683594 325.4375 581.792969 323.386719 C 582.902344 321.34375 584.613281 319.710938 586.632812 318.582031 C 587.09375 318.324219 587.574219 318.089844 588.0625 317.886719 L 594.433594 315.226562 L 618.015625 305.386719 C 619.179688 309.976562 619.796875 314.777344 619.796875 319.726562 Z M 561.113281 235.199219 C 514.429688 235.199219 476.585938 273.042969 476.585938 319.726562 C 476.585938 366.410156 514.429688 404.253906 561.113281 404.253906 C 607.796875 404.253906 645.640625 366.410156 645.640625 319.726562 C 645.640625 273.042969 607.796875 235.199219 561.113281 235.199219 " fill-opacity="1" fill-rule="nonzero"/></g></svg>