<svg xmlns="http://www.w3.org/2000/svg" xmlns:xlink="http://www.w3.org/1999/xlink" width="500" zoomAndPan="magnify" viewBox="0 0 375 374.999991" height="500" preserveAspectRatio="xMidYMid meet" version="1.0"><defs><filter x="0%" y="0%" width="100%" height="100%" id="2dc162cdc3"><feColorMatrix values="0 0 0 0 1 0 0 0 0 1 0 0 0 0 1 0 0 0 1 0" color-interpolation-filters="sRGB"/></filter><g/><mask id="fe19d67702"><g filter="url(#2dc162cdc3)"><rect x="-37.5" width="450" fill="#000000" y="-37.499999" height="449.999989" fill-opacity="0.9"/></g></mask><clipPath id="62f6d1617e"><path d="M 1 1 L 21.691406 1 L 21.691406 22 L 1 22 Z M 1 1 " clip-rule="nonzero"/></clipPath><clipPath id="5a292775a6"><rect x="0" width="23" y="0" height="24"/></clipPath></defs><rect x="-37.5" width="450" fill="#ffffff" y="-37.499999" height="449.999989" fill-opacity="1"/><rect x="-37.5" width="450" fill="#f9f9fa" y="-37.499999" height="449.999989" fill-opacity="1"/><g fill="#151515" fill-opacity="1"><g transform="translate(0.63433, 188.645731)"><g><path d="M -1.140625 0 L 16.546875 -34.875 L 22.546875 -34.875 L 40.140625 0 L 32.546875 0 L 28.296875 -8.328125 L 10.5 -8.328125 L 6.25 0 Z M 13.375 -14.078125 L 25.421875 -14.078125 L 21.953125 -21.546875 L 19.578125 -27.9375 L 17 -21.453125 Z M 13.375 -14.078125 "/></g></g></g><g fill="#151515" fill-opacity="1"><g transform="translate(37.793734, 188.645731)"><g><path d="M 20.265625 0.546875 C 18.046875 0.546875 15.867188 0.148438 13.734375 -0.640625 C 11.609375 -1.429688 9.695312 -2.617188 8 -4.203125 C 6.300781 -5.796875 4.945312 -7.78125 3.9375 -10.15625 C 2.925781 -12.53125 2.421875 -15.304688 2.421875 -18.484375 L 2.421875 -34.6875 L 9.3125 -34.6875 L 9.3125 -18.484375 C 9.3125 -15.546875 9.847656 -13.09375 10.921875 -11.125 C 11.992188 -9.15625 13.363281 -7.679688 15.03125 -6.703125 C 16.707031 -5.734375 18.4375 -5.25 20.21875 -5.25 C 22.03125 -5.25 23.757812 -5.734375 25.40625 -6.703125 C 27.0625 -7.679688 28.425781 -9.15625 29.5 -11.125 C 30.570312 -13.09375 31.109375 -15.546875 31.109375 -18.484375 L 31.109375 -34.6875 L 38 -34.6875 L 38 -18.484375 C 38 -15.304688 37.492188 -12.53125 36.484375 -10.15625 C 35.484375 -7.78125 34.140625 -5.796875 32.453125 -4.203125 C 30.765625 -2.617188 28.863281 -1.429688 26.75 -0.640625 C 24.632812 0.148438 22.472656 0.546875 20.265625 0.546875 Z M 20.265625 0.546875 "/></g></g></g><g fill="#151515" fill-opacity="1"><g transform="translate(76.786368, 188.645731)"><g><path d="M 13.03125 0 L 13.03125 -28.78125 L -0.453125 -28.78125 L -0.453125 -34.6875 L 33.390625 -34.6875 L 33.390625 -28.78125 L 19.96875 -28.78125 L 19.96875 0 Z M 13.03125 0 "/></g></g></g><g fill="#151515" fill-opacity="1"><g transform="translate(108.04969, 188.645731)"><g><path d="M 19.171875 0.5 C 16.523438 0.5 14.085938 0.0625 11.859375 -0.8125 C 9.628906 -1.6875 7.695312 -2.929688 6.0625 -4.546875 C 4.425781 -6.171875 3.15625 -8.082031 2.25 -10.28125 C 1.34375 -12.476562 0.890625 -14.878906 0.890625 -17.484375 C 0.890625 -20.097656 1.34375 -22.492188 2.25 -24.671875 C 3.15625 -26.847656 4.425781 -28.738281 6.0625 -30.34375 C 7.695312 -31.945312 9.628906 -33.1875 11.859375 -34.0625 C 14.085938 -34.9375 16.523438 -35.375 19.171875 -35.375 C 21.847656 -35.375 24.300781 -34.9375 26.53125 -34.0625 C 28.757812 -33.1875 30.691406 -31.945312 32.328125 -30.34375 C 33.960938 -28.738281 35.222656 -26.847656 36.109375 -24.671875 C 37.003906 -22.492188 37.453125 -20.097656 37.453125 -17.484375 C 37.453125 -14.878906 37.003906 -12.476562 36.109375 -10.28125 C 35.222656 -8.082031 33.960938 -6.171875 32.328125 -4.546875 C 30.691406 -2.929688 28.757812 -1.6875 26.53125 -0.8125 C 24.300781 0.0625 21.847656 0.5 19.171875 0.5 Z M 19.171875 -5.40625 C 21.421875 -5.40625 23.40625 -5.929688 25.125 -6.984375 C 26.84375 -8.046875 28.179688 -9.484375 29.140625 -11.296875 C 30.097656 -13.109375 30.578125 -15.171875 30.578125 -17.484375 C 30.578125 -19.796875 30.097656 -21.859375 29.140625 -23.671875 C 28.179688 -25.492188 26.84375 -26.925781 25.125 -27.96875 C 23.40625 -29.007812 21.421875 -29.53125 19.171875 -29.53125 C 16.960938 -29.53125 15 -29.007812 13.28125 -27.96875 C 11.5625 -26.925781 10.222656 -25.492188 9.265625 -23.671875 C 8.304688 -21.859375 7.828125 -19.796875 7.828125 -17.484375 C 7.828125 -15.171875 8.304688 -13.109375 9.265625 -11.296875 C 10.222656 -9.484375 11.5625 -8.046875 13.28125 -6.984375 C 15 -5.929688 16.960938 -5.40625 19.171875 -5.40625 Z M 19.171875 -5.40625 "/></g></g></g><g fill="#151515" fill-opacity="1"><g transform="translate(144.862264, 188.645731)"><g><path d="M 19.03125 0.84375 C 16.351562 0.84375 13.878906 0.390625 11.609375 -0.515625 C 9.347656 -1.421875 7.390625 -2.691406 5.734375 -4.328125 C 4.085938 -5.960938 2.8125 -7.894531 1.90625 -10.125 C 1 -12.363281 0.546875 -14.800781 0.546875 -17.4375 C 0.546875 -20.082031 1 -22.507812 1.90625 -24.71875 C 2.8125 -26.9375 4.085938 -28.851562 5.734375 -30.46875 C 7.390625 -32.09375 9.347656 -33.347656 11.609375 -34.234375 C 13.878906 -35.128906 16.351562 -35.578125 19.03125 -35.578125 C 21.269531 -35.578125 23.472656 -35.210938 25.640625 -34.484375 C 27.804688 -33.753906 29.742188 -32.585938 31.453125 -30.984375 C 33.171875 -29.390625 34.507812 -27.253906 35.46875 -24.578125 L 29.78125 -22.546875 C 29.019531 -24.359375 28.050781 -25.769531 26.875 -26.78125 C 25.707031 -27.789062 24.445312 -28.5 23.09375 -28.90625 C 21.738281 -29.320312 20.382812 -29.53125 19.03125 -29.53125 C 16.78125 -29.53125 14.796875 -29.015625 13.078125 -27.984375 C 11.359375 -26.960938 10.007812 -25.546875 9.03125 -23.734375 C 8.0625 -21.921875 7.578125 -19.820312 7.578125 -17.4375 C 7.578125 -15.09375 8.0625 -12.988281 9.03125 -11.125 C 10.007812 -9.257812 11.359375 -7.796875 13.078125 -6.734375 C 14.796875 -5.679688 16.78125 -5.15625 19.03125 -5.15625 C 20.382812 -5.15625 21.738281 -5.375 23.09375 -5.8125 C 24.445312 -6.257812 25.707031 -7.019531 26.875 -8.09375 C 28.050781 -9.175781 29.019531 -10.625 29.78125 -12.4375 L 35.765625 -10.546875 C 34.648438 -7.773438 33.21875 -5.554688 31.46875 -3.890625 C 29.71875 -2.222656 27.773438 -1.015625 25.640625 -0.265625 C 23.503906 0.472656 21.300781 0.84375 19.03125 0.84375 Z M 19.03125 0.84375 "/></g></g></g><g fill="#151515" fill-opacity="1"><g transform="translate(178.454288, 188.645731)"><g><path d="M 2.421875 0 L 2.421875 -34.6875 L 30.171875 -34.6875 L 30.171875 -28.78125 L 9.0625 -28.78125 L 9.0625 -20.171875 L 29.328125 -20.171875 L 29.328125 -14.46875 L 9.0625 -14.46875 L 9.0625 -5.890625 L 30.171875 -5.890625 L 30.171875 0 Z M 2.421875 0 "/></g></g></g><g fill="#151515" fill-opacity="1"><g transform="translate(207.933923, 188.645731)"><g><path d="M 2.484375 0 L 2.484375 -34.6875 L 8.625 -34.6875 L 26.609375 -13.828125 L 30.421875 -8.421875 L 30.578125 -8.46875 L 29.96875 -15.015625 L 29.96875 -34.6875 L 36.609375 -34.6875 L 36.609375 0 L 29.875 0 L 11.84375 -21.359375 L 8.8125 -26.109375 L 8.578125 -26.0625 L 9.21875 -20.5625 L 9.21875 0 Z M 2.484375 0 "/></g></g></g><g fill="#151515" fill-opacity="1"><g transform="translate(245.291511, 188.645731)"><g><path d="M 13.03125 0 L 13.03125 -28.78125 L -0.453125 -28.78125 L -0.453125 -34.6875 L 33.390625 -34.6875 L 33.390625 -28.78125 L 19.96875 -28.78125 L 19.96875 0 Z M 13.03125 0 "/></g></g></g><g fill="#151515" fill-opacity="1"><g transform="translate(276.554845, 188.645731)"><g><path d="M 2.484375 0 L 2.484375 -34.6875 L 20.40625 -34.6875 C 21.925781 -34.6875 23.59375 -34.488281 25.40625 -34.09375 C 27.226562 -33.695312 28.847656 -32.9375 30.265625 -31.8125 C 31.492188 -30.820312 32.4375 -29.570312 33.09375 -28.0625 C 33.757812 -26.5625 34.09375 -25.035156 34.09375 -23.484375 C 34.09375 -21.960938 33.734375 -20.429688 33.015625 -18.890625 C 32.304688 -17.359375 31.3125 -16.066406 30.03125 -15.015625 C 28.34375 -13.691406 26.175781 -12.960938 23.53125 -12.828125 L 34.484375 -0.296875 L 34.484375 0 L 26.703125 0 L 15.75 -12.640625 L 9.359375 -12.640625 L 9.359375 0 Z M 9.359375 -18.28125 L 20.90625 -18.28125 C 22.925781 -18.28125 24.476562 -18.703125 25.5625 -19.546875 C 26.65625 -20.390625 27.203125 -21.71875 27.203125 -23.53125 C 27.203125 -25.507812 26.539062 -26.890625 25.21875 -27.671875 C 23.894531 -28.453125 22.289062 -28.84375 20.40625 -28.84375 L 9.359375 -28.84375 Z M 9.359375 -18.28125 "/></g></g></g><g fill="#151515" fill-opacity="1"><g transform="translate(309.403666, 188.645731)"><g><path d="M -1.140625 0 L 16.546875 -34.875 L 22.546875 -34.875 L 40.140625 0 L 32.546875 0 L 28.296875 -8.328125 L 10.5 -8.328125 L 6.25 0 Z M 13.375 -14.078125 L 25.421875 -14.078125 L 21.953125 -21.546875 L 19.578125 -27.9375 L 17 -21.453125 Z M 13.375 -14.078125 "/></g></g></g><g fill="#151515" fill-opacity="1"><g transform="translate(346.563064, 188.645731)"><g><path d="M 2.421875 0 L 2.421875 -34.6875 L 9.40625 -34.6875 L 9.40625 -5.953125 L 30.125 -5.953125 L 30.125 0 Z M 2.421875 0 "/></g></g></g><g mask="url(#fe19d67702)"><g transform="matrix(1, 0, 0, 1, 256, 210)"><g clip-path="url(#5a292775a6)"><path fill="#ffffff" d="M 11.019531 5.050781 C 11.453125 5.050781 11.886719 5.09375 12.3125 5.179688 C 12.738281 5.261719 13.152344 5.386719 13.550781 5.554688 C 13.953125 5.722656 14.335938 5.925781 14.695312 6.167969 C 15.058594 6.40625 15.390625 6.683594 15.699219 6.988281 C 16.007812 7.296875 16.28125 7.628906 16.523438 7.992188 C 16.761719 8.351562 16.96875 8.734375 17.132812 9.136719 C 17.300781 9.535156 17.425781 9.949219 17.511719 10.375 C 17.59375 10.804688 17.636719 11.234375 17.636719 11.667969 C 17.636719 12.101562 17.59375 12.53125 17.511719 12.957031 C 17.425781 13.382812 17.300781 13.796875 17.132812 14.199219 C 16.96875 14.601562 16.761719 14.984375 16.523438 15.34375 C 16.28125 15.703125 16.007812 16.039062 15.699219 16.347656 C 15.390625 16.652344 15.058594 16.929688 14.695312 17.167969 C 14.335938 17.410156 13.953125 17.613281 13.550781 17.78125 C 13.152344 17.945312 12.738281 18.074219 12.3125 18.15625 C 11.886719 18.242188 11.453125 18.285156 11.019531 18.285156 C 10.585938 18.285156 10.15625 18.242188 9.730469 18.15625 C 9.304688 18.074219 8.890625 17.945312 8.488281 17.78125 C 8.085938 17.613281 7.707031 17.410156 7.34375 17.167969 C 6.984375 16.929688 6.648438 16.652344 6.339844 16.347656 C 6.035156 16.039062 5.761719 15.703125 5.519531 15.34375 C 5.277344 14.984375 5.074219 14.601562 4.90625 14.199219 C 4.742188 13.796875 4.617188 13.382812 4.53125 12.957031 C 4.445312 12.53125 4.402344 12.101562 4.402344 11.667969 C 4.402344 11.234375 4.445312 10.804688 4.53125 10.375 C 4.617188 9.949219 4.742188 9.535156 4.90625 9.136719 C 5.074219 8.734375 5.277344 8.351562 5.519531 7.992188 C 5.761719 7.628906 6.035156 7.296875 6.339844 6.988281 C 6.648438 6.683594 6.984375 6.40625 7.34375 6.167969 C 7.707031 5.925781 8.085938 5.722656 8.488281 5.554688 C 8.890625 5.386719 9.304688 5.261719 9.730469 5.179688 C 10.15625 5.09375 10.585938 5.050781 11.019531 5.050781 Z M 11.019531 5.050781 " fill-opacity="1" fill-rule="nonzero"/><path stroke-linecap="butt" transform="matrix(0.333505, 0, 0, 0.333505, 0.348376, 0.995582)" fill-opacity="1" fill="#371211" fill-rule="nonzero" stroke-linejoin="miter" d="M 25.20358 32.000643 C 25.20358 26.366832 29.771535 21.798878 35.393633 21.798878 C 38.052417 21.798878 40.348107 22.700756 42.292416 24.4928 C 39.973301 21.318657 36.236948 19.245508 31.996949 19.245508 C 24.957614 19.245508 19.253527 24.961308 19.253527 32.000643 C 19.253527 39.039978 24.957614 44.744065 31.996949 44.744065 C 36.236948 44.744065 39.973301 42.670917 42.292416 39.496774 C 40.348107 41.30053 38.052417 42.202408 35.393633 42.202408 C 29.771535 42.202408 25.20358 37.634454 25.20358 32.000643 " stroke="#371211" stroke-width="0.001" stroke-opacity="1" stroke-miterlimit="4"/><path stroke-linecap="butt" transform="matrix(0.333505, 0, 0, 0.333505, 0.348376, 0.995582)" fill-opacity="1" fill="#371211" fill-rule="nonzero" stroke-linejoin="miter" d="M 36.307224 29.224732 L 33.03938 24.727054 L 33.03938 30.278875 L 27.745237 32.000643 L 33.03938 33.722411 L 33.03938 39.274232 L 36.307224 34.776554 L 41.589654 36.498321 L 38.321809 32.000643 L 41.589654 27.502965 Z M 36.307224 29.224732 " stroke="#371211" stroke-width="0.001" stroke-opacity="1" stroke-miterlimit="4"/><g clip-path="url(#62f6d1617e)"><path stroke-linecap="butt" transform="matrix(0.333505, 0, 0, 0.333505, 0.348376, 0.995582)" fill-opacity="1" fill="#371211" fill-rule="nonzero" stroke-linejoin="miter" d="M 31.996949 2.004407 C 15.435185 2.004407 2.000713 15.427166 2.000713 32.000643 C 2.000713 48.562407 15.435185 61.996879 31.996949 61.996879 C 48.570425 61.996879 62.004897 48.562407 62.004897 32.000643 C 62.004897 15.427166 48.570425 2.004407 31.996949 2.004407 Z M 31.996949 48.995777 C 22.615073 48.995777 15.001815 41.382519 15.001815 32.000643 C 15.001815 22.607054 22.615073 15.005509 31.996949 15.005509 C 41.390538 15.005509 48.992083 22.607054 48.992083 32.000643 C 48.992083 41.382519 41.390538 48.995777 31.996949 48.995777 Z M 31.996949 48.995777 " stroke="#371211" stroke-width="0.001" stroke-opacity="1" stroke-miterlimit="4"/></g></g></g></g><g fill="#cecdcd" fill-opacity="1"><g transform="translate(99.828769, 229.999145)"><g><path d="M 1.484375 0 L 1.484375 -20.78125 L 5.484375 -20.78125 L 13.59375 -10.125 L 21.734375 -20.78125 L 25.65625 -20.78125 L 25.65625 0 L 21.515625 0 L 21.515625 -11.546875 L 21.671875 -14.609375 L 14.6875 -5.484375 L 12.40625 -5.484375 L 5.46875 -14.515625 L 5.609375 -11.40625 L 5.609375 0 Z M 1.484375 0 "/></g></g></g><g fill="#cecdcd" fill-opacity="1"><g transform="translate(125.470489, 229.999145)"><g><path d="M 6.296875 0.296875 C 5.328125 0.273438 4.382812 0.109375 3.46875 -0.203125 C 2.5625 -0.523438 1.820312 -1.023438 1.25 -1.703125 C 0.675781 -2.390625 0.390625 -3.285156 0.390625 -4.390625 C 0.390625 -5.484375 0.679688 -6.335938 1.265625 -6.953125 C 1.847656 -7.578125 2.609375 -8.03125 3.546875 -8.3125 C 4.484375 -8.59375 5.46875 -8.734375 6.5 -8.734375 L 10.984375 -8.734375 C 10.722656 -9.554688 10.234375 -10.160156 9.515625 -10.546875 C 8.804688 -10.929688 8.050781 -11.125 7.25 -11.125 C 6.53125 -11.125 5.832031 -10.976562 5.15625 -10.6875 C 4.488281 -10.40625 3.957031 -10.007812 3.5625 -9.5 L 1.125 -11.609375 C 1.875 -12.773438 2.820312 -13.566406 3.96875 -13.984375 C 5.125 -14.398438 6.304688 -14.609375 7.515625 -14.609375 C 8.421875 -14.609375 9.3125 -14.472656 10.1875 -14.203125 C 11.070312 -13.929688 11.867188 -13.535156 12.578125 -13.015625 C 13.296875 -12.492188 13.867188 -11.847656 14.296875 -11.078125 C 14.722656 -10.304688 14.9375 -9.414062 14.9375 -8.40625 L 14.9375 -3.03125 L 15.078125 0 L 11.640625 0 L 11.28125 -1.984375 C 10.78125 -1.210938 10.066406 -0.640625 9.140625 -0.265625 C 8.210938 0.109375 7.265625 0.296875 6.296875 0.296875 Z M 6.671875 -2.96875 C 7.265625 -2.96875 7.878906 -3.046875 8.515625 -3.203125 C 9.148438 -3.359375 9.707031 -3.65625 10.1875 -4.09375 C 10.675781 -4.53125 10.972656 -5.144531 11.078125 -5.9375 L 6.375 -5.9375 C 5.863281 -5.9375 5.375 -5.804688 4.90625 -5.546875 C 4.445312 -5.296875 4.21875 -4.921875 4.21875 -4.421875 C 4.21875 -4.066406 4.351562 -3.78125 4.625 -3.5625 C 4.90625 -3.34375 5.238281 -3.1875 5.625 -3.09375 C 6.007812 -3.007812 6.359375 -2.96875 6.671875 -2.96875 Z M 6.671875 -2.96875 "/></g></g></g><g fill="#cecdcd" fill-opacity="1"><g transform="translate(140.190536, 229.999145)"><g><path d="M 1.1875 0 L 1.1875 -14.125 L 4.453125 -14.125 L 4.6875 -12.46875 C 5.207031 -13.28125 5.816406 -13.8125 6.515625 -14.0625 C 7.210938 -14.320312 7.84375 -14.453125 8.40625 -14.453125 C 9.09375 -14.453125 9.851562 -14.3125 10.6875 -14.03125 C 11.519531 -13.757812 12.210938 -13.28125 12.765625 -12.59375 L 11.078125 -10.03125 C 10.378906 -10.664062 9.566406 -10.984375 8.640625 -10.984375 C 7.691406 -10.984375 6.859375 -10.664062 6.140625 -10.03125 C 5.429688 -9.394531 5.054688 -8.554688 5.015625 -7.515625 L 5.015625 0 Z M 1.1875 0 "/></g></g></g><g fill="#cecdcd" fill-opacity="1"><g transform="translate(150.844637, 229.999145)"><g><path d="M 1.1875 0 L 1.1875 -20.78125 L 4.984375 -20.78125 L 4.984375 -8.140625 L 6.921875 -10.453125 L 10.890625 -14.125 L 15.734375 -14.125 L 15.734375 -13.984375 L 9.046875 -7.75 L 16.125 -0.09375 L 16.125 0 L 11.671875 0 L 6.46875 -5.640625 L 5.015625 -4.28125 L 5.015625 0 Z M 1.1875 0 "/></g></g></g><g fill="#cecdcd" fill-opacity="1"><g transform="translate(164.852408, 229.999145)"><g><path d="M 7.84375 0.234375 C 6.394531 0.234375 5.101562 -0.0703125 3.96875 -0.6875 C 2.84375 -1.300781 1.957031 -2.15625 1.3125 -3.25 C 0.675781 -4.34375 0.359375 -5.613281 0.359375 -7.0625 C 0.359375 -8.507812 0.675781 -9.78125 1.3125 -10.875 C 1.957031 -11.976562 2.851562 -12.835938 4 -13.453125 C 5.15625 -14.066406 6.460938 -14.375 7.921875 -14.375 C 9.453125 -14.375 10.769531 -14.050781 11.875 -13.40625 C 12.976562 -12.757812 13.832031 -11.859375 14.4375 -10.703125 C 15.039062 -9.546875 15.34375 -8.1875 15.34375 -6.625 C 15.34375 -6.476562 15.34375 -6.320312 15.34375 -6.15625 C 15.34375 -5.988281 15.332031 -5.828125 15.3125 -5.671875 L 4.28125 -5.671875 C 4.394531 -4.972656 4.660156 -4.429688 5.078125 -4.046875 C 5.492188 -3.660156 5.976562 -3.390625 6.53125 -3.234375 C 7.082031 -3.078125 7.625 -3 8.15625 -3 C 8.8125 -3 9.441406 -3.097656 10.046875 -3.296875 C 10.648438 -3.492188 11.109375 -3.867188 11.421875 -4.421875 L 14.546875 -3.328125 C 14.046875 -2.390625 13.4375 -1.660156 12.71875 -1.140625 C 12 -0.617188 11.222656 -0.257812 10.390625 -0.0625 C 9.554688 0.132812 8.707031 0.234375 7.84375 0.234375 Z M 4.28125 -8.546875 L 11.640625 -8.546875 C 11.441406 -9.441406 10.972656 -10.097656 10.234375 -10.515625 C 9.503906 -10.941406 8.742188 -11.15625 7.953125 -11.15625 C 7.097656 -11.15625 6.320312 -10.929688 5.625 -10.484375 C 4.925781 -10.046875 4.476562 -9.398438 4.28125 -8.546875 Z M 4.28125 -8.546875 "/></g></g></g><g fill="#cecdcd" fill-opacity="1"><g transform="translate(179.453747, 229.999145)"><g><path d="M 8.734375 0.265625 C 6.734375 0.242188 5.203125 -0.34375 4.140625 -1.5 C 3.078125 -2.65625 2.546875 -4.132812 2.546875 -5.9375 L 2.546875 -11.25 L -0.0625 -11.25 L -0.0625 -14.125 L 2.546875 -14.125 L 2.546875 -20.78125 L 6.328125 -20.78125 L 6.328125 -14.125 L 11.375 -14.125 L 11.375 -11.25 L 6.328125 -11.25 L 6.328125 -5.9375 C 6.304688 -5.082031 6.570312 -4.375 7.125 -3.8125 C 7.675781 -3.25 8.378906 -2.96875 9.234375 -2.96875 C 9.523438 -2.96875 9.832031 -3.003906 10.15625 -3.078125 C 10.488281 -3.160156 10.820312 -3.289062 11.15625 -3.46875 L 12.171875 -0.6875 C 11.492188 -0.34375 10.875 -0.0976562 10.3125 0.046875 C 9.75 0.191406 9.222656 0.265625 8.734375 0.265625 Z M 8.734375 0.265625 "/></g></g></g><g fill="#cecdcd" fill-opacity="1"><g transform="translate(189.900099, 229.999145)"><g><path d="M 1.1875 6.65625 L 1.1875 -14.125 L 4.390625 -14.125 L 4.78125 -12.171875 C 5.351562 -13.046875 6.078125 -13.644531 6.953125 -13.96875 C 7.835938 -14.289062 8.734375 -14.425781 9.640625 -14.375 C 11.265625 -14.269531 12.59375 -13.847656 13.625 -13.109375 C 14.65625 -12.378906 15.421875 -11.476562 15.921875 -10.40625 C 16.429688 -9.34375 16.6875 -8.226562 16.6875 -7.0625 C 16.6875 -5.695312 16.367188 -4.457031 15.734375 -3.34375 C 15.097656 -2.238281 14.207031 -1.359375 13.0625 -0.703125 C 11.914062 -0.0546875 10.5625 0.265625 9 0.265625 C 8.226562 0.265625 7.5 0.132812 6.8125 -0.125 C 6.125 -0.394531 5.523438 -0.90625 5.015625 -1.65625 L 5.015625 6.65625 Z M 8.875 -3.109375 C 9.769531 -3.109375 10.507812 -3.300781 11.09375 -3.6875 C 11.675781 -4.082031 12.109375 -4.578125 12.390625 -5.171875 C 12.679688 -5.773438 12.828125 -6.40625 12.828125 -7.0625 C 12.828125 -7.695312 12.679688 -8.316406 12.390625 -8.921875 C 12.109375 -9.523438 11.675781 -10.023438 11.09375 -10.421875 C 10.507812 -10.816406 9.769531 -11.015625 8.875 -11.015625 C 7.644531 -11.015625 6.671875 -10.632812 5.953125 -9.875 C 5.234375 -9.125 4.875 -8.195312 4.875 -7.09375 C 4.875 -5.988281 5.222656 -5.046875 5.921875 -4.265625 C 6.617188 -3.492188 7.601562 -3.109375 8.875 -3.109375 Z M 8.875 -3.109375 "/></g></g></g><g fill="#cecdcd" fill-opacity="1"><g transform="translate(205.836964, 229.999145)"><g><path d="M 1.1875 0 L 1.1875 -20.78125 L 5.015625 -20.78125 L 5.015625 0 Z M 1.1875 0 "/></g></g></g><g fill="#cecdcd" fill-opacity="1"><g transform="translate(210.614734, 229.999145)"><g><path d="M 6.296875 0.296875 C 5.328125 0.273438 4.382812 0.109375 3.46875 -0.203125 C 2.5625 -0.523438 1.820312 -1.023438 1.25 -1.703125 C 0.675781 -2.390625 0.390625 -3.285156 0.390625 -4.390625 C 0.390625 -5.484375 0.679688 -6.335938 1.265625 -6.953125 C 1.847656 -7.578125 2.609375 -8.03125 3.546875 -8.3125 C 4.484375 -8.59375 5.46875 -8.734375 6.5 -8.734375 L 10.984375 -8.734375 C 10.722656 -9.554688 10.234375 -10.160156 9.515625 -10.546875 C 8.804688 -10.929688 8.050781 -11.125 7.25 -11.125 C 6.53125 -11.125 5.832031 -10.976562 5.15625 -10.6875 C 4.488281 -10.40625 3.957031 -10.007812 3.5625 -9.5 L 1.125 -11.609375 C 1.875 -12.773438 2.820312 -13.566406 3.96875 -13.984375 C 5.125 -14.398438 6.304688 -14.609375 7.515625 -14.609375 C 8.421875 -14.609375 9.3125 -14.472656 10.1875 -14.203125 C 11.070312 -13.929688 11.867188 -13.535156 12.578125 -13.015625 C 13.296875 -12.492188 13.867188 -11.847656 14.296875 -11.078125 C 14.722656 -10.304688 14.9375 -9.414062 14.9375 -8.40625 L 14.9375 -3.03125 L 15.078125 0 L 11.640625 0 L 11.28125 -1.984375 C 10.78125 -1.210938 10.066406 -0.640625 9.140625 -0.265625 C 8.210938 0.109375 7.265625 0.296875 6.296875 0.296875 Z M 6.671875 -2.96875 C 7.265625 -2.96875 7.878906 -3.046875 8.515625 -3.203125 C 9.148438 -3.359375 9.707031 -3.65625 10.1875 -4.09375 C 10.675781 -4.53125 10.972656 -5.144531 11.078125 -5.9375 L 6.375 -5.9375 C 5.863281 -5.9375 5.375 -5.804688 4.90625 -5.546875 C 4.445312 -5.296875 4.21875 -4.921875 4.21875 -4.421875 C 4.21875 -4.066406 4.351562 -3.78125 4.625 -3.5625 C 4.90625 -3.34375 5.238281 -3.1875 5.625 -3.09375 C 6.007812 -3.007812 6.359375 -2.96875 6.671875 -2.96875 Z M 6.671875 -2.96875 "/></g></g></g><g fill="#cecdcd" fill-opacity="1"><g transform="translate(225.334773, 229.999145)"><g><path d="M 7.84375 0.296875 C 6.394531 0.296875 5.101562 -0.0078125 3.96875 -0.625 C 2.84375 -1.238281 1.953125 -2.09375 1.296875 -3.1875 C 0.648438 -4.289062 0.328125 -5.5625 0.328125 -7 C 0.328125 -8.488281 0.640625 -9.785156 1.265625 -10.890625 C 1.890625 -12.003906 2.765625 -12.867188 3.890625 -13.484375 C 5.015625 -14.109375 6.332031 -14.421875 7.84375 -14.421875 C 8.84375 -14.421875 9.789062 -14.265625 10.6875 -13.953125 C 11.59375 -13.648438 12.390625 -13.144531 13.078125 -12.4375 C 13.773438 -11.726562 14.296875 -10.769531 14.640625 -9.5625 L 11.34375 -9 C 11.101562 -9.613281 10.789062 -10.0625 10.40625 -10.34375 C 10.019531 -10.632812 9.597656 -10.828125 9.140625 -10.921875 C 8.679688 -11.023438 8.25 -11.078125 7.84375 -11.078125 C 6.6875 -11.078125 5.785156 -10.6875 5.140625 -9.90625 C 4.503906 -9.125 4.1875 -8.15625 4.1875 -7 C 4.1875 -5.914062 4.515625 -4.984375 5.171875 -4.203125 C 5.835938 -3.421875 6.726562 -3.03125 7.84375 -3.03125 C 8.238281 -3.03125 8.648438 -3.078125 9.078125 -3.171875 C 9.515625 -3.273438 9.9375 -3.492188 10.34375 -3.828125 C 10.75 -4.160156 11.09375 -4.675781 11.375 -5.375 L 14.71875 -4.625 C 14.382812 -3.4375 13.859375 -2.484375 13.140625 -1.765625 C 12.429688 -1.046875 11.617188 -0.519531 10.703125 -0.1875 C 9.785156 0.132812 8.832031 0.296875 7.84375 0.296875 Z M 7.84375 0.296875 "/></g></g></g><g fill="#cecdcd" fill-opacity="1"><g transform="translate(238.719295, 229.999145)"><g><path d="M 7.84375 0.234375 C 6.394531 0.234375 5.101562 -0.0703125 3.96875 -0.6875 C 2.84375 -1.300781 1.957031 -2.15625 1.3125 -3.25 C 0.675781 -4.34375 0.359375 -5.613281 0.359375 -7.0625 C 0.359375 -8.507812 0.675781 -9.78125 1.3125 -10.875 C 1.957031 -11.976562 2.851562 -12.835938 4 -13.453125 C 5.15625 -14.066406 6.460938 -14.375 7.921875 -14.375 C 9.453125 -14.375 10.769531 -14.050781 11.875 -13.40625 C 12.976562 -12.757812 13.832031 -11.859375 14.4375 -10.703125 C 15.039062 -9.546875 15.34375 -8.1875 15.34375 -6.625 C 15.34375 -6.476562 15.34375 -6.320312 15.34375 -6.15625 C 15.34375 -5.988281 15.332031 -5.828125 15.3125 -5.671875 L 4.28125 -5.671875 C 4.394531 -4.972656 4.660156 -4.429688 5.078125 -4.046875 C 5.492188 -3.660156 5.976562 -3.390625 6.53125 -3.234375 C 7.082031 -3.078125 7.625 -3 8.15625 -3 C 8.8125 -3 9.441406 -3.097656 10.046875 -3.296875 C 10.648438 -3.492188 11.109375 -3.867188 11.421875 -4.421875 L 14.546875 -3.328125 C 14.046875 -2.390625 13.4375 -1.660156 12.71875 -1.140625 C 12 -0.617188 11.222656 -0.257812 10.390625 -0.0625 C 9.554688 0.132812 8.707031 0.234375 7.84375 0.234375 Z M 4.28125 -8.546875 L 11.640625 -8.546875 C 11.441406 -9.441406 10.972656 -10.097656 10.234375 -10.515625 C 9.503906 -10.941406 8.742188 -11.15625 7.953125 -11.15625 C 7.097656 -11.15625 6.320312 -10.929688 5.625 -10.484375 C 4.925781 -10.046875 4.476562 -9.398438 4.28125 -8.546875 Z M 4.28125 -8.546875 "/></g></g></g></svg>