<svg xmlns="http://www.w3.org/2000/svg" xmlns:xlink="http://www.w3.org/1999/xlink" width="500" zoomAndPan="magnify" viewBox="0 0 375 187.499995" height="250" preserveAspectRatio="xMidYMid meet" version="1.0"><defs><g/><clipPath id="365d36af3e"><path d="M 143 79.066406 L 171 79.066406 L 171 108 L 143 108 Z M 143 79.066406 " clip-rule="nonzero"/></clipPath></defs><g fill="#cecdcd" fill-opacity="1"><g transform="translate(185.297308, 108.599079)"><g><path d="M 15.25 0.671875 C 13.101562 0.671875 11.125 0.304688 9.3125 -0.421875 C 7.5 -1.148438 5.929688 -2.164062 4.609375 -3.46875 C 3.285156 -4.78125 2.257812 -6.328125 1.53125 -8.109375 C 0.800781 -9.898438 0.4375 -11.851562 0.4375 -13.96875 C 0.4375 -16.09375 0.800781 -18.039062 1.53125 -19.8125 C 2.257812 -21.582031 3.285156 -23.113281 4.609375 -24.40625 C 5.929688 -25.707031 7.5 -26.710938 9.3125 -27.421875 C 11.125 -28.140625 13.101562 -28.5 15.25 -28.5 C 17.050781 -28.5 18.816406 -28.207031 20.546875 -27.625 C 22.273438 -27.050781 23.828125 -26.117188 25.203125 -24.828125 C 26.585938 -23.546875 27.660156 -21.832031 28.421875 -19.6875 L 23.859375 -18.0625 C 23.253906 -19.519531 22.476562 -20.648438 21.53125 -21.453125 C 20.59375 -22.265625 19.582031 -22.832031 18.5 -23.15625 C 17.414062 -23.488281 16.332031 -23.65625 15.25 -23.65625 C 13.445312 -23.65625 11.859375 -23.242188 10.484375 -22.421875 C 9.109375 -21.609375 8.03125 -20.472656 7.25 -19.015625 C 6.46875 -17.554688 6.078125 -15.875 6.078125 -13.96875 C 6.078125 -12.09375 6.46875 -10.40625 7.25 -8.90625 C 8.03125 -7.414062 9.109375 -6.242188 10.484375 -5.390625 C 11.859375 -4.546875 13.445312 -4.125 15.25 -4.125 C 16.332031 -4.125 17.414062 -4.300781 18.5 -4.65625 C 19.582031 -5.019531 20.59375 -5.628906 21.53125 -6.484375 C 22.476562 -7.347656 23.253906 -8.507812 23.859375 -9.96875 L 28.671875 -8.453125 C 27.765625 -6.234375 26.609375 -4.453125 25.203125 -3.109375 C 23.804688 -1.773438 22.253906 -0.8125 20.546875 -0.21875 C 18.835938 0.375 17.070312 0.671875 15.25 0.671875 Z M 15.25 0.671875 "/></g></g></g><g fill="#cecdcd" fill-opacity="1"><g transform="translate(211.897871, 108.599079)"><g><path d="M 1.953125 0 L 1.953125 -27.796875 L 24.171875 -27.796875 L 24.171875 -23.0625 L 7.265625 -23.0625 L 7.265625 -16.15625 L 23.5 -16.15625 L 23.5 -11.59375 L 7.265625 -11.59375 L 7.265625 -4.71875 L 24.171875 -4.71875 L 24.171875 0 Z M 1.953125 0 "/></g></g></g><g fill="#cecdcd" fill-opacity="1"><g transform="translate(235.203107, 108.599079)"><g><path d="M 1.984375 0 L 1.984375 -27.796875 L 6.90625 -27.796875 L 21.328125 -11.078125 L 24.375 -6.75 L 24.5 -6.796875 L 24.015625 -12.03125 L 24.015625 -27.796875 L 29.34375 -27.796875 L 29.34375 0 L 23.9375 0 L 9.484375 -17.109375 L 7.0625 -20.921875 L 6.875 -20.890625 L 7.390625 -16.484375 L 7.390625 0 Z M 1.984375 0 "/></g></g></g><g fill="#cecdcd" fill-opacity="1"><g transform="translate(264.821078, 108.599079)"><g><path d="M 10.4375 0 L 10.4375 -23.0625 L -0.359375 -23.0625 L -0.359375 -27.796875 L 26.765625 -27.796875 L 26.765625 -23.0625 L 16 -23.0625 L 16 0 Z M 10.4375 0 "/></g></g></g><g fill="#cecdcd" fill-opacity="1"><g transform="translate(289.555609, 108.599079)"><g><path d="M 1.984375 0 L 1.984375 -27.796875 L 16.359375 -27.796875 C 17.578125 -27.796875 18.910156 -27.632812 20.359375 -27.3125 C 21.816406 -27 23.117188 -26.390625 24.265625 -25.484375 C 25.242188 -24.691406 25.992188 -23.691406 26.515625 -22.484375 C 27.046875 -21.285156 27.3125 -20.0625 27.3125 -18.8125 C 27.3125 -17.601562 27.023438 -16.378906 26.453125 -15.140625 C 25.890625 -13.910156 25.09375 -12.875 24.0625 -12.03125 C 22.707031 -10.96875 20.972656 -10.382812 18.859375 -10.28125 L 27.640625 -0.234375 L 27.640625 0 L 21.40625 0 L 12.625 -10.125 L 7.5 -10.125 L 7.5 0 Z M 7.5 -14.65625 L 16.75 -14.65625 C 18.363281 -14.65625 19.609375 -14.988281 20.484375 -15.65625 C 21.359375 -16.332031 21.796875 -17.398438 21.796875 -18.859375 C 21.796875 -20.441406 21.265625 -21.546875 20.203125 -22.171875 C 19.148438 -22.796875 17.867188 -23.109375 16.359375 -23.109375 L 7.5 -23.109375 Z M 7.5 -14.65625 "/></g></g></g><g fill="#cecdcd" fill-opacity="1"><g transform="translate(315.560628, 108.599079)"><g><path d="M -0.90625 0 L 13.265625 -27.953125 L 18.0625 -27.953125 L 32.15625 0 L 26.078125 0 L 22.671875 -6.671875 L 8.421875 -6.671875 L 5 0 Z M 10.71875 -11.28125 L 20.375 -11.28125 L 17.59375 -17.265625 L 15.6875 -22.390625 L 13.625 -17.1875 Z M 10.71875 -11.28125 "/></g></g></g><g fill="#cecdcd" fill-opacity="1"><g transform="translate(345.019784, 108.599079)"><g><path d="M 1.953125 0 L 1.953125 -27.796875 L 7.546875 -27.796875 L 7.546875 -4.765625 L 24.140625 -4.765625 L 24.140625 0 Z M 1.953125 0 "/></g></g></g><g fill="#fff9f9" fill-opacity="1"><g transform="translate(7.94431, 115.566814)"><g><path d="M 16.546875 -43.65625 L 32.46875 -43.65625 L 49.828125 0.9375 L 33.5625 0.9375 L 31.234375 -5.59375 L 17.078125 -5.59375 L 14.859375 0.9375 L -0.984375 0.9375 Z M 24.296875 -28.03125 L 20.625 -17.078125 L 27.859375 -17.078125 Z M 24.296875 -28.03125 "/></g></g></g><g fill="#fff9f9" fill-opacity="1"><g transform="translate(52.406963, 115.566814)"><g><path d="M 24.1875 2.21875 C 19.5625 2.21875 15.710938 1.382812 12.640625 -0.28125 C 9.578125 -1.957031 7.285156 -4.210938 5.765625 -7.046875 C 4.253906 -9.890625 3.5 -13.054688 3.5 -16.546875 L 3.5 -43.65625 L 18.53125 -43.65625 L 18.53125 -18.1875 C 18.53125 -16.082031 19.035156 -14.425781 20.046875 -13.21875 C 21.054688 -12.019531 22.515625 -11.421875 24.421875 -11.421875 C 26.328125 -11.421875 27.789062 -12.019531 28.8125 -13.21875 C 29.84375 -14.425781 30.359375 -16.082031 30.359375 -18.1875 L 30.359375 -43.65625 L 45.28125 -43.65625 L 45.28125 -16.546875 C 45.28125 -13.054688 44.484375 -9.890625 42.890625 -7.046875 C 41.296875 -4.210938 38.9375 -1.957031 35.8125 -0.28125 C 32.6875 1.382812 28.8125 2.21875 24.1875 2.21875 Z M 24.1875 2.21875 "/></g></g></g><g fill="#fff9f9" fill-opacity="1"><g transform="translate(96.811339, 115.566814)"><g><path d="M 26.40625 0.9375 L 11.359375 0.9375 L 11.359375 -31 L 0.46875 -31 L 0.46875 -43.65625 L 37.296875 -43.65625 L 37.296875 -31 L 26.40625 -31 Z M 26.40625 0.9375 "/></g></g></g><g fill="#fff9f9" fill-opacity="1"><g transform="translate(130.201888, 115.566814)"><g><path d="M 26.875 2.21875 C 23.332031 2.21875 20.066406 1.648438 17.078125 0.515625 C 14.085938 -0.609375 11.472656 -2.21875 9.234375 -4.3125 C 7.003906 -6.40625 5.265625 -8.921875 4.015625 -11.859375 C 2.773438 -14.796875 2.15625 -18.050781 2.15625 -21.625 C 2.15625 -25.195312 2.773438 -28.410156 4.015625 -31.265625 C 5.265625 -34.117188 7.003906 -36.566406 9.234375 -38.609375 C 11.472656 -40.648438 14.085938 -42.203125 17.078125 -43.265625 C 20.066406 -44.335938 23.332031 -44.875 26.875 -44.875 C 30.40625 -44.875 33.675781 -44.335938 36.6875 -43.265625 C 39.695312 -42.203125 42.328125 -40.648438 44.578125 -38.609375 C 46.835938 -36.566406 48.585938 -34.117188 49.828125 -31.265625 C 51.078125 -28.410156 51.703125 -25.195312 51.703125 -21.625 C 51.703125 -18.050781 51.078125 -14.796875 49.828125 -11.859375 C 48.585938 -8.921875 46.835938 -6.40625 44.578125 -4.3125 C 42.328125 -2.21875 39.695312 -0.609375 36.6875 0.515625 C 33.675781 1.648438 30.40625 2.21875 26.875 2.21875 Z M 26.875 -11.65625 C 28.582031 -11.65625 30.09375 -12.082031 31.40625 -12.9375 C 32.726562 -13.789062 33.769531 -14.960938 34.53125 -16.453125 C 35.289062 -17.953125 35.671875 -19.675781 35.671875 -21.625 C 35.671875 -24.5 34.832031 -26.8125 33.15625 -28.5625 C 31.488281 -30.3125 29.394531 -31.1875 26.875 -31.1875 C 24.34375 -31.1875 22.238281 -30.3125 20.5625 -28.5625 C 18.894531 -26.8125 18.0625 -24.5 18.0625 -21.625 C 18.0625 -19.675781 18.441406 -17.953125 19.203125 -16.453125 C 19.960938 -14.960938 21.007812 -13.789062 22.34375 -12.9375 C 23.6875 -12.082031 25.195312 -11.65625 26.875 -11.65625 Z M 26.875 -11.65625 "/></g></g></g><path fill="#ffffff" d="M 157 84.609375 C 157.59375 84.609375 158.179688 84.667969 158.765625 84.78125 C 159.347656 84.898438 159.910156 85.070312 160.460938 85.296875 C 161.007812 85.523438 161.53125 85.800781 162.023438 86.132812 C 162.515625 86.460938 162.972656 86.835938 163.394531 87.257812 C 163.8125 87.675781 164.1875 88.132812 164.519531 88.628906 C 164.847656 89.121094 165.128906 89.640625 165.355469 90.191406 C 165.582031 90.738281 165.753906 91.304688 165.871094 91.886719 C 165.984375 92.46875 166.042969 93.058594 166.042969 93.652344 C 166.042969 94.246094 165.984375 94.832031 165.871094 95.417969 C 165.753906 96 165.582031 96.5625 165.355469 97.113281 C 165.128906 97.660156 164.847656 98.183594 164.519531 98.675781 C 164.1875 99.167969 163.8125 99.625 163.394531 100.046875 C 162.972656 100.464844 162.515625 100.839844 162.023438 101.171875 C 161.53125 101.5 161.007812 101.78125 160.460938 102.007812 C 159.910156 102.234375 159.347656 102.40625 158.765625 102.519531 C 158.179688 102.636719 157.59375 102.695312 157 102.695312 C 156.40625 102.695312 155.816406 102.636719 155.234375 102.519531 C 154.652344 102.40625 154.085938 102.234375 153.539062 102.007812 C 152.988281 101.78125 152.46875 101.5 151.976562 101.171875 C 151.480469 100.839844 151.023438 100.464844 150.605469 100.046875 C 150.183594 99.625 149.808594 99.167969 149.480469 98.675781 C 149.148438 98.183594 148.871094 97.660156 148.644531 97.113281 C 148.417969 96.5625 148.246094 96 148.128906 95.417969 C 148.015625 94.832031 147.957031 94.246094 147.957031 93.652344 C 147.957031 93.058594 148.015625 92.46875 148.128906 91.886719 C 148.246094 91.304688 148.417969 90.738281 148.644531 90.191406 C 148.871094 89.640625 149.148438 89.121094 149.480469 88.628906 C 149.808594 88.132812 150.183594 87.675781 150.605469 87.257812 C 151.023438 86.835938 151.480469 86.460938 151.976562 86.132812 C 152.46875 85.800781 152.988281 85.523438 153.539062 85.296875 C 154.085938 85.070312 154.652344 84.898438 155.234375 84.78125 C 155.816406 84.667969 156.40625 84.609375 157 84.609375 Z M 157 84.609375 " fill-opacity="1" fill-rule="nonzero"/><path stroke-linecap="butt" transform="matrix(0.455816, 0, 0, 0.455816, 142.413464, 79.065677)" fill-opacity="1" fill="#371211" fill-rule="nonzero" stroke-linejoin="miter" d="M 25.205099 32.001238 C 25.205099 26.370878 29.764233 21.803175 35.403162 21.803175 C 38.05123 21.803175 40.347937 22.694434 42.293282 24.494092 C 39.970866 21.323266 36.234433 19.249374 32.000951 19.249374 C 24.956574 19.249374 19.249087 24.956861 19.249087 32.001238 C 19.249087 39.037044 24.956574 44.753102 32.000951 44.753102 C 36.234433 44.753102 39.979436 42.67921 42.293282 39.499814 C 40.347937 41.299472 38.05123 42.199301 35.403162 42.199301 C 29.764233 42.199301 25.205099 37.631597 25.205099 32.001238 " stroke="#371211" stroke-width="0.001" stroke-opacity="1" stroke-miterlimit="4"/><path stroke-linecap="butt" transform="matrix(0.455816, 0, 0, 0.455816, 142.413464, 79.065677)" fill-opacity="1" fill="#371211" fill-rule="nonzero" stroke-linejoin="miter" d="M 36.302991 29.224622 L 33.037897 24.725477 L 33.037897 30.287278 L 27.750329 32.001238 L 33.037897 33.715198 L 33.037897 39.276999 L 36.302991 34.777853 L 41.590558 36.491814 L 38.316894 32.001238 L 41.590558 27.502092 Z M 36.302991 29.224622 " stroke="#371211" stroke-width="0.001" stroke-opacity="1" stroke-miterlimit="4"/><g clip-path="url(#365d36af3e)"><path stroke-linecap="butt" transform="matrix(0.455816, 0, 0, 0.455816, 142.413464, 79.065677)" fill-opacity="1" fill="#371211" fill-rule="nonzero" stroke-linejoin="miter" d="M 32.000951 1.998364 C 15.435525 1.998364 1.998077 15.435812 1.998077 32.001238 C 1.998077 48.566663 15.435525 62.004111 32.000951 62.004111 C 48.566376 62.004111 62.003824 48.566663 62.003824 32.001238 C 62.003824 15.435812 48.566376 1.998364 32.000951 1.998364 Z M 32.000951 48.995153 C 22.608449 48.995153 14.998466 41.38517 14.998466 32.001238 C 14.998466 22.608736 22.608449 14.998752 32.000951 14.998752 C 41.384883 14.998752 48.994866 22.608736 48.994866 32.001238 C 48.994866 41.38517 41.384883 48.995153 32.000951 48.995153 Z M 32.000951 48.995153 " stroke="#371211" stroke-width="0.001" stroke-opacity="1" stroke-miterlimit="4"/></g></svg>