<svg xmlns="http://www.w3.org/2000/svg" xmlns:xlink="http://www.w3.org/1999/xlink" width="1080" zoomAndPan="magnify" viewBox="0 0 810 809.999993" height="1080" preserveAspectRatio="xMidYMid meet" version="1.0"><defs><clipPath id="de1a2b55a6"><path d="M 0.898438 0.757812 L 808.976562 0.757812 L 808.976562 808.757812 L 0.898438 808.757812 Z M 0.898438 0.757812 " clip-rule="nonzero"/></clipPath><clipPath id="cdd7342e85"><path d="M 0.898438 162.355469 L 0.898438 647.160156 C 0.898438 736.40625 73.261719 808.757812 162.515625 808.757812 L 647.363281 808.757812 C 736.625 808.757812 808.976562 736.40625 808.976562 647.160156 L 808.976562 162.355469 C 808.976562 73.109375 736.625 0.757812 647.363281 0.757812 L 162.515625 0.757812 C 73.261719 0.757812 0.898438 73.109375 0.898438 162.355469 Z M 0.898438 162.355469 " clip-rule="nonzero"/></clipPath></defs><g clip-path="url(#de1a2b55a6)"><g clip-path="url(#cdd7342e85)"><path fill="#151515" d="M 0.898438 0.757812 L 808.976562 0.757812 L 808.976562 808.757812 L 0.898438 808.757812 Z M 0.898438 0.757812 " fill-opacity="1" fill-rule="nonzero"/></g></g><path fill="#fff9f9" d="M 81.816406 445.949219 C 74.136719 445.949219 66.21875 444.835938 58.066406 442.613281 C 49.914062 440.40625 42.402344 436.820312 35.53125 431.835938 C 28.675781 426.832031 23.152344 420.304688 18.957031 412.265625 C 14.753906 404.230469 12.65625 394.269531 12.65625 382.386719 C 12.65625 368.894531 16.035156 357.78125 22.796875 349.039062 C 29.550781 340.308594 38.460938 333.503906 49.511719 328.625 C 60.578125 323.734375 72.6875 320.296875 85.828125 318.320312 C 98.980469 316.324219 111.976562 315.320312 124.800781 315.320312 L 128.273438 315.320312 L 128.273438 314.648438 C 128.273438 308.585938 126.167969 304.164062 121.972656 301.375 C 117.796875 298.574219 112.320312 297.167969 105.566406 297.167969 C 97.660156 297.167969 90.039062 298.808594 82.695312 302.082031 C 75.367188 305.34375 69.023438 309.292969 63.660156 313.941406 L 20.339844 270.992188 C 32.214844 259.339844 46.480469 250.371094 63.121094 244.082031 C 79.78125 237.796875 96.960938 234.648438 114.664062 234.648438 C 133.527344 234.648438 149.125 237.277344 161.453125 242.53125 C 173.800781 247.769531 183.527344 255.09375 190.625 264.527344 C 197.742188 273.957031 202.753906 284.789062 205.652344 296.996094 C 208.566406 309.214844 210.03125 322.320312 210.03125 336.308594 L 210.03125 440.726562 L 131.066406 440.726562 L 131.066406 424.996094 L 130.394531 424.996094 C 125.492188 432.457031 118.335938 437.804688 108.902344 441.0625 C 99.46875 444.3125 90.441406 445.949219 81.816406 445.949219 Z M 106.273438 393.570312 C 114.425781 393.570312 121.0625 390.957031 126.183594 385.722656 C 131.304688 380.464844 133.863281 373.652344 133.863281 365.273438 L 133.863281 358.640625 L 128.980469 358.640625 C 116.179688 358.640625 105.871094 360.046875 98.054688 362.851562 C 90.257812 365.636719 86.367188 370.757812 86.367188 378.210938 C 86.367188 383.558594 88.628906 387.457031 93.171875 389.898438 C 97.726562 392.347656 102.097656 393.570312 106.273438 393.570312 Z M 106.273438 393.570312 " fill-opacity="1" fill-rule="nonzero"/><path fill="#fff9f9" d="M 287.550781 445.949219 C 273.578125 445.949219 261.992188 443.496094 252.785156 438.605469 C 243.597656 433.738281 236.382812 427.277344 231.125 419.238281 C 225.886719 411.203125 222.164062 402.292969 219.941406 392.523438 C 217.734375 382.738281 216.640625 372.953125 216.640625 363.1875 L 216.640625 242.328125 L 303.957031 242.328125 L 303.957031 347.121094 C 303.957031 357.140625 305.582031 364.1875 308.84375 368.273438 C 312.117188 372.339844 316.773438 374.371094 322.820312 374.371094 C 328.632812 374.371094 333.347656 371.996094 336.96875 367.230469 C 340.582031 362.445312 342.394531 355.742188 342.394531 347.121094 L 342.394531 242.328125 L 429.710938 242.328125 L 429.710938 440.726562 L 344.851562 440.726562 L 344.851562 418.730469 L 344.144531 418.730469 C 339.246094 425.941406 331.730469 432.273438 321.609375 437.730469 C 311.476562 443.203125 300.125 445.949219 287.550781 445.949219 Z M 287.550781 445.949219 " fill-opacity="1" fill-rule="nonzero"/><path fill="#fff9f9" d="M 529.960938 445.949219 C 503.390625 445.949219 483.648438 440.1875 470.738281 428.667969 C 457.820312 417.148438 451.371094 399.398438 451.371094 375.414062 L 451.371094 304.507812 L 423.410156 304.507812 L 423.410156 242.328125 L 451 242.328125 L 451 197.628906 L 535.519531 197.628906 L 535.519531 242.328125 L 578.503906 242.328125 L 578.503906 304.507812 L 535.519531 304.507812 L 535.519531 357.257812 C 535.519531 366.808594 537.617188 373.324219 541.820312 376.828125 C 546.011719 380.316406 551.722656 382.050781 558.933594 382.050781 C 561.738281 382.050781 564.640625 381.761719 567.65625 381.171875 C 570.6875 380.59375 573.023438 380.0625 574.664062 379.589844 L 574.664062 439.3125 C 570.234375 440.945312 563.894531 442.460938 555.632812 443.859375 C 547.359375 445.25 538.804688 445.949219 529.960938 445.949219 Z M 529.960938 445.949219 " fill-opacity="1" fill-rule="nonzero"/><path fill="#fff9f9" d="M 680.839844 448.40625 C 665.925781 448.40625 651.710938 446.015625 638.191406 441.230469 C 624.691406 436.464844 612.699219 429.5 602.214844 420.3125 C 591.746094 411.109375 583.484375 399.816406 577.421875 386.429688 C 571.375 373.023438 568.359375 357.824219 568.359375 340.820312 C 568.359375 323.828125 571.375 308.753906 577.421875 295.617188 C 583.484375 282.464844 591.746094 271.347656 602.214844 262.269531 C 612.699219 253.175781 624.691406 246.304688 638.191406 241.65625 C 651.710938 236.988281 665.925781 234.648438 680.839844 234.648438 C 695.972656 234.648438 710.351562 236.988281 723.960938 241.65625 C 737.585938 246.304688 749.695312 253.175781 760.273438 262.269531 C 770.867188 271.347656 779.257812 282.464844 785.4375 295.617188 C 791.613281 308.753906 794.703125 323.828125 794.703125 340.820312 C 794.703125 357.824219 791.613281 373.023438 785.4375 386.429688 C 779.257812 399.816406 770.867188 411.109375 760.273438 420.3125 C 749.695312 429.5 737.585938 436.464844 723.960938 441.230469 C 710.351562 446.015625 695.972656 448.40625 680.839844 448.40625 Z M 681.511719 374.371094 C 691.082031 374.371094 698.828125 371.117188 704.757812 364.601562 C 710.6875 358.066406 713.652344 350.140625 713.652344 340.820312 C 713.652344 331.976562 710.558594 324.296875 704.386719 317.78125 C 698.230469 311.269531 690.382812 308.011719 680.839844 308.011719 C 671.515625 308.011719 663.878906 311.269531 657.933594 317.78125 C 652.003906 324.296875 649.039062 331.976562 649.039062 340.820312 C 649.039062 350.140625 652.121094 358.066406 658.304688 364.601562 C 664.476562 371.117188 672.214844 374.371094 681.511719 374.371094 Z M 681.511719 374.371094 " fill-opacity="1" fill-rule="nonzero"/><path fill="#ffffff" d="M 681.730469 304.171875 C 682.960938 304.171875 684.191406 304.234375 685.414062 304.359375 C 686.632812 304.476562 687.855469 304.652344 689.058594 304.898438 C 690.261719 305.132812 691.460938 305.4375 692.636719 305.789062 C 693.816406 306.152344 694.972656 306.566406 696.109375 307.035156 C 697.246094 307.507812 698.355469 308.03125 699.441406 308.613281 C 700.53125 309.191406 701.582031 309.824219 702.601562 310.507812 C 703.628906 311.1875 704.613281 311.921875 705.566406 312.703125 C 706.519531 313.488281 707.425781 314.3125 708.304688 315.179688 C 709.171875 316.046875 709.996094 316.964844 710.777344 317.90625 C 711.554688 318.859375 712.285156 319.851562 712.96875 320.871094 C 713.660156 321.898438 714.289062 322.953125 714.863281 324.039062 C 715.445312 325.125 715.976562 326.238281 716.445312 327.375 C 716.917969 328.511719 717.332031 329.664062 717.683594 330.84375 C 718.046875 332.023438 718.339844 333.210938 718.585938 334.421875 C 718.820312 335.625 719.007812 336.839844 719.125 338.066406 C 719.242188 339.289062 719.300781 340.519531 719.300781 341.746094 C 719.300781 342.976562 719.242188 344.207031 719.125 345.429688 C 719.007812 346.65625 718.820312 347.871094 718.585938 349.074219 C 718.339844 350.285156 718.046875 351.472656 717.683594 352.652344 C 717.332031 353.832031 716.917969 354.984375 716.445312 356.121094 C 715.976562 357.257812 715.445312 358.371094 714.863281 359.457031 C 714.289062 360.542969 713.660156 361.597656 712.96875 362.625 C 712.285156 363.640625 711.554688 364.628906 710.777344 365.578125 C 709.996094 366.53125 709.171875 367.449219 708.304688 368.316406 C 707.425781 369.183594 706.519531 370.007812 705.566406 370.792969 C 704.613281 371.574219 703.628906 372.308594 702.601562 372.988281 C 701.582031 373.671875 700.53125 374.304688 699.441406 374.882812 C 698.355469 375.464844 697.246094 375.988281 696.109375 376.460938 C 694.972656 376.929688 693.816406 377.34375 692.636719 377.707031 C 691.460938 378.058594 690.261719 378.355469 689.058594 378.597656 C 687.855469 378.832031 686.632812 379.019531 685.414062 379.136719 C 684.191406 379.261719 682.960938 379.324219 681.730469 379.324219 C 680.496094 379.324219 679.273438 379.261719 678.042969 379.136719 C 676.824219 379.019531 675.601562 378.832031 674.398438 378.597656 C 673.191406 378.355469 671.996094 378.058594 670.816406 377.707031 C 669.648438 377.34375 668.484375 376.929688 667.347656 376.460938 C 666.210938 375.988281 665.097656 375.464844 664.011719 374.882812 C 662.925781 374.304688 661.875 373.671875 660.855469 372.988281 C 659.828125 372.308594 658.84375 371.574219 657.890625 370.792969 C 656.9375 370.007812 656.027344 369.183594 655.160156 368.316406 C 654.285156 367.449219 653.460938 366.53125 652.6875 365.578125 C 651.902344 364.628906 651.167969 363.640625 650.488281 362.625 C 649.804688 361.597656 649.175781 360.542969 648.59375 359.457031 C 648.011719 358.371094 647.480469 357.257812 647.019531 356.121094 C 646.546875 354.984375 646.125 353.832031 645.769531 352.652344 C 645.417969 351.472656 645.113281 350.285156 644.878906 349.074219 C 644.632812 347.871094 644.457031 346.65625 644.332031 345.429688 C 644.214844 344.207031 644.15625 342.976562 644.15625 341.746094 C 644.15625 340.519531 644.214844 339.289062 644.332031 338.066406 C 644.457031 336.839844 644.632812 335.625 644.878906 334.421875 C 645.113281 333.210938 645.417969 332.023438 645.769531 330.84375 C 646.125 329.664062 646.546875 328.511719 647.019531 327.375 C 647.480469 326.238281 648.011719 325.125 648.59375 324.039062 C 649.175781 322.953125 649.804688 321.898438 650.488281 320.871094 C 651.167969 319.851562 651.902344 318.859375 652.6875 317.90625 C 653.460938 316.964844 654.285156 316.046875 655.160156 315.179688 C 656.027344 314.3125 656.9375 313.488281 657.890625 312.703125 C 658.84375 311.921875 659.828125 311.1875 660.855469 310.507812 C 661.875 309.824219 662.925781 309.191406 664.011719 308.613281 C 665.097656 308.03125 666.210938 307.507812 667.347656 307.035156 C 668.484375 306.566406 669.648438 306.152344 670.816406 305.789062 C 671.996094 305.4375 673.191406 305.132812 674.398438 304.898438 C 675.601562 304.652344 676.824219 304.476562 678.042969 304.359375 C 679.273438 304.234375 680.496094 304.171875 681.730469 304.171875 Z M 681.730469 304.171875 " fill-opacity="1" fill-rule="nonzero"/><path stroke-linecap="butt" transform="matrix(1.89393, 0, 0, 1.893753, 621.123308, 281.147526)" fill-opacity="1" fill="#371211" fill-rule="nonzero" stroke-linejoin="miter" d="M 25.202707 31.999199 C 25.202707 26.365956 29.764979 21.799131 35.399758 21.799131 C 36.674389 21.799131 37.911895 22.030154 39.097839 22.498387 C 40.28997 22.964558 41.352162 23.630811 42.290605 24.49921 C 39.974406 21.322646 36.230949 19.251692 32.000741 19.251692 C 24.957268 19.251692 19.252364 24.961255 19.252364 31.999199 C 19.252364 39.039206 24.957268 44.748769 32.000741 44.748769 C 36.235074 44.748769 39.974406 42.675752 42.296792 39.497126 C 41.35835 40.36965 40.28997 41.035903 39.104026 41.497948 C 37.911895 41.966182 36.674389 42.197205 35.399758 42.197205 C 29.764979 42.197205 25.202707 37.634505 25.202707 31.999199 " stroke="#371211" stroke-width="0.001" stroke-opacity="1" stroke-miterlimit="4"/><path stroke-linecap="butt" transform="matrix(1.89393, 0, 0, 1.893753, 621.123308, 281.147526)" fill-opacity="1" fill="#371211" fill-rule="nonzero" stroke-linejoin="miter" d="M 36.301075 29.220738 L 33.034058 24.726107 L 33.034058 30.28303 L 27.749907 31.999199 L 33.034058 33.717431 L 33.034058 39.274354 L 36.301075 34.779723 L 41.589351 36.495893 L 38.320272 31.999199 L 41.589351 27.504568 Z M 36.301075 29.220738 " stroke="#371211" stroke-width="0.001" stroke-opacity="1" stroke-miterlimit="4"/><path stroke-linecap="butt" transform="matrix(1.89393, 0, 0, 1.893753, 621.123308, 281.147526)" fill-opacity="1" fill="#371211" fill-rule="nonzero" stroke-linejoin="miter" d="M 32.000741 1.999241 C 15.432595 1.999241 1.999466 15.431565 1.999466 31.999199 C 1.999466 48.568896 15.432595 62.00122 32.000741 62.00122 C 48.570948 62.00122 61.999953 48.568896 61.999953 31.999199 C 61.999953 15.431565 48.570948 1.999241 32.000741 1.999241 Z M 32.000741 48.995875 C 22.610131 48.995875 15.001531 41.386562 15.001531 31.999199 C 15.001531 22.613899 22.610131 15.00046 32.000741 15.00046 C 41.389288 15.00046 48.997888 22.613899 48.997888 31.999199 C 48.997888 41.386562 41.389288 48.995875 32.000741 48.995875 Z M 32.000741 48.995875 " stroke="#371211" stroke-width="0.001" stroke-opacity="1" stroke-miterlimit="4"/><path fill="#cecdcd" d="M 81.917969 589.214844 C 72.957031 589.214844 64.679688 587.699219 57.09375 584.667969 C 49.519531 581.617188 42.960938 577.347656 37.417969 571.867188 C 31.894531 566.394531 27.597656 559.925781 24.550781 552.464844 C 21.519531 544.988281 20.003906 536.828125 20.003906 527.976562 C 20.003906 519.132812 21.519531 511 24.550781 503.589844 C 27.597656 496.179688 31.894531 489.769531 37.417969 484.355469 C 42.960938 478.925781 49.519531 474.714844 57.09375 471.722656 C 64.679688 468.742188 72.957031 467.246094 81.917969 467.246094 C 89.441406 467.246094 96.816406 468.472656 104.050781 470.914062 C 111.304688 473.339844 117.804688 477.238281 123.554688 482.605469 C 129.300781 487.976562 133.78125 495.132812 136.996094 504.09375 L 117.929688 510.898438 C 115.371094 504.820312 112.121094 500.085938 108.195312 496.71875 C 104.261719 493.332031 100.027344 490.949219 95.496094 489.578125 C 90.980469 488.1875 86.449219 487.488281 81.917969 487.488281 C 74.390625 487.488281 67.746094 489.207031 61.976562 492.640625 C 56.222656 496.078125 51.71875 500.84375 48.46875 506.925781 C 45.207031 512.988281 43.582031 520.011719 43.582031 527.976562 C 43.582031 535.839844 45.207031 542.890625 48.46875 549.128906 C 51.71875 555.378906 56.222656 560.269531 61.976562 563.816406 C 67.746094 567.371094 74.390625 569.136719 81.917969 569.136719 C 86.449219 569.136719 90.980469 568.398438 95.496094 566.914062 C 100.027344 565.417969 104.261719 562.863281 108.195312 559.269531 C 112.121094 555.679688 115.371094 550.839844 117.929688 544.75 L 138.007812 551.050781 C 134.234375 560.347656 129.417969 567.789062 123.554688 573.382812 C 117.695312 578.957031 111.191406 582.980469 104.050781 585.476562 C 96.910156 587.96875 89.53125 589.214844 81.917969 589.214844 Z M 81.917969 589.214844 " fill-opacity="1" fill-rule="nonzero"/><path fill="#cecdcd" d="M 137.480469 586.382812 L 137.480469 470.242188 L 230.421875 470.242188 L 230.421875 489.980469 L 159.714844 489.980469 L 159.714844 518.847656 L 227.59375 518.847656 L 227.59375 537.945312 L 159.714844 537.945312 L 159.714844 566.644531 L 230.421875 566.644531 L 230.421875 586.382812 Z M 137.480469 586.382812 " fill-opacity="1" fill-rule="nonzero"/><path fill="#cecdcd" d="M 235.054688 586.382812 L 235.054688 470.242188 L 255.636719 470.242188 L 315.867188 540.101562 L 328.667969 558.191406 L 329.140625 558.023438 L 327.152344 536.09375 L 327.152344 470.242188 L 349.386719 470.242188 L 349.386719 586.382812 L 326.816406 586.382812 L 266.414062 514.875 L 256.308594 498.941406 L 255.46875 499.109375 L 257.625 517.535156 L 257.625 586.382812 Z M 235.054688 586.382812 " fill-opacity="1" fill-rule="nonzero"/><path fill="#cecdcd" d="M 394.214844 586.382812 L 394.214844 489.980469 L 349.074219 489.980469 L 349.074219 470.242188 L 462.394531 470.242188 L 462.394531 489.980469 L 417.425781 489.980469 L 417.425781 586.382812 Z M 394.214844 586.382812 " fill-opacity="1" fill-rule="nonzero"/><path fill="#cecdcd" d="M 462.222656 586.382812 L 462.222656 470.242188 L 522.320312 470.242188 C 527.390625 470.242188 532.972656 470.90625 539.0625 472.230469 C 545.140625 473.558594 550.566406 476.101562 555.332031 479.875 C 559.417969 483.175781 562.558594 487.355469 564.765625 492.40625 C 566.988281 497.441406 568.097656 502.546875 568.097656 507.734375 C 568.097656 512.835938 566.902344 517.957031 564.527344 523.09375 C 562.144531 528.238281 558.800781 532.574219 554.488281 536.09375 C 548.847656 540.523438 541.605469 542.957031 532.761719 543.402344 L 569.414062 585.375 L 569.414062 586.382812 L 543.375 586.382812 L 506.6875 544.078125 L 485.296875 544.078125 L 485.296875 586.382812 Z M 485.296875 525.148438 L 523.96875 525.148438 C 530.707031 525.148438 535.894531 523.75 539.53125 520.9375 C 543.1875 518.105469 545.023438 513.652344 545.023438 507.5625 C 545.023438 500.945312 542.808594 496.332031 538.386719 493.71875 C 533.957031 491.117188 528.601562 489.8125 522.320312 489.8125 L 485.296875 489.8125 Z M 485.296875 525.148438 " fill-opacity="1" fill-rule="nonzero"/><path fill="#cecdcd" d="M 558.816406 586.382812 L 618.039062 469.570312 L 638.117188 469.570312 L 697.035156 586.382812 L 671.632812 586.382812 L 657.382812 558.492188 L 597.792969 558.492188 L 583.542969 586.382812 Z M 607.425781 539.261719 L 647.75 539.261719 L 636.128906 514.199219 L 628.179688 492.808594 L 619.554688 514.535156 Z M 607.425781 539.261719 " fill-opacity="1" fill-rule="nonzero"/><path fill="#cecdcd" d="M 693.867188 586.382812 L 693.867188 470.242188 L 717.28125 470.242188 L 717.28125 566.476562 L 786.640625 566.476562 L 786.640625 586.382812 Z M 693.867188 586.382812 " fill-opacity="1" fill-rule="nonzero"/></svg>